<svg width="50" height="50" viewBox="0 0 50 50" fill="none" xmlns="http://www.w3.org/2000/svg">
<rect width="50" height="50" rx="10" fill="#262F3E"/>
<path d="M15.9932 25L15.8332 23.96C15.3532 24.3733 14.8199 24.6933 14.2332 24.92C13.6599 25.1467 13.0866 25.26 12.5132 25.26C11.5666 25.26 10.8066 24.9933 10.2332 24.46C9.67322 23.9133 9.39322 23.1867 9.39322 22.28C9.39322 21.3067 9.73989 20.5333 10.4332 19.96C11.1266 19.3733 12.0599 19.08 13.2332 19.08C14.0066 19.08 14.8466 19.1933 15.7532 19.42V18.1C15.7532 17.38 15.5866 16.8733 15.2532 16.58C14.9332 16.2867 14.3799 16.14 13.5932 16.14C12.4599 16.14 11.2866 16.3467 10.0732 16.76V15.36C10.5532 15.1067 11.1399 14.9133 11.8332 14.78C12.5266 14.6333 13.2266 14.56 13.9332 14.56C15.1999 14.56 16.1332 14.8267 16.7332 15.36C17.3332 15.88 17.6332 16.68 17.6332 17.76V25H15.9932ZM12.9932 23.76C13.8999 23.76 14.8199 23.42 15.7532 22.74V20.7C15.0599 20.5267 14.3532 20.44 13.6332 20.44C12.1266 20.44 11.3732 21.02 11.3732 22.18C11.3732 22.6867 11.5132 23.08 11.7932 23.36C12.0732 23.6267 12.4732 23.76 12.9932 23.76ZM28.0071 25L25.8471 17.06L23.7071 25H21.7071L18.3871 14.86H20.4671L22.7471 22.98L24.9071 14.86H26.8871L29.0471 23.08L31.3871 14.86H33.4071L30.0071 25H28.0071ZM39.2182 22.28C39.2182 21.96 39.1116 21.7 38.8982 21.5C38.6982 21.3 38.3249 21.1 37.7782 20.9L36.0782 20.26C34.5982 19.7133 33.8582 18.78 33.8582 17.46C33.8582 16.5933 34.1916 15.8933 34.8582 15.36C35.5382 14.8267 36.4249 14.56 37.5182 14.56C38.5716 14.56 39.5649 14.7733 40.4982 15.2V16.6C39.4582 16.2667 38.4982 16.1 37.6182 16.1C36.3382 16.1 35.6982 16.5333 35.6982 17.4C35.6982 17.7467 35.8049 18.02 36.0182 18.22C36.2316 18.42 36.6516 18.64 37.2782 18.88L38.8382 19.48C39.6249 19.7867 40.1916 20.1533 40.5382 20.58C40.8849 20.9933 41.0582 21.5333 41.0582 22.2C41.0582 23.1467 40.7049 23.9 39.9982 24.46C39.2916 25.02 38.3516 25.3 37.1782 25.3C35.8582 25.3 34.7116 25.0467 33.7382 24.54V23.14C34.9916 23.5533 36.1516 23.76 37.2182 23.76C37.8716 23.76 38.3649 23.6333 38.6982 23.38C39.0449 23.1267 39.2182 22.76 39.2182 22.28Z" fill="white"/>
<path fill-rule="evenodd" clip-rule="evenodd" d="M37.553 29C39.553 29 41.553 29 40.7481 31.315C39.9432 33.6301 39.9475 34.3461 41.2675 32.5412C42.3941 31.0006 43.053 28.5003 42.1711 27.7898C41.4228 27.5005 40.553 27.4991 38.5408 27.7885C36.053 28.5 35.553 29 37.553 29ZM8.05308 28.5012C7.55309 29.0012 10.612 31.156 13.5 32.5C17.5 34.5 21.728 35.494 25.553 35.5C28.633 35.506 31.7841 34.4861 33.6541 33.8561C35.5231 33.2261 37.6261 32.2622 38.3271 31.7132C39.12 31.315 39.553 30.5 39.2811 30.3952C39.053 30 36.553 31 34.0971 31.5382C31.4231 32.3432 27.6051 33.0011 25.6121 33.0011C23.6191 33.0011 19.7531 32.3892 17.0211 31.6422C13.9078 30.7909 11.4998 30 10.4998 29.5C8.5022 28.5012 8.22653 28.3277 8.05308 28.5012Z" fill="#FB9C1E"/>
</svg>
