<svg width="18" height="18" viewBox="0 0 18 18" fill="none" xmlns="http://www.w3.org/2000/svg">
<circle cx="9" cy="9" r="9" fill="white"/>
<path d="M7.41312 5C7.46718 4.99975 7.52076 5.00816 7.57081 5.02474C7.62085 5.04133 7.66637 5.06577 7.70475 5.09665L11.6396 8.29278C11.8704 8.48024 12 8.73436 12 8.99932C12 9.26428 11.8704 9.5184 11.6396 9.70587L7.70475 12.902C7.6274 12.9647 7.5225 13 7.41312 13C7.30374 13 7.19884 12.9647 7.1215 12.902C7.04415 12.8392 7.0007 12.7541 7.0007 12.6654C7.0007 12.5766 7.04415 12.4915 7.1215 12.4287L11.0605 9.23595C11.099 9.20496 11.1295 9.1681 11.1504 9.12749C11.1713 9.08688 11.182 9.04332 11.182 8.99932C11.182 8.95532 11.1713 8.91176 11.1504 8.87115C11.1295 8.83054 11.099 8.79368 11.0605 8.76269L7.1215 5.56991C7.083 5.53892 7.05244 5.50206 7.03159 5.46145C7.01074 5.42084 7 5.37728 7 5.33328C7 5.28928 7.01074 5.24572 7.03159 5.20511C7.05244 5.1645 7.083 5.12764 7.1215 5.09665C7.15988 5.06577 7.20539 5.04133 7.25544 5.02474C7.30548 5.00816 7.35907 4.99975 7.41312 5Z" fill="black"/>
</svg>
