<svg width="50" height="50" viewBox="0 0 50 50" fill="none" xmlns="http://www.w3.org/2000/svg">
<rect width="50" height="50" rx="10" fill="#092E20"/>
<path d="M21.501 18.717C20.788 18.531 20.199 18.469 19.424 18.469C14.433 18.469 11.209 21.631 11.209 26.498C11.209 31.551 14.247 34.186 20.075 34.186C22.028 34.186 23.826 34 26.275 33.535V10.75H21.501V18.717ZM21.501 30.218C20.819 30.311 20.385 30.342 19.858 30.342C17.409 30.342 16.076 28.947 16.076 26.405C16.076 23.801 17.471 22.313 19.889 22.313C20.478 22.313 20.943 22.375 21.501 22.561V30.218ZM29.058 18.81V28.234C29.058 32.388 28.841 33.969 28.159 35.333C27.508 36.666 26.485 37.534 24.377 38.526L28.81 40.634C30.918 39.58 31.941 38.619 32.716 37.1C33.553 35.519 33.832 33.69 33.832 29.877V18.81H29.058ZM29.058 16.361H33.832V11.463H29.058V16.361Z" fill="white"/>
</svg>
