<svg width="50" height="50" viewBox="0 0 50 50" fill="none" xmlns="http://www.w3.org/2000/svg">
<path d="M0 10C0 4.47715 4.47715 0 10 0H40C45.5228 0 50 4.47715 50 10V40C50 45.5228 45.5228 50 40 50H10C4.47715 50 0 45.5228 0 40V10Z" fill="url(#paint0_linear_473_3615)" fill-opacity="0.9"/>
<rect x="13.0952" y="7.14294" width="11.9048" height="11.9048" rx="5.95238" fill="url(#paint1_radial_473_3615)"/>
<rect x="13.0952" y="7.14294" width="11.9048" height="11.9048" rx="5.95238" fill="url(#paint2_radial_473_3615)"/>
<rect width="11.9048" height="11.9048" rx="5.95238" transform="matrix(-1 0 0 1 36.9048 7.14282)" fill="url(#paint3_radial_473_3615)"/>
<rect width="11.9048" height="11.9048" rx="5.95238" transform="matrix(-1 0 0 1 36.9048 7.14282)" fill="url(#paint4_radial_473_3615)"/>
<rect width="11.9048" height="11.9048" rx="5.95238" transform="matrix(-1 0 0 1 36.9048 19.0477)" fill="url(#paint5_radial_473_3615)"/>
<rect width="11.9048" height="11.9048" rx="5.95238" transform="matrix(-1 0 0 1 36.9048 19.0477)" fill="url(#paint6_radial_473_3615)"/>
<rect x="13.0952" y="19.0477" width="11.9048" height="11.9048" rx="5.95238" fill="url(#paint7_radial_473_3615)"/>
<rect x="13.0952" y="19.0477" width="11.9048" height="11.9048" rx="5.95238" fill="url(#paint8_radial_473_3615)"/>
<rect x="13.0952" y="30.9522" width="11.9048" height="11.9048" rx="5.95238" fill="url(#paint9_radial_473_3615)"/>
<rect x="13.0952" y="30.9522" width="11.9048" height="11.9048" rx="5.95238" fill="url(#paint10_radial_473_3615)"/>
<defs>
<linearGradient id="paint0_linear_473_3615" x1="25" y1="0" x2="25" y2="50" gradientUnits="userSpaceOnUse">
<stop stop-color="#332F2E"/>
<stop offset="1" stop-color="#151718"/>
</linearGradient>
<radialGradient id="paint1_radial_473_3615" cx="0" cy="0" r="1" gradientUnits="userSpaceOnUse" gradientTransform="translate(19.0476 13.0953) rotate(45) scale(8.41794)">
<stop stop-color="#FF6342"/>
<stop offset="1" stop-color="#F34628"/>
</radialGradient>
<radialGradient id="paint2_radial_473_3615" cx="0" cy="0" r="1" gradientUnits="userSpaceOnUse" gradientTransform="translate(19.0476 13.0953) rotate(45) scale(8.41794)">
<stop stop-color="#FF6342"/>
<stop offset="1" stop-color="#F34628"/>
</radialGradient>
<radialGradient id="paint3_radial_473_3615" cx="0" cy="0" r="1" gradientUnits="userSpaceOnUse" gradientTransform="translate(5.95238 5.95238) rotate(46.4688) scale(8.21019)">
<stop stop-color="#FF867C"/>
<stop offset="1" stop-color="#FF756C"/>
</radialGradient>
<radialGradient id="paint4_radial_473_3615" cx="0" cy="0" r="1" gradientUnits="userSpaceOnUse" gradientTransform="translate(5.95238 5.95238) rotate(46.4688) scale(8.21019)">
<stop stop-color="#FF867C"/>
<stop offset="1" stop-color="#FF756C"/>
</radialGradient>
<radialGradient id="paint5_radial_473_3615" cx="0" cy="0" r="1" gradientUnits="userSpaceOnUse" gradientTransform="translate(5.95238 5.95238) rotate(90) scale(5.95238)">
<stop stop-color="#1FC3F6"/>
<stop offset="1" stop-color="#41CDFB"/>
</radialGradient>
<radialGradient id="paint6_radial_473_3615" cx="0" cy="0" r="1" gradientUnits="userSpaceOnUse" gradientTransform="translate(5.95238 5.95238) rotate(90) scale(5.95238)">
<stop stop-color="#1FC3F6"/>
<stop offset="1" stop-color="#41CDFB"/>
</radialGradient>
<radialGradient id="paint7_radial_473_3615" cx="0" cy="0" r="1" gradientUnits="userSpaceOnUse" gradientTransform="translate(19.0476 25.0001) rotate(90) scale(5.95238)">
<stop stop-color="#AC64F7"/>
<stop offset="1" stop-color="#A155F2"/>
</radialGradient>
<radialGradient id="paint8_radial_473_3615" cx="0" cy="0" r="1" gradientUnits="userSpaceOnUse" gradientTransform="translate(19.0476 25.0001) rotate(90) scale(5.95238)">
<stop stop-color="#AC64F7"/>
<stop offset="1" stop-color="#A155F2"/>
</radialGradient>
<radialGradient id="paint9_radial_473_3615" cx="0" cy="0" r="1" gradientUnits="userSpaceOnUse" gradientTransform="translate(19.0476 36.9046) rotate(90) scale(5.95238)">
<stop stop-color="#00DD8C"/>
<stop offset="1" stop-color="#00C984"/>
</radialGradient>
<radialGradient id="paint10_radial_473_3615" cx="0" cy="0" r="1" gradientUnits="userSpaceOnUse" gradientTransform="translate(19.0476 36.9046) rotate(90) scale(5.95238)">
<stop stop-color="#00DD8C"/>
<stop offset="1" stop-color="#00C984"/>
</radialGradient>
</defs>
</svg>
