<svg width="50" height="50" viewBox="0 0 50 50" fill="none" xmlns="http://www.w3.org/2000/svg">
<rect x="13.5952" y="7.64294" width="10.9048" height="10.9048" rx="5.45238" fill="url(#paint0_radial_503_3296)" stroke="#4F5156"/>
<rect x="13.5952" y="7.64294" width="10.9048" height="10.9048" rx="5.45238" fill="url(#paint1_radial_503_3296)" stroke="#4F5156"/>
<rect x="-0.5" y="0.5" width="10.9048" height="10.9048" rx="5.45238" transform="matrix(-1 0 0 1 35.9048 7.14282)" fill="url(#paint2_radial_503_3296)" stroke="#4F5156"/>
<rect x="-0.5" y="0.5" width="10.9048" height="10.9048" rx="5.45238" transform="matrix(-1 0 0 1 35.9048 7.14282)" fill="url(#paint3_radial_503_3296)" stroke="#4F5156"/>
<rect x="-0.5" y="0.5" width="10.9048" height="10.9048" rx="5.45238" transform="matrix(-1 0 0 1 35.9048 19.0477)" fill="url(#paint4_radial_503_3296)" stroke="#4F5156"/>
<rect x="-0.5" y="0.5" width="10.9048" height="10.9048" rx="5.45238" transform="matrix(-1 0 0 1 35.9048 19.0477)" fill="url(#paint5_radial_503_3296)" stroke="#4F5156"/>
<rect x="13.5952" y="19.5477" width="10.9048" height="10.9048" rx="5.45238" fill="url(#paint6_radial_503_3296)" stroke="#4F5156"/>
<rect x="13.5952" y="19.5477" width="10.9048" height="10.9048" rx="5.45238" fill="url(#paint7_radial_503_3296)" stroke="#4F5156"/>
<rect x="13.5952" y="31.4522" width="10.9048" height="10.9048" rx="5.45238" fill="url(#paint8_radial_503_3296)" stroke="#4F5156"/>
<rect x="13.5952" y="31.4522" width="10.9048" height="10.9048" rx="5.45238" fill="url(#paint9_radial_503_3296)" stroke="#4F5156"/>
<g filter="url(#filter0_b_503_3296)">
<mask id="path-11-inside-1_503_3296" fill="white">
<path d="M0 10C0 4.47715 4.47715 0 10 0H40C45.5228 0 50 4.47715 50 10V40C50 45.5228 45.5228 50 40 50H10C4.47715 50 0 45.5228 0 40V10Z"/>
</mask>
<path d="M0 10C0 4.47715 4.47715 0 10 0H40C45.5228 0 50 4.47715 50 10V40C50 45.5228 45.5228 50 40 50H10C4.47715 50 0 45.5228 0 40V10Z" fill="url(#paint10_linear_503_3296)"/>
<path d="M0 10C0 4.47715 4.47715 0 10 0H40C45.5228 0 50 4.47715 50 10V40C50 45.5228 45.5228 50 40 50H10C4.47715 50 0 45.5228 0 40V10Z" fill="url(#paint11_linear_503_3296)" fill-opacity="0.9"/>
<path d="M0 10C0 3.92487 4.92487 -1 11 -1H39C45.0751 -1 50 3.92487 50 10C50 5.02944 45.5228 1 40 1H10C4.47715 1 0 5.02944 0 10ZM50 50H0H50ZM0 50V0V50ZM50 0V50V0Z" fill="#4F5156" mask="url(#path-11-inside-1_503_3296)"/>
</g>
<rect x="13.0952" y="7.14294" width="11.9048" height="11.9048" rx="5.95238" fill="url(#paint12_radial_503_3296)"/>
<rect x="13.0952" y="7.14294" width="11.9048" height="11.9048" rx="5.95238" fill="url(#paint13_radial_503_3296)"/>
<rect width="11.9048" height="11.9048" rx="5.95238" transform="matrix(-1 0 0 1 36.9048 7.14282)" fill="url(#paint14_radial_503_3296)"/>
<rect width="11.9048" height="11.9048" rx="5.95238" transform="matrix(-1 0 0 1 36.9048 7.14282)" fill="url(#paint15_radial_503_3296)"/>
<rect width="11.9048" height="11.9048" rx="5.95238" transform="matrix(-1 0 0 1 36.9048 19.0477)" fill="url(#paint16_radial_503_3296)"/>
<rect width="11.9048" height="11.9048" rx="5.95238" transform="matrix(-1 0 0 1 36.9048 19.0477)" fill="url(#paint17_radial_503_3296)"/>
<rect x="13.0952" y="19.0477" width="11.9048" height="11.9048" rx="5.95238" fill="url(#paint18_radial_503_3296)"/>
<rect x="13.0952" y="19.0477" width="11.9048" height="11.9048" rx="5.95238" fill="url(#paint19_radial_503_3296)"/>
<rect x="13.0952" y="30.9522" width="11.9048" height="11.9048" rx="5.95238" fill="url(#paint20_radial_503_3296)"/>
<rect x="13.0952" y="30.9522" width="11.9048" height="11.9048" rx="5.95238" fill="url(#paint21_radial_503_3296)"/>
<defs>
<filter id="filter0_b_503_3296" x="-16" y="-16" width="82" height="82" filterUnits="userSpaceOnUse" color-interpolation-filters="sRGB">
<feFlood flood-opacity="0" result="BackgroundImageFix"/>
<feGaussianBlur in="BackgroundImageFix" stdDeviation="8"/>
<feComposite in2="SourceAlpha" operator="in" result="effect1_backgroundBlur_503_3296"/>
<feBlend mode="normal" in="SourceGraphic" in2="effect1_backgroundBlur_503_3296" result="shape"/>
</filter>
<radialGradient id="paint0_radial_503_3296" cx="0" cy="0" r="1" gradientUnits="userSpaceOnUse" gradientTransform="translate(19.0476 13.0953) rotate(45) scale(8.41794)">
<stop stop-color="#FF6342"/>
<stop offset="1" stop-color="#F34628"/>
</radialGradient>
<radialGradient id="paint1_radial_503_3296" cx="0" cy="0" r="1" gradientUnits="userSpaceOnUse" gradientTransform="translate(19.0476 13.0953) rotate(45) scale(8.41794)">
<stop stop-color="#FF6342"/>
<stop offset="1" stop-color="#F34628"/>
</radialGradient>
<radialGradient id="paint2_radial_503_3296" cx="0" cy="0" r="1" gradientUnits="userSpaceOnUse" gradientTransform="translate(5.95238 5.95238) rotate(46.4688) scale(8.21019)">
<stop stop-color="#FF867C"/>
<stop offset="1" stop-color="#FF756C"/>
</radialGradient>
<radialGradient id="paint3_radial_503_3296" cx="0" cy="0" r="1" gradientUnits="userSpaceOnUse" gradientTransform="translate(5.95238 5.95238) rotate(46.4688) scale(8.21019)">
<stop stop-color="#FF867C"/>
<stop offset="1" stop-color="#FF756C"/>
</radialGradient>
<radialGradient id="paint4_radial_503_3296" cx="0" cy="0" r="1" gradientUnits="userSpaceOnUse" gradientTransform="translate(5.95238 5.95238) rotate(90) scale(5.95238)">
<stop stop-color="#1FC3F6"/>
<stop offset="1" stop-color="#41CDFB"/>
</radialGradient>
<radialGradient id="paint5_radial_503_3296" cx="0" cy="0" r="1" gradientUnits="userSpaceOnUse" gradientTransform="translate(5.95238 5.95238) rotate(90) scale(5.95238)">
<stop stop-color="#1FC3F6"/>
<stop offset="1" stop-color="#41CDFB"/>
</radialGradient>
<radialGradient id="paint6_radial_503_3296" cx="0" cy="0" r="1" gradientUnits="userSpaceOnUse" gradientTransform="translate(19.0476 25.0001) rotate(90) scale(5.95238)">
<stop stop-color="#AC64F7"/>
<stop offset="1" stop-color="#A155F2"/>
</radialGradient>
<radialGradient id="paint7_radial_503_3296" cx="0" cy="0" r="1" gradientUnits="userSpaceOnUse" gradientTransform="translate(19.0476 25.0001) rotate(90) scale(5.95238)">
<stop stop-color="#AC64F7"/>
<stop offset="1" stop-color="#A155F2"/>
</radialGradient>
<radialGradient id="paint8_radial_503_3296" cx="0" cy="0" r="1" gradientUnits="userSpaceOnUse" gradientTransform="translate(19.0476 36.9046) rotate(90) scale(5.95238)">
<stop stop-color="#00DD8C"/>
<stop offset="1" stop-color="#00C984"/>
</radialGradient>
<radialGradient id="paint9_radial_503_3296" cx="0" cy="0" r="1" gradientUnits="userSpaceOnUse" gradientTransform="translate(19.0476 36.9046) rotate(90) scale(5.95238)">
<stop stop-color="#00DD8C"/>
<stop offset="1" stop-color="#00C984"/>
</radialGradient>
<linearGradient id="paint10_linear_503_3296" x1="25" y1="0" x2="25" y2="50" gradientUnits="userSpaceOnUse">
<stop stop-opacity="0.4"/>
<stop offset="1" stop-opacity="0.1"/>
</linearGradient>
<linearGradient id="paint11_linear_503_3296" x1="25" y1="0" x2="25" y2="50" gradientUnits="userSpaceOnUse">
<stop stop-color="#332F2E"/>
<stop offset="1" stop-color="#151718"/>
</linearGradient>
<radialGradient id="paint12_radial_503_3296" cx="0" cy="0" r="1" gradientUnits="userSpaceOnUse" gradientTransform="translate(19.0476 13.0953) rotate(45) scale(8.41794)">
<stop stop-color="#FF6342"/>
<stop offset="1" stop-color="#F34628"/>
</radialGradient>
<radialGradient id="paint13_radial_503_3296" cx="0" cy="0" r="1" gradientUnits="userSpaceOnUse" gradientTransform="translate(19.0476 13.0953) rotate(45) scale(8.41794)">
<stop stop-color="#FF6342"/>
<stop offset="1" stop-color="#F34628"/>
</radialGradient>
<radialGradient id="paint14_radial_503_3296" cx="0" cy="0" r="1" gradientUnits="userSpaceOnUse" gradientTransform="translate(5.95238 5.95238) rotate(46.4688) scale(8.21019)">
<stop stop-color="#FF867C"/>
<stop offset="1" stop-color="#FF756C"/>
</radialGradient>
<radialGradient id="paint15_radial_503_3296" cx="0" cy="0" r="1" gradientUnits="userSpaceOnUse" gradientTransform="translate(5.95238 5.95238) rotate(46.4688) scale(8.21019)">
<stop stop-color="#FF867C"/>
<stop offset="1" stop-color="#FF756C"/>
</radialGradient>
<radialGradient id="paint16_radial_503_3296" cx="0" cy="0" r="1" gradientUnits="userSpaceOnUse" gradientTransform="translate(5.95238 5.95238) rotate(90) scale(5.95238)">
<stop stop-color="#1FC3F6"/>
<stop offset="1" stop-color="#41CDFB"/>
</radialGradient>
<radialGradient id="paint17_radial_503_3296" cx="0" cy="0" r="1" gradientUnits="userSpaceOnUse" gradientTransform="translate(5.95238 5.95238) rotate(90) scale(5.95238)">
<stop stop-color="#1FC3F6"/>
<stop offset="1" stop-color="#41CDFB"/>
</radialGradient>
<radialGradient id="paint18_radial_503_3296" cx="0" cy="0" r="1" gradientUnits="userSpaceOnUse" gradientTransform="translate(19.0476 25.0001) rotate(90) scale(5.95238)">
<stop stop-color="#AC64F7"/>
<stop offset="1" stop-color="#A155F2"/>
</radialGradient>
<radialGradient id="paint19_radial_503_3296" cx="0" cy="0" r="1" gradientUnits="userSpaceOnUse" gradientTransform="translate(19.0476 25.0001) rotate(90) scale(5.95238)">
<stop stop-color="#AC64F7"/>
<stop offset="1" stop-color="#A155F2"/>
</radialGradient>
<radialGradient id="paint20_radial_503_3296" cx="0" cy="0" r="1" gradientUnits="userSpaceOnUse" gradientTransform="translate(19.0476 36.9046) rotate(90) scale(5.95238)">
<stop stop-color="#00DD8C"/>
<stop offset="1" stop-color="#00C984"/>
</radialGradient>
<radialGradient id="paint21_radial_503_3296" cx="0" cy="0" r="1" gradientUnits="userSpaceOnUse" gradientTransform="translate(19.0476 36.9046) rotate(90) scale(5.95238)">
<stop stop-color="#00DD8C"/>
<stop offset="1" stop-color="#00C984"/>
</radialGradient>
</defs>
</svg>
