<svg width="50" height="50" viewBox="0 0 50 50" fill="none" xmlns="http://www.w3.org/2000/svg">
<rect width="50" height="50" rx="10" fill="url(#paint0_linear_503_3320)"/>
<path d="M13.646 21.6769C14.5992 24.7587 15.8 25.602 18.9075 25.8307" stroke="white" stroke-width="1.5"/>
<path d="M13.6458 21.4001C13.6458 21.4001 13.3936 30.2634 13.6458 33.5847C13.8981 36.9061 16.7186 37.5909 19.4614 37.7386" stroke="white" stroke-width="1.5"/>
<circle cx="14.4769" cy="14.4769" r="6.72692" stroke="white" stroke-width="1.5"/>
<path d="M12.2617 17.1984V12.2528C12.2617 12.0811 12.3299 11.9164 12.4514 11.795C12.6645 11.5818 12.9967 11.544 13.2523 11.7038L16.8941 13.9798C17.1132 14.1168 17.2463 14.357 17.2463 14.6154C17.2463 14.8738 17.1132 15.114 16.8941 15.2509L13.0654 17.6439C12.9102 17.7409 12.7157 17.7501 12.5521 17.6683C12.3741 17.5793 12.2617 17.3974 12.2617 17.1984Z" stroke="white" stroke-width="1.5"/>
<circle cx="23.8924" cy="25.5538" r="4.51154" stroke="white" stroke-width="1.5"/>
<circle cx="23.8924" cy="37.7385" r="4.51154" stroke="white" stroke-width="1.5"/>
<circle cx="37.1849" cy="25.5538" r="4.51154" stroke="white" stroke-width="1.5"/>
<path d="M28.6006 25.8309H32.4775" stroke="white" stroke-width="1.5" stroke-linecap="round" stroke-linejoin="round"/>
<path d="M22.2305 25.8307L22.9139 26.5142C23.1482 26.7485 23.5281 26.7485 23.7624 26.5142L25.5535 24.723" stroke="white" stroke-width="1.4" stroke-linecap="round" stroke-linejoin="round"/>
<path d="M35.7998 25.8307L36.4832 26.5142C36.7175 26.7485 37.0974 26.7485 37.3318 26.5142L39.1229 24.723" stroke="white" stroke-width="1.4" stroke-linecap="round" stroke-linejoin="round"/>
<circle cx="22.7285" cy="37.6831" r="0.775385" fill="white"/>
<circle cx="25.4985" cy="37.6831" r="0.775385" fill="white"/>
<circle cx="37.1844" cy="37.7383" r="4.61154" stroke="#95A9DC" stroke-width="1.3"/>
<path d="M32.477 37.4614H30.8154" stroke="#95A9DC" stroke-width="1.3" stroke-linecap="round" stroke-linejoin="round"/>
<defs>
<linearGradient id="paint0_linear_503_3320" x1="25" y1="0" x2="25" y2="50" gradientUnits="userSpaceOnUse">
<stop stop-color="#387BF8"/>
<stop offset="1" stop-color="#2659CB"/>
</linearGradient>
</defs>
</svg>
