<svg width="50" height="50" viewBox="0 0 50 50" fill="none" xmlns="http://www.w3.org/2000/svg">
<rect width="50" height="50" rx="10" fill="black"/>
<path fill-rule="evenodd" clip-rule="evenodd" d="M25 6C14.5025 6 6 14.7176 6 25.4806C6 34.1007 11.4387 41.3816 18.9912 43.9628C19.9412 44.1332 20.2975 43.5488 20.2975 43.0375C20.2975 42.5748 20.2738 41.0407 20.2738 39.4092C15.5 40.3102 14.265 38.216 13.885 37.1202C13.6712 36.5602 12.745 34.8313 11.9375 34.3686C11.2725 34.0033 10.3225 33.1024 11.9137 33.078C13.41 33.0537 14.4787 34.4903 14.835 35.0748C16.545 38.0212 19.2763 37.1933 20.3688 36.6819C20.535 35.4157 21.0338 34.5634 21.58 34.0764C17.3525 33.5894 12.935 31.9092 12.935 24.4579C12.935 22.3393 13.6712 20.5861 14.8825 19.2224C14.6925 18.7354 14.0275 16.7387 15.0725 14.0601C15.0725 14.0601 16.6638 13.5487 20.2975 16.0569C21.8175 15.6185 23.4325 15.3994 25.0475 15.3994C26.6625 15.3994 28.2775 15.6185 29.7975 16.0569C33.4312 13.5244 35.0225 14.0601 35.0225 14.0601C36.0675 16.7387 35.4025 18.7354 35.2125 19.2224C36.4237 20.5861 37.16 22.315 37.16 24.4579C37.16 31.9335 32.7188 33.5894 28.4913 34.0764C29.18 34.6852 29.7738 35.854 29.7738 37.6803C29.7738 40.2858 29.75 42.38 29.75 43.0375C29.75 43.5488 30.1063 44.1576 31.0562 43.9628C38.5612 41.3816 44 34.0764 44 25.4806C44 14.7176 35.4975 6 25 6Z" fill="white"/>
</svg>
