<svg width="51" height="50" viewBox="0 0 51 50" fill="none" xmlns="http://www.w3.org/2000/svg">
<rect width="51" height="50" rx="10" fill="#330000"/>
<path d="M25.144 29.696L26.878 34.762C26.946 34.932 27.048 35 27.252 35H31.672C31.876 35 31.91 34.864 31.842 34.694L24.124 12.934C24.09 12.764 24.022 12.73 23.852 12.73H18.412C18.31 12.73 18.208 12.832 18.208 12.968C18.14 14.26 18.004 14.668 17.868 15.042L11.068 34.66C11.034 34.864 11.102 35 11.34 35H15.284C15.488 35 15.59 34.898 15.658 34.728L17.29 29.696H25.144ZM18.514 25.446C19.398 22.692 20.622 18.952 21.166 16.674H21.2C21.846 19.088 23.206 23.202 23.886 25.446H18.514ZM34.124 34.694C34.124 34.898 34.226 35 34.464 35H38.544C38.816 35 38.85 34.898 38.85 34.694V18.374C38.85 18.17 38.782 18.102 38.578 18.102H34.396C34.192 18.102 34.124 18.204 34.124 18.374V34.694ZM36.504 16.3C38.102 16.3 39.156 15.246 39.156 13.648C39.156 12.118 38.17 11.03 36.538 11.03C35.008 11.03 33.886 12.118 33.886 13.648C33.886 15.246 34.906 16.3 36.504 16.3Z" fill="#FF9A00"/>
</svg>
