<svg width="358" height="38" viewBox="0 0 358 38" fill="none" xmlns="http://www.w3.org/2000/svg">
<path fill-rule="evenodd" clip-rule="evenodd" d="M150.606 36.559C156.143 37.382 161.722 35.7866 166.107 32.5848C168.489 34.6217 171.521 36.0393 175.018 36.559C181.674 37.5483 188.39 35.0433 193.02 30.4541C195.589 33.6254 199.393 35.8734 204.006 36.559C214.343 38.0953 224.823 31.2047 227.416 21.1684C230.008 11.132 223.73 1.75056 213.394 0.214245C206.738 -0.775047 200.022 1.72996 195.391 6.3191C192.823 3.1478 189.018 0.899843 184.405 0.214245C178.868 -0.60877 173.289 0.986607 168.904 4.18844C166.523 2.15149 163.49 0.733964 159.994 0.214245C149.657 -1.32207 139.177 5.56855 136.584 15.6049C133.992 25.6412 140.27 35.0227 150.606 36.559Z" fill="white"/>
<g filter="url(#filter0_i_351_2925)">
<path fill-rule="evenodd" clip-rule="evenodd" d="M147.606 37.559C153.143 38.382 158.722 36.7866 163.107 33.5848C165.489 35.6217 168.521 37.0393 172.018 37.559C178.674 38.5483 185.39 36.0433 190.02 31.4541C192.589 34.6254 196.393 36.8734 201.006 37.559C211.343 39.0953 221.823 32.2047 224.416 22.1684C227.008 12.132 220.73 2.75056 210.394 1.21425C203.738 0.224953 197.022 2.72996 192.391 7.3191C189.823 4.1478 186.018 1.89984 181.405 1.21425C175.868 0.39123 170.289 1.98661 165.904 5.18844C163.523 3.15149 160.49 1.73396 156.994 1.21425C146.657 -0.322066 136.177 6.56855 133.584 16.6049C130.992 26.6412 137.27 36.0227 147.606 37.559Z" fill="#D0E3D5"/>
</g>
<path d="M158.254 18.136H154.948V16.7293H158.254V18.136ZM152.961 15.6319C152.958 16.6954 152.83 17.6945 152.579 18.6291C152.331 19.5638 151.949 20.392 151.433 21.114C150.921 21.8359 150.286 22.3837 149.529 22.7576L148.436 21.3412C149.123 21.0285 149.699 20.5757 150.167 19.9827C150.634 19.3897 150.98 18.721 151.206 17.9765C151.432 17.2288 151.546 16.4473 151.549 15.6319V13.7707H152.961V15.6319ZM153.323 15.6319C153.32 16.4473 153.428 17.2159 153.647 17.9378C153.87 18.6598 154.205 19.3027 154.653 19.8667C155.104 20.4275 155.663 20.8529 156.33 21.143L155.277 22.5304C154.522 22.1662 153.896 21.6409 153.396 20.9544C152.896 20.268 152.526 19.4751 152.284 18.576C152.042 17.6736 151.923 16.6922 151.926 15.6319V13.7707H153.323V15.6319ZM159.11 25.2907H157.384V12.8087H159.11V25.2907ZM170.686 25.2907H168.921V12.8087H170.686V25.2907ZM162.636 16.8308H165.32V13.8094H167.036V22.3757H160.891V13.8094H162.636V16.8308ZM165.32 20.9593V18.1892H162.636V20.9593H165.32ZM178.147 14.4523C178.147 15.3547 177.936 16.1991 177.514 16.9855C177.092 17.7719 176.487 18.4438 175.701 19.0014C174.918 19.5589 174.006 19.9441 172.965 20.1568L172.215 18.7065C173.105 18.5486 173.883 18.2505 174.55 17.8122C175.217 17.3706 175.727 16.8566 176.078 16.27C176.432 15.6802 176.611 15.0744 176.615 14.4523V13.558H178.147V14.4523ZM178.476 14.4523C178.473 15.0808 178.647 15.6899 178.998 16.2797C179.352 16.8695 179.865 17.3835 180.535 17.8218C181.209 18.2569 181.998 18.5518 182.904 18.7065L182.135 20.1568C181.088 19.9505 180.174 19.5718 179.394 19.0207C178.618 18.4664 178.02 17.796 177.601 17.0097C177.182 16.2201 176.974 15.3676 176.977 14.4523V13.558H178.476V14.4523ZM183.31 23.7341H171.93V22.2983H183.31V23.7341ZM197.752 23.7728H186.372V22.3757H197.752V23.7728ZM192.865 22.7528H191.134V19.5622H192.865V22.7528ZM192.589 14.4137C192.589 15.3032 192.378 16.1331 191.956 16.9033C191.537 17.6736 190.933 18.3278 190.143 18.866C189.357 19.401 188.437 19.7652 187.383 19.9586L186.638 18.5035C187.547 18.3649 188.335 18.0861 189.002 17.6671C189.673 17.2449 190.182 16.7502 190.53 16.183C190.878 15.6126 191.053 15.0228 191.057 14.4137V13.529H192.589V14.4137ZM192.918 14.4137C192.915 15.026 193.089 15.6158 193.44 16.183C193.795 16.7502 194.307 17.2433 194.977 17.6623C195.651 18.0813 196.447 18.3616 197.365 18.5035L196.621 19.9586C195.561 19.762 194.636 19.3978 193.846 18.866C193.056 18.331 192.449 17.6816 192.024 16.9178C191.601 16.1508 191.392 15.3161 191.395 14.4137V13.529H192.918V14.4137ZM208.757 25.2617H207.08V12.8087H208.757V25.2617ZM207.582 18.9289H205.465V17.5269H207.582V18.9289ZM203.435 14.3508C203.435 15.5723 203.294 16.6826 203.014 17.6816C202.734 18.6807 202.258 19.6024 201.588 20.4468C200.918 21.2912 200.015 22.0421 198.881 22.6996L197.875 21.491C198.826 20.9367 199.587 20.3244 200.157 19.654C200.731 18.9837 201.145 18.244 201.399 17.4351C201.654 16.6262 201.781 15.7109 201.781 14.6892V14.3508H203.435ZM202.284 15.7479H198.504V14.3508H202.284V15.7479ZM205.939 24.7058H204.319V13.1374H205.939V24.7058Z" fill="black"/>
<rect y="19" width="1" height="4.37349" transform="rotate(-90 0 19)" fill="#D0E3D5"/>
<rect x="7.28906" y="19" width="1" height="4.37349" transform="rotate(-90 7.28906 19)" fill="#D0E3D5"/>
<rect x="14.5784" y="19" width="1" height="4.37349" transform="rotate(-90 14.5784 19)" fill="#D0E3D5"/>
<rect x="21.8674" y="19" width="1" height="4.37349" transform="rotate(-90 21.8674 19)" fill="#D0E3D5"/>
<rect x="29.1567" y="19" width="1" height="4.37349" transform="rotate(-90 29.1567 19)" fill="#D0E3D5"/>
<rect x="36.4458" y="19" width="1" height="4.37349" transform="rotate(-90 36.4458 19)" fill="#D0E3D5"/>
<rect x="43.7349" y="19" width="1" height="4.37349" transform="rotate(-90 43.7349 19)" fill="#D0E3D5"/>
<rect x="51.0242" y="19" width="1" height="4.37349" transform="rotate(-90 51.0242 19)" fill="#D0E3D5"/>
<rect x="58.3132" y="19" width="1" height="4.37349" transform="rotate(-90 58.3132 19)" fill="#D0E3D5"/>
<rect x="65.6023" y="19" width="1" height="4.37349" transform="rotate(-90 65.6023 19)" fill="#D0E3D5"/>
<rect x="72.8916" y="19" width="1" height="4.37349" transform="rotate(-90 72.8916 19)" fill="#D0E3D5"/>
<rect x="80.1807" y="19" width="1" height="4.37349" transform="rotate(-90 80.1807 19)" fill="#D0E3D5"/>
<rect x="87.47" y="19" width="1" height="4.37349" transform="rotate(-90 87.47 19)" fill="#D0E3D5"/>
<rect x="94.759" y="19" width="1" height="4.37349" transform="rotate(-90 94.759 19)" fill="#D0E3D5"/>
<rect x="102.048" y="19" width="1" height="4.37349" transform="rotate(-90 102.048 19)" fill="#D0E3D5"/>
<rect x="109.337" y="19" width="1" height="4.37349" transform="rotate(-90 109.337 19)" fill="#D0E3D5"/>
<rect x="116.626" y="19" width="1" height="4.37349" transform="rotate(-90 116.626 19)" fill="#D0E3D5"/>
<rect x="237" y="19" width="1" height="4.37349" transform="rotate(-90 237 19)" fill="#D0E3D5"/>
<rect x="244.289" y="19" width="1" height="4.37349" transform="rotate(-90 244.289 19)" fill="#D0E3D5"/>
<rect x="251.578" y="19" width="1" height="4.37349" transform="rotate(-90 251.578 19)" fill="#D0E3D5"/>
<rect x="258.867" y="19" width="1" height="4.37349" transform="rotate(-90 258.867 19)" fill="#D0E3D5"/>
<rect x="266.157" y="19" width="1" height="4.37349" transform="rotate(-90 266.157 19)" fill="#D0E3D5"/>
<rect x="273.446" y="19" width="1" height="4.37349" transform="rotate(-90 273.446 19)" fill="#D0E3D5"/>
<rect x="280.735" y="19" width="1" height="4.37349" transform="rotate(-90 280.735 19)" fill="#D0E3D5"/>
<rect x="288.024" y="19" width="1" height="4.37349" transform="rotate(-90 288.024 19)" fill="#D0E3D5"/>
<rect x="295.313" y="19" width="1" height="4.37349" transform="rotate(-90 295.313 19)" fill="#D0E3D5"/>
<rect x="302.602" y="19" width="1" height="4.37349" transform="rotate(-90 302.602 19)" fill="#D0E3D5"/>
<rect x="309.892" y="19" width="1" height="4.37349" transform="rotate(-90 309.892 19)" fill="#D0E3D5"/>
<rect x="317.181" y="19" width="1" height="4.37349" transform="rotate(-90 317.181 19)" fill="#D0E3D5"/>
<rect x="324.47" y="19" width="1" height="4.37349" transform="rotate(-90 324.47 19)" fill="#D0E3D5"/>
<rect x="331.759" y="19" width="1" height="4.37349" transform="rotate(-90 331.759 19)" fill="#D0E3D5"/>
<rect x="339.048" y="19" width="1" height="4.37349" transform="rotate(-90 339.048 19)" fill="#D0E3D5"/>
<rect x="346.337" y="19" width="1" height="4.37349" transform="rotate(-90 346.337 19)" fill="#D0E3D5"/>
<rect x="353.626" y="19" width="1" height="4.37349" transform="rotate(-90 353.626 19)" fill="#D0E3D5"/>
<defs>
<filter id="filter0_i_351_2925" x="133" y="1" width="91.9998" height="38.7732" filterUnits="userSpaceOnUse" color-interpolation-filters="sRGB">
<feFlood flood-opacity="0" result="BackgroundImageFix"/>
<feBlend mode="normal" in="SourceGraphic" in2="BackgroundImageFix" result="shape"/>
<feColorMatrix in="SourceAlpha" type="matrix" values="0 0 0 0 0 0 0 0 0 0 0 0 0 0 0 0 0 0 127 0" result="hardAlpha"/>
<feOffset dy="2"/>
<feGaussianBlur stdDeviation="1"/>
<feComposite in2="hardAlpha" operator="arithmetic" k2="-1" k3="1"/>
<feColorMatrix type="matrix" values="0 0 0 0 0 0 0 0 0 0 0 0 0 0 0 0 0 0 0.15 0"/>
<feBlend mode="normal" in2="shape" result="effect1_innerShadow_351_2925"/>
</filter>
</defs>
</svg>
