<svg width="50" height="50" viewBox="0 0 50 50" fill="none" xmlns="http://www.w3.org/2000/svg">
<rect width="50" height="50" rx="10" fill="#CB3837"/>
<rect width="50" height="50" rx="10" fill="url(#paint0_linear_524_3007)" fill-opacity="0.2"/>
<path d="M2.5 31V16H47.5V31H25V33.5H15V31H2.5Z" fill="white"/>
<path d="M5 28.5V18.5H15V28.5H12.5V21H10V28.5H5Z" fill="#CB3837"/>
<path d="M27.5 18.5H17.5V31H22.5V28.5H27.5V18.5Z" fill="#CB3837"/>
<path d="M30 28.5V18.5H45V28.5H42.5V21H40V28.5H37.5V21H35V28.5H30Z" fill="#CB3837"/>
<path d="M22.5 26V21H25V26H22.5Z" fill="white"/>
<defs>
<linearGradient id="paint0_linear_524_3007" x1="25" y1="50" x2="25" y2="-7.45058e-08" gradientUnits="userSpaceOnUse">
<stop/>
<stop offset="0.453125" stop-opacity="0"/>
</linearGradient>
</defs>
</svg>
