<svg width="833" height="833" viewBox="0 0 833 833" fill="none" xmlns="http://www.w3.org/2000/svg">
<rect width="833" height="833" rx="160" fill="#8EC7FF"/>
<rect width="833" height="833" rx="160" fill="url(#paint0_linear_575_3030)" fill-opacity="0.15"/>
<path fill-rule="evenodd" clip-rule="evenodd" d="M661.018 231.092L661.068 284.187L645.034 313.031C636.215 328.896 629 342.272 629 342.756C629 344.131 644.189 351.625 644.695 350.5C644.943 349.95 652.426 336.478 661.323 320.562L677.5 291.624L723.671 263.562C764.246 238.901 769.639 235.339 768.171 234.168C765.797 232.276 753.28 226 751.88 226C750.572 226 703.588 255.778 689.32 265.649C684.271 269.142 679.996 272 679.82 272C679.644 272 679.653 252.988 679.839 229.75L680.178 187.5L670.573 182.748L660.968 177.997L661.018 231.092ZM325.282 192.652C318.66 194.939 318.017 195.408 317.507 198.323C316.961 201.436 301.874 305.579 297.874 333.839C296.758 341.725 296.076 348.409 296.358 348.692C296.903 349.236 310.03 345.191 311.172 344.126C311.541 343.782 314.82 323.025 318.458 298C329.473 222.226 331.229 210.518 331.648 210.059C331.869 209.816 334.401 211.866 337.275 214.615C361.003 237.309 397.746 272.525 408 282.401C414.875 289.022 422.993 296.821 426.041 299.732L431.581 305.023L438.953 302.516C443.007 301.137 446.501 299.832 446.717 299.617C447.191 299.142 333.948 189.967 333.098 190.079C332.769 190.122 329.252 191.28 325.282 192.652ZM257.5 203.564C238.25 209.809 204.559 220.674 182.632 227.709C138.057 242.01 141.31 240.189 140.794 251.135L140.5 257.371L205.5 301.589C269.364 345.034 270.513 345.761 271.227 343.165C271.627 341.712 272.232 338.043 272.572 335.011L273.189 329.5L216.015 290.584C178.945 265.353 159.308 251.415 160.17 250.948C161.375 250.296 267.826 215.73 284.462 210.589C291.032 208.559 291.462 208.243 292.102 204.969C293.571 197.457 294.084 192.005 293.311 192.105C292.865 192.162 276.75 197.319 257.5 203.564ZM123.102 314.75C119.639 339.913 115.034 373.325 112.87 389C110.705 404.675 108.668 419.583 108.342 422.128L107.75 426.756L113.82 430.878C117.159 433.145 120.431 435 121.092 435C122.441 435 257.95 356.782 257.955 356C257.957 355.725 254.961 353.53 251.297 351.123C246.307 347.844 244.243 346.988 243.068 347.71C238.205 350.7 125.019 416 124.699 416C124.261 416 124.284 415.82 135.034 337.363C139.415 305.388 143 278.778 143 278.23C143 277.355 131.124 269 129.88 269C129.615 269 126.566 289.587 123.102 314.75ZM378.5 350.694C337.8 363.608 304.301 374.371 304.059 374.611C303.464 375.201 314.183 386 315.363 386C315.875 386 345.742 376.74 381.736 365.422C417.729 354.104 447.431 345.098 447.741 345.408C448.051 345.717 438.324 374.64 426.126 409.68L403.947 473.388L409.687 479.189C413.842 483.388 415.633 484.621 416.173 483.656C416.583 482.922 425.3 458.287 435.542 428.911C445.785 399.535 457.12 367.032 460.732 356.682L467.298 337.865L461.933 332.432C458.695 329.153 455.762 327.042 454.534 327.107C453.415 327.166 419.2 337.78 378.5 350.694ZM580.5 334.437C528.57 351.675 494.066 379.758 472.975 421.953C456.637 454.64 452.852 490.607 461.737 528.75C463.178 534.938 464.852 540 465.457 540C466.062 540 469.73 538.479 473.608 536.62L480.66 533.241L478.851 524.37C470.655 484.178 477.414 448.181 499.48 414.5C518.127 386.039 548.642 363.722 586.954 350.526C592.704 348.546 597.54 346.793 597.701 346.632C597.975 346.358 596.561 337.307 595.454 332.25C595.184 331.012 594.633 330.027 594.231 330.061C593.829 330.095 587.65 332.064 580.5 334.437ZM662 378.147C658.425 379.266 655.22 380.478 654.878 380.841C654.535 381.203 654.837 385.325 655.547 390C661.318 427.984 655.464 465.348 639.331 493.5C623.288 521.496 601.465 541.919 573.563 555.052C565.08 559.044 557.394 561.771 540 566.96C537.589 567.679 537.507 567.983 537.69 575.459C537.794 579.723 538.133 583.466 538.443 583.776C539.417 584.75 554.691 581.03 566.662 576.902C591.999 568.165 610.268 556.79 629.076 538.038C652.541 514.645 666.072 489.765 673.148 457C675.132 447.814 675.417 443.622 675.428 423.5C675.439 401.462 674.921 395.688 671.411 378.75C670.741 375.515 670.465 375.497 662 378.147ZM273.257 386.261C269.823 387.427 266.812 389.082 266.565 389.94C266.318 390.798 264.025 404.775 261.47 421C258.915 437.225 253.58 470.975 249.615 496C245.651 521.025 242.653 541.604 242.953 541.73C243.254 541.857 246.869 540.922 250.986 539.654L258.473 537.349L268.81 471.924C274.496 435.941 279.452 405.723 279.824 404.774C280.583 402.836 280.564 402.818 341.701 463.229C361.612 482.903 378.438 499 379.093 499C381.313 499 394 494.92 393.995 494.208C393.992 493.818 369.174 468.975 338.844 439C304.704 405.261 282.898 384.432 281.599 384.32C280.444 384.222 276.691 385.095 273.257 386.261ZM550.344 405.51C545.624 408.339 540.343 415.653 539.404 420.66C538.011 428.085 544.006 435.003 551.827 434.996C557.585 434.992 561.882 432.526 565.973 426.879C570.507 420.619 571.54 415.761 569.304 411.205C567.105 406.72 561.787 402.997 557.602 403.009C555.896 403.015 552.63 404.14 550.344 405.51ZM603 439.728C598.046 441.612 590.622 450.869 589.571 456.474C588.695 461.142 591.093 466.477 595.19 468.974C601.825 473.02 609.797 470.765 615.565 463.211C620.922 456.195 621.744 451.511 618.722 445.216C616.473 440.531 608.347 437.695 603 439.728ZM363.5 528.936C343.15 535.412 309.625 546.01 289 552.487C268.375 558.964 250.988 564.668 250.361 565.162C249.735 565.656 248.921 568.634 248.552 571.78C248.183 574.926 247.668 578.239 247.408 579.142C247.05 580.38 259.921 589.716 299.717 617.088C328.748 637.056 358.125 657.288 365 662.049C379.04 671.771 378.324 671.83 379.5 660.847L380.197 654.334L323.644 615.417C292.539 594.013 267.07 576.177 267.045 575.782C267.02 575.387 270.713 573.927 275.25 572.538C279.787 571.148 309.6 561.73 341.5 551.609L399.5 533.208L400.689 526.354C402.142 517.971 402.202 516.978 401.25 517.081C400.837 517.125 383.85 522.46 363.5 528.936ZM413.195 598.253C407.528 640.189 402.925 674.95 402.966 675.5C403.008 676.05 406.039 678.47 409.703 680.877C414.672 684.142 416.762 685.012 417.932 684.299C418.794 683.774 450.194 666.545 487.71 646.011C525.225 625.478 555.72 608.356 555.476 607.961C555.232 607.567 552.146 605.434 548.619 603.222L542.205 599.201L487.852 628.873C457.959 645.193 430.462 660.244 426.75 662.321C420.21 665.98 420 666.028 420 663.854C420 661.825 436.334 539.17 437.447 532.835C437.865 530.462 437.204 529.724 431.4 526.085C427.817 523.838 424.573 522.001 424.192 522.003C423.812 522.005 418.863 556.318 413.195 598.253Z" fill="white"/>
<defs>
<linearGradient id="paint0_linear_575_3030" x1="417" y1="833" x2="417" y2="489.5" gradientUnits="userSpaceOnUse">
<stop stop-color="#002357" stop-opacity="0.81"/>
<stop offset="0.598161" stop-opacity="0"/>
</linearGradient>
</defs>
</svg>
