<svg width="358" height="38" viewBox="0 0 358 38" fill="none" xmlns="http://www.w3.org/2000/svg">
<path fill-rule="evenodd" clip-rule="evenodd" d="M217.006 36.559C227.343 38.0953 237.823 31.2047 240.416 21.1684C243.008 11.132 236.73 1.75056 226.394 0.214245C219.995 -0.736796 213.541 1.54147 208.938 5.79621C206.383 2.90145 202.749 0.861541 198.394 0.214257C191.738 -0.775035 185.022 1.72997 180.391 6.31911C177.823 3.14781 174.018 0.899854 169.405 0.214257C163.868 -0.608758 158.289 0.986619 153.904 4.18845C151.523 2.1515 148.49 0.733976 144.994 0.214257C134.657 -1.32205 124.177 5.56857 121.584 15.6049C118.992 25.6412 125.27 35.0227 135.606 36.559C141.143 37.382 146.722 35.7866 151.107 32.5848C153.489 34.6218 156.521 36.0393 160.018 36.559C166.674 37.5483 173.39 35.0433 178.02 30.4541C180.589 33.6254 184.393 35.8734 189.006 36.559C195.405 37.51 201.859 35.2318 206.463 30.977C209.017 33.8718 212.651 35.9117 217.006 36.559Z" fill="white"/>
<g filter="url(#filter0_i_351_2926)">
<path fill-rule="evenodd" clip-rule="evenodd" d="M213.006 37.559C223.343 39.0953 233.823 32.2047 236.416 22.1684C239.008 12.132 232.73 2.75056 222.394 1.21425C215.995 0.263204 209.541 2.54147 204.938 6.79621C202.383 3.90145 198.749 1.86154 194.394 1.21426C187.738 0.224965 181.022 2.72997 176.391 7.31911C173.823 4.14781 170.018 1.89985 165.405 1.21426C159.868 0.391242 154.289 1.98662 149.904 5.18845C147.523 3.1515 144.49 1.73398 140.994 1.21426C130.657 -0.322055 120.177 6.56857 117.584 16.6049C114.992 26.6412 121.27 36.0227 131.606 37.559C137.143 38.382 142.722 36.7866 147.107 33.5848C149.489 35.6218 152.521 37.0393 156.018 37.559C162.674 38.5483 169.39 36.0433 174.02 31.4541C176.589 34.6254 180.393 36.8734 185.006 37.559C191.405 38.51 197.859 36.2318 202.463 31.977C205.017 34.8718 208.651 36.9117 213.006 37.559Z" fill="#D0E3D5"/>
</g>
<path d="M133.441 18.2569C134.386 18.2569 135.143 18.2505 135.713 18.2376C136.284 18.2247 136.833 18.1973 137.362 18.1554C137.89 18.1103 138.422 18.0426 138.957 17.9523L139.131 19.3108C138.561 19.4075 137.989 19.48 137.415 19.5283C136.841 19.5734 136.234 19.6041 135.593 19.6202C134.951 19.6331 134.129 19.6379 133.127 19.6347H132.049V18.2569H133.127H133.441ZM138.082 14.9213H133.809V18.837H132.049V13.5242H138.082V14.9213ZM137.72 17.2369H133.262V15.893H137.72V17.2369ZM141.785 20.2148H140.035V12.828H141.785V20.2148ZM141.785 25.1215H133.446V20.7224H141.785V25.1215ZM135.167 23.7244H140.074V22.076H135.167V23.7244ZM148.062 21.9309H146.312V19.1851H148.062V21.9309ZM153.569 22.2307H151.819V12.828H153.569V22.2307ZM153.844 25.0442H144.567V23.6374H153.844V25.0442ZM146.312 24.0097H144.567V21.3267H146.312V24.0097ZM143.093 18.3439C144.704 18.331 146.135 18.3004 147.386 18.2521C148.636 18.2037 149.83 18.107 150.968 17.962L151.069 19.2141C150.234 19.3527 149.361 19.4606 148.449 19.538C147.54 19.6121 146.66 19.6621 145.81 19.6878C144.959 19.7104 144.084 19.7217 143.185 19.7217L142.977 18.3439H143.093ZM152.215 21.2348H149.44V20.0456H152.215V21.2348ZM147.028 13.2486C147.624 13.2486 148.159 13.3421 148.633 13.529C149.107 13.7159 149.476 13.9802 149.74 14.3218C150.004 14.6602 150.136 15.047 150.136 15.482C150.136 15.9203 150.004 16.3039 149.74 16.6326C149.476 16.9613 149.107 17.2175 148.633 17.4012C148.162 17.5849 147.627 17.6768 147.028 17.6768C146.415 17.6768 145.872 17.5866 145.399 17.4061C144.928 17.2224 144.561 16.9662 144.296 16.6374C144.032 16.3055 143.9 15.9203 143.9 15.482C143.9 15.047 144.032 14.6602 144.296 14.3218C144.561 13.9802 144.93 13.7159 145.403 13.529C145.877 13.3421 146.419 13.2486 147.028 13.2486ZM147.028 14.5249C146.731 14.5249 146.472 14.5619 146.249 14.636C146.027 14.7102 145.855 14.8198 145.732 14.9648C145.613 15.1066 145.553 15.279 145.553 15.482C145.553 15.6786 145.613 15.8462 145.732 15.9848C145.855 16.1234 146.027 16.2297 146.249 16.3039C146.472 16.378 146.731 16.4151 147.028 16.4151C147.311 16.4151 147.561 16.378 147.777 16.3039C147.996 16.2297 148.167 16.1234 148.29 15.9848C148.415 15.8462 148.478 15.6786 148.478 15.482C148.478 15.279 148.415 15.1066 148.29 14.9648C148.167 14.8198 147.996 14.7102 147.777 14.636C147.561 14.5619 147.311 14.5249 147.028 14.5249ZM168.852 23.7728H157.472V22.3757H168.852V23.7728ZM163.964 22.7528H162.234V19.5622H163.964V22.7528ZM163.689 14.4137C163.689 15.3032 163.478 16.1331 163.056 16.9033C162.637 17.6736 162.032 18.3278 161.243 18.866C160.456 19.401 159.536 19.7652 158.482 19.9586L157.738 18.5035C158.647 18.3649 159.435 18.0861 160.102 17.6671C160.772 17.2449 161.281 16.7502 161.629 16.183C161.978 15.6126 162.153 15.0228 162.156 14.4137V13.529H163.689V14.4137ZM164.018 14.4137C164.014 15.026 164.188 15.6158 164.54 16.183C164.894 16.7502 165.407 17.2433 166.077 17.6623C166.751 18.0813 167.547 18.3616 168.465 18.5035L167.721 19.9586C166.66 19.762 165.735 19.3978 164.946 18.866C164.156 18.331 163.549 17.6816 163.123 16.9178C162.701 16.1508 162.492 15.3161 162.495 14.4137V13.529H164.018V14.4137ZM179.857 25.2617H178.179V12.8087H179.857V25.2617ZM178.682 18.9289H176.565V17.5269H178.682V18.9289ZM174.534 14.3508C174.534 15.5723 174.394 16.6826 174.114 17.6816C173.833 18.6807 173.358 19.6024 172.688 20.4468C172.017 21.2912 171.115 22.0421 169.98 22.6996L168.975 21.491C169.926 20.9367 170.686 20.3244 171.257 19.654C171.83 18.9837 172.244 18.244 172.499 17.4351C172.754 16.6262 172.881 15.7109 172.881 14.6892V14.3508H174.534ZM173.384 15.7479H169.603V14.3508H173.384V15.7479ZM177.038 24.7058H175.419V13.1374H177.038V24.7058ZM187.019 24.145C186.351 24.145 185.767 24.0242 185.264 23.7825C184.764 23.5407 184.379 23.2104 184.108 22.7914C183.841 22.3692 183.707 21.8955 183.707 21.3702C183.707 20.9963 183.781 20.6595 183.93 20.3598C184.081 20.0601 184.289 19.7878 184.553 19.5428C184.817 19.2947 185.156 19.0304 185.568 18.75L187.468 17.4931C187.636 17.3867 187.773 17.2772 187.879 17.1644C187.985 17.0483 188.064 16.9291 188.116 16.8066C188.168 16.6809 188.193 16.5472 188.193 16.4054C188.193 16.27 188.156 16.1411 188.082 16.0186C188.008 15.893 187.9 15.793 187.758 15.7189C187.62 15.6416 187.459 15.6029 187.275 15.6029C187.085 15.6029 186.917 15.6448 186.772 15.7286C186.627 15.8124 186.513 15.9252 186.429 16.067C186.348 16.2088 186.308 16.3635 186.308 16.5311C186.308 16.7083 186.351 16.8888 186.439 17.0725C186.529 17.2562 186.642 17.4399 186.777 17.6236C186.915 17.8041 187.109 18.0426 187.357 18.3391L187.579 18.6098L192.273 24H190.151L186.245 19.6347C186.171 19.5509 186.087 19.4542 185.994 19.3446C185.7 19.0094 185.456 18.7049 185.259 18.4309C185.062 18.157 184.898 17.8573 184.766 17.5318C184.634 17.203 184.568 16.8598 184.568 16.5021C184.568 16.0251 184.68 15.5948 184.906 15.2113C185.132 14.8246 185.447 14.5216 185.854 14.3025C186.26 14.0801 186.727 13.9689 187.256 13.9689C187.768 13.9689 188.219 14.0737 188.609 14.2831C188.999 14.4926 189.299 14.7746 189.508 15.1291C189.718 15.4837 189.822 15.872 189.822 16.2942C189.822 16.6004 189.771 16.8888 189.668 17.1595C189.568 17.4302 189.42 17.6832 189.223 17.9185C189.03 18.1538 188.791 18.3729 188.508 18.576L186.492 20.0359C186.308 20.168 186.157 20.3034 186.037 20.442C185.918 20.5806 185.828 20.7208 185.767 20.8626C185.705 21.0012 185.675 21.1333 185.675 21.259C185.675 21.4975 185.733 21.7118 185.849 21.9019C185.968 22.0921 186.137 22.2419 186.356 22.3515C186.575 22.4611 186.828 22.5159 187.115 22.5159C187.583 22.5159 188.039 22.3741 188.483 22.0905C188.931 21.8036 189.296 21.4072 189.576 20.9012C189.856 20.392 189.997 19.8216 189.997 19.1899H191.679C191.679 19.7861 191.614 20.326 191.485 20.8094C191.36 21.2896 191.184 21.7053 190.959 22.0566C190.733 22.4047 190.459 22.7028 190.137 22.951C190.037 23.0154 189.947 23.0718 189.866 23.1202C189.773 23.1782 189.681 23.2362 189.59 23.2942C189.239 23.5778 188.838 23.7905 188.387 23.9323C187.939 24.0741 187.483 24.145 187.019 24.145ZM195.457 14.0994H199.334C200.075 14.0994 200.711 14.2316 201.243 14.4959C201.778 14.7569 202.184 15.1308 202.461 15.6174C202.739 16.1041 202.877 16.6729 202.877 17.3239C202.877 17.9781 202.737 18.5421 202.457 19.0159C202.179 19.4896 201.77 19.8522 201.229 20.1036C200.687 20.355 200.041 20.4807 199.29 20.4807H196.67V18.8177H198.957C199.363 18.8177 199.699 18.7613 199.967 18.6485C200.234 18.5357 200.434 18.3697 200.566 18.1506C200.699 17.9314 200.765 17.6558 200.765 17.3239C200.765 16.9919 200.699 16.7116 200.566 16.4827C200.434 16.2507 200.233 16.0767 199.962 15.9606C199.695 15.8446 199.358 15.7866 198.952 15.7866H197.511V24H195.457V14.0994ZM203.235 24H200.958L198.55 19.4993H200.774L203.235 24ZM212.117 24H210.338L205.987 17.7106H205.915V24H203.86V14.0994H205.668L209.985 20.384H210.072V14.0994H212.117V24ZM213.344 14.0994H217.221C217.962 14.0994 218.599 14.2316 219.131 14.4959C219.666 14.7569 220.072 15.1308 220.349 15.6174C220.626 16.1041 220.765 16.6729 220.765 17.3239C220.765 17.9781 220.624 18.5421 220.344 19.0159C220.067 19.4896 219.658 19.8522 219.116 20.1036C218.575 20.355 217.929 20.4807 217.178 20.4807H214.557V18.8177H216.844C217.25 18.8177 217.587 18.7613 217.854 18.6485C218.122 18.5357 218.322 18.3697 218.454 18.1506C218.586 17.9314 218.652 17.6558 218.652 17.3239C218.652 16.9919 218.586 16.7116 218.454 16.4827C218.322 16.2507 218.12 16.0767 217.85 15.9606C217.582 15.8446 217.245 15.7866 216.839 15.7866H215.399V24H213.344V14.0994ZM221.122 24H218.845L216.438 19.4993H218.662L221.122 24Z" fill="black"/>
<rect y="20" width="1" height="3.79518" transform="rotate(-90 0 20)" fill="#D0E3D5"/>
<rect x="6.3252" y="20" width="1" height="3.79518" transform="rotate(-90 6.3252 20)" fill="#D0E3D5"/>
<rect x="12.6509" y="20" width="1" height="3.79518" transform="rotate(-90 12.6509 20)" fill="#D0E3D5"/>
<rect x="18.9758" y="20" width="1" height="3.79518" transform="rotate(-90 18.9758 20)" fill="#D0E3D5"/>
<rect x="25.3013" y="20" width="1" height="3.79518" transform="rotate(-90 25.3013 20)" fill="#D0E3D5"/>
<rect x="31.6265" y="20" width="1" height="3.79518" transform="rotate(-90 31.6265 20)" fill="#D0E3D5"/>
<rect x="37.9519" y="20" width="1" height="3.79518" transform="rotate(-90 37.9519 20)" fill="#D0E3D5"/>
<rect x="44.2771" y="20" width="1" height="3.79518" transform="rotate(-90 44.2771 20)" fill="#D0E3D5"/>
<rect x="50.6023" y="20" width="1" height="3.79518" transform="rotate(-90 50.6023 20)" fill="#D0E3D5"/>
<rect x="56.9275" y="20" width="1" height="3.79518" transform="rotate(-90 56.9275 20)" fill="#D0E3D5"/>
<rect x="63.2532" y="20" width="1" height="3.79518" transform="rotate(-90 63.2532 20)" fill="#D0E3D5"/>
<rect x="69.5781" y="20" width="1" height="3.79518" transform="rotate(-90 69.5781 20)" fill="#D0E3D5"/>
<rect x="75.9036" y="20" width="1" height="3.79518" transform="rotate(-90 75.9036 20)" fill="#D0E3D5"/>
<rect x="82.2288" y="20" width="1" height="3.79518" transform="rotate(-90 82.2288 20)" fill="#D0E3D5"/>
<rect x="88.5544" y="20" width="1" height="3.79518" transform="rotate(-90 88.5544 20)" fill="#D0E3D5"/>
<rect x="94.8796" y="20" width="1" height="3.79518" transform="rotate(-90 94.8796 20)" fill="#D0E3D5"/>
<rect x="101.205" y="20" width="1" height="3.79518" transform="rotate(-90 101.205 20)" fill="#D0E3D5"/>
<rect x="253" y="20" width="1" height="3.79518" transform="rotate(-90 253 20)" fill="#D0E3D5"/>
<rect x="259.325" y="20" width="1" height="3.79518" transform="rotate(-90 259.325 20)" fill="#D0E3D5"/>
<rect x="265.651" y="20" width="1" height="3.79518" transform="rotate(-90 265.651 20)" fill="#D0E3D5"/>
<rect x="271.976" y="20" width="1" height="3.79518" transform="rotate(-90 271.976 20)" fill="#D0E3D5"/>
<rect x="278.301" y="20" width="1" height="3.79518" transform="rotate(-90 278.301 20)" fill="#D0E3D5"/>
<rect x="284.626" y="20" width="1" height="3.79518" transform="rotate(-90 284.626 20)" fill="#D0E3D5"/>
<rect x="290.952" y="20" width="1" height="3.79518" transform="rotate(-90 290.952 20)" fill="#D0E3D5"/>
<rect x="297.277" y="20" width="1" height="3.79518" transform="rotate(-90 297.277 20)" fill="#D0E3D5"/>
<rect x="303.602" y="20" width="1" height="3.79518" transform="rotate(-90 303.602 20)" fill="#D0E3D5"/>
<rect x="309.927" y="20" width="1" height="3.79518" transform="rotate(-90 309.927 20)" fill="#D0E3D5"/>
<rect x="316.253" y="20" width="1" height="3.79518" transform="rotate(-90 316.253 20)" fill="#D0E3D5"/>
<rect x="322.578" y="20" width="1" height="3.79518" transform="rotate(-90 322.578 20)" fill="#D0E3D5"/>
<rect x="328.904" y="20" width="1" height="3.79518" transform="rotate(-90 328.904 20)" fill="#D0E3D5"/>
<rect x="335.229" y="20" width="1" height="3.79518" transform="rotate(-90 335.229 20)" fill="#D0E3D5"/>
<rect x="341.554" y="20" width="1" height="3.79518" transform="rotate(-90 341.554 20)" fill="#D0E3D5"/>
<rect x="347.88" y="20" width="1" height="3.79518" transform="rotate(-90 347.88 20)" fill="#D0E3D5"/>
<rect x="354.205" y="20" width="1" height="3.79518" transform="rotate(-90 354.205 20)" fill="#D0E3D5"/>
<defs>
<filter id="filter0_i_351_2926" x="117" y="1" width="120" height="38.7732" filterUnits="userSpaceOnUse" color-interpolation-filters="sRGB">
<feFlood flood-opacity="0" result="BackgroundImageFix"/>
<feBlend mode="normal" in="SourceGraphic" in2="BackgroundImageFix" result="shape"/>
<feColorMatrix in="SourceAlpha" type="matrix" values="0 0 0 0 0 0 0 0 0 0 0 0 0 0 0 0 0 0 127 0" result="hardAlpha"/>
<feOffset dy="2"/>
<feGaussianBlur stdDeviation="1"/>
<feComposite in2="hardAlpha" operator="arithmetic" k2="-1" k3="1"/>
<feColorMatrix type="matrix" values="0 0 0 0 0 0 0 0 0 0 0 0 0 0 0 0 0 0 0.15 0"/>
<feBlend mode="normal" in2="shape" result="effect1_innerShadow_351_2926"/>
</filter>
</defs>
</svg>
