<svg width="358" height="40" viewBox="0 0 358 40" fill="none" xmlns="http://www.w3.org/2000/svg">
<path fill-rule="evenodd" clip-rule="evenodd" d="M217.006 36.559C227.343 38.0953 237.823 31.2047 240.416 21.1684C243.008 11.132 236.73 1.75056 226.394 0.214245C219.995 -0.736796 213.541 1.54147 208.938 5.79621C206.383 2.90145 202.749 0.861541 198.394 0.214257C191.738 -0.775035 185.022 1.72997 180.391 6.31911C177.823 3.14781 174.018 0.899854 169.405 0.214257C163.868 -0.608758 158.289 0.986619 153.904 4.18845C151.523 2.1515 148.49 0.733976 144.994 0.214257C134.657 -1.32205 124.177 5.56857 121.584 15.6049C118.992 25.6412 125.27 35.0227 135.606 36.559C141.143 37.382 146.722 35.7866 151.107 32.5848C153.489 34.6218 156.521 36.0393 160.018 36.559C166.674 37.5483 173.39 35.0433 178.02 30.4541C180.589 33.6254 184.393 35.8734 189.006 36.559C195.405 37.51 201.859 35.2318 206.463 30.977C209.017 33.8718 212.651 35.9117 217.006 36.559Z" fill="white"/>
<g filter="url(#filter0_i_351_2927)">
<path fill-rule="evenodd" clip-rule="evenodd" d="M213.006 39.559C223.343 41.0953 233.823 34.2047 236.416 24.1684C239.008 14.132 232.73 4.75056 222.394 3.21425C215.995 2.2632 209.541 4.54147 204.938 8.79621C202.383 5.90145 198.749 3.86154 194.394 3.21426C187.738 2.22496 181.022 4.72997 176.391 9.31911C173.823 6.14781 170.018 3.89985 165.405 3.21426C159.868 2.39124 154.289 3.98662 149.904 7.18845C147.523 5.1515 144.49 3.73398 140.994 3.21426C130.657 1.67795 120.177 8.56857 117.584 18.6049C114.992 28.6412 121.27 38.0227 131.606 39.559C137.143 40.382 142.722 38.7866 147.107 35.5848C149.489 37.6218 152.521 39.0393 156.018 39.559C162.674 40.5483 169.39 38.0433 174.02 33.4541C176.589 36.6254 180.393 38.8734 185.006 39.559C191.405 40.51 197.859 38.2318 202.463 33.977C205.017 36.8718 208.651 38.9117 213.006 39.559Z" fill="#D0E3D5"/>
</g>
<path d="M143.622 17.6319C143.618 18.6858 143.489 19.6768 143.235 20.605C142.983 21.5299 142.598 22.3501 142.079 23.0656C141.564 23.7811 140.927 24.3273 140.17 24.7044L139.102 23.288C139.778 22.9754 140.35 22.5242 140.818 21.9344C141.285 21.3414 141.631 20.6775 141.857 19.9427C142.086 19.2047 142.202 18.4344 142.205 17.6319V15.7707H143.622V17.6319ZM143.95 17.6319C143.947 18.4054 144.053 19.145 144.269 19.8508C144.488 20.5566 144.819 21.1931 145.26 21.7604C145.702 22.3244 146.245 22.7627 146.89 23.0753L145.836 24.4627C145.104 24.1017 144.492 23.5764 143.999 22.8867C143.506 22.1938 143.14 21.401 142.901 20.5083C142.666 19.6123 142.55 18.6535 142.553 17.6319V15.7707H143.95V17.6319ZM149.186 27.2617H147.441V14.8087H149.186V27.2617ZM151.023 21.0836H148.799V19.6091H151.023V21.0836ZM155.347 21.2673H153.582V18.9903H155.347V21.2673ZM159.761 21.2673H158.025V18.9903H159.761V21.2673ZM162.381 22.1084H151.03V20.7162H162.381V22.1084ZM156.681 22.7562C157.577 22.7562 158.349 22.8416 158.997 23.0124C159.648 23.1832 160.146 23.4378 160.49 23.7762C160.839 24.1114 161.014 24.5175 161.017 24.9945C161.014 25.4747 160.84 25.884 160.495 26.2224C160.15 26.5608 159.653 26.8154 159.002 26.9862C158.354 27.157 157.58 27.2424 156.681 27.2424C155.772 27.2424 154.992 27.157 154.341 26.9862C153.69 26.8154 153.191 26.5608 152.843 26.2224C152.498 25.884 152.325 25.4747 152.325 24.9945C152.325 24.5175 152.498 24.1114 152.843 23.7762C153.191 23.4378 153.69 23.1832 154.341 23.0124C154.992 22.8416 155.772 22.7562 156.681 22.7562ZM156.681 24.0711C156.101 24.0744 155.621 24.1098 155.24 24.1775C154.86 24.2419 154.575 24.3435 154.385 24.482C154.195 24.6174 154.101 24.7882 154.104 24.9945C154.101 25.204 154.195 25.3796 154.385 25.5214C154.578 25.66 154.865 25.7647 155.245 25.8356C155.629 25.9065 156.107 25.942 156.681 25.942C157.248 25.942 157.722 25.9065 158.102 25.8356C158.486 25.7647 158.774 25.66 158.968 25.5214C159.164 25.3796 159.264 25.204 159.267 24.9945C159.267 24.7882 159.169 24.6174 158.973 24.482C158.776 24.3435 158.487 24.2419 158.107 24.1775C157.727 24.1098 157.252 24.0744 156.681 24.0711ZM156.696 14.9924C157.611 14.9956 158.409 15.0923 159.089 15.2825C159.772 15.4726 160.297 15.7482 160.665 16.1091C161.035 16.4701 161.22 16.8987 161.22 17.395C161.22 17.8849 161.035 18.3055 160.665 18.6568C160.297 19.0081 159.773 19.2772 159.093 19.4641C158.413 19.651 157.614 19.7445 156.696 19.7445C155.774 19.7445 154.973 19.651 154.293 19.4641C153.613 19.2772 153.088 19.0081 152.717 18.6568C152.346 18.3055 152.163 17.8849 152.166 17.395C152.163 16.8987 152.346 16.4701 152.717 16.1091C153.088 15.7482 153.613 15.4726 154.293 15.2825C154.976 15.0923 155.777 14.9956 156.696 14.9924ZM156.696 16.3363C156.109 16.3363 155.613 16.3766 155.207 16.4572C154.801 16.5345 154.493 16.6522 154.283 16.8101C154.077 16.968 153.976 17.163 153.979 17.395C153.976 17.6238 154.077 17.8156 154.283 17.9703C154.493 18.1218 154.799 18.2362 155.202 18.3135C155.608 18.3909 156.106 18.4296 156.696 18.4296C157.282 18.4296 157.777 18.3909 158.18 18.3135C158.586 18.2362 158.894 18.1202 159.103 17.9655C159.316 17.8108 159.422 17.6206 159.422 17.395C159.422 17.163 159.316 16.968 159.103 16.8101C158.894 16.6522 158.586 16.5345 158.18 16.4572C157.774 16.3766 157.279 16.3363 156.696 16.3363ZM175.924 27.2617H174.159V14.8087H175.924V27.2617ZM172.196 16.1188C172.193 17.453 172.013 18.6648 171.655 19.7541C171.297 20.8402 170.693 21.8377 169.842 22.7465C168.995 23.6554 167.854 24.4482 166.42 25.125L165.511 23.7376C166.703 23.1703 167.662 22.5338 168.387 21.828C169.115 21.1222 169.644 20.3294 169.973 19.4496C170.301 18.5665 170.467 17.5562 170.471 16.4185V16.1188H172.196ZM171.273 17.4869H166.178V16.1188H171.273V17.4869ZM183.39 15.1471C183.387 15.8368 183.179 16.4669 182.766 17.0373C182.357 17.6045 181.767 18.0767 180.997 18.4537C180.227 18.8276 179.32 19.0725 178.275 19.1885L177.686 17.8833C178.585 17.7866 179.352 17.6013 179.987 17.3273C180.625 17.0502 181.103 16.7231 181.422 16.346C181.742 15.9689 181.903 15.5693 181.906 15.1471V14.8812H183.39V15.1471ZM183.704 15.1471C183.701 15.5661 183.861 15.9657 184.183 16.346C184.505 16.7231 184.984 17.0502 185.619 17.3273C186.253 17.6013 187.019 17.7866 187.915 17.8833L187.335 19.1885C186.278 19.0725 185.362 18.8276 184.589 18.4537C183.819 18.0767 183.227 17.6045 182.815 17.0373C182.405 16.4669 182.202 15.8368 182.206 15.1471V14.8812H183.704V15.1471ZM183.656 22.5097H181.906V20.7548H183.656V22.5097ZM188.48 21.0787H177.13V19.7106H188.48V21.0787ZM187.093 25.1105H180.161V26.2127H178.449V23.8826H185.372V23.2203H178.44V21.9006H187.093V25.1105ZM187.417 27.1747H178.449V25.8598H187.417V27.1747ZM197.789 16.4523C197.789 17.3547 197.578 18.1991 197.155 18.9855C196.733 19.7719 196.129 20.4438 195.343 21.0014C194.559 21.5589 193.647 21.9441 192.606 22.1568L191.857 20.7065C192.747 20.5486 193.525 20.2505 194.192 19.8122C194.859 19.3706 195.368 18.8566 195.72 18.27C196.074 17.6802 196.253 17.0744 196.256 16.4523V15.558H197.789V16.4523ZM198.117 16.4523C198.114 17.0808 198.288 17.6899 198.639 18.2797C198.994 18.8695 199.506 19.3835 200.177 19.8218C200.85 20.2569 201.64 20.5518 202.546 20.7065L201.777 22.1568C200.729 21.9505 199.816 21.5718 199.036 21.0207C198.259 20.4664 197.661 19.796 197.242 19.0097C196.823 18.2201 196.616 17.3676 196.619 16.4523V15.558H198.117V16.4523ZM202.952 25.7341H191.572V24.2983H202.952V25.7341ZM204.506 20.5083C205.508 20.5051 206.327 20.4857 206.961 20.4503C207.6 20.4116 208.243 20.3359 208.89 20.2231L209.06 21.6298C208.373 21.7523 207.698 21.8329 207.034 21.8715C206.37 21.9102 205.527 21.9296 204.506 21.9296H203.66V20.5083H204.506ZM208.581 17.0421H205.337V21.2866H203.66V15.645H208.581V17.0421ZM208.46 19.3964H204.839V18.0718H208.46V19.3964ZM213.918 22.413H212.265V14.828H213.918V22.413ZM212.724 19.2659H210.713V17.864H212.724V19.2659ZM211.182 22.326H209.557V15.0456H211.182V22.326ZM213.918 27.2617H212.182V24.3273H205.318V22.9302H213.918V27.2617Z" fill="black"/>
<rect y="22" width="1" height="3.79518" transform="rotate(-90 0 22)" fill="#D0E3D5"/>
<rect x="6.3252" y="22" width="1" height="3.79518" transform="rotate(-90 6.3252 22)" fill="#D0E3D5"/>
<rect x="12.6509" y="22" width="1" height="3.79518" transform="rotate(-90 12.6509 22)" fill="#D0E3D5"/>
<rect x="18.9758" y="22" width="1" height="3.79518" transform="rotate(-90 18.9758 22)" fill="#D0E3D5"/>
<rect x="25.3013" y="22" width="1" height="3.79518" transform="rotate(-90 25.3013 22)" fill="#D0E3D5"/>
<rect x="31.6265" y="22" width="1" height="3.79518" transform="rotate(-90 31.6265 22)" fill="#D0E3D5"/>
<rect x="37.9519" y="22" width="1" height="3.79518" transform="rotate(-90 37.9519 22)" fill="#D0E3D5"/>
<rect x="44.2771" y="22" width="1" height="3.79518" transform="rotate(-90 44.2771 22)" fill="#D0E3D5"/>
<rect x="50.6023" y="22" width="1" height="3.79518" transform="rotate(-90 50.6023 22)" fill="#D0E3D5"/>
<rect x="56.9275" y="22" width="1" height="3.79518" transform="rotate(-90 56.9275 22)" fill="#D0E3D5"/>
<rect x="63.2532" y="22" width="1" height="3.79518" transform="rotate(-90 63.2532 22)" fill="#D0E3D5"/>
<rect x="69.5781" y="22" width="1" height="3.79518" transform="rotate(-90 69.5781 22)" fill="#D0E3D5"/>
<rect x="75.9036" y="22" width="1" height="3.79518" transform="rotate(-90 75.9036 22)" fill="#D0E3D5"/>
<rect x="82.2288" y="22" width="1" height="3.79518" transform="rotate(-90 82.2288 22)" fill="#D0E3D5"/>
<rect x="88.5544" y="22" width="1" height="3.79518" transform="rotate(-90 88.5544 22)" fill="#D0E3D5"/>
<rect x="94.8796" y="22" width="1" height="3.79518" transform="rotate(-90 94.8796 22)" fill="#D0E3D5"/>
<rect x="101.205" y="22" width="1" height="3.79518" transform="rotate(-90 101.205 22)" fill="#D0E3D5"/>
<rect x="253" y="22" width="1" height="3.79518" transform="rotate(-90 253 22)" fill="#D0E3D5"/>
<rect x="259.325" y="22" width="1" height="3.79518" transform="rotate(-90 259.325 22)" fill="#D0E3D5"/>
<rect x="265.651" y="22" width="1" height="3.79518" transform="rotate(-90 265.651 22)" fill="#D0E3D5"/>
<rect x="271.976" y="22" width="1" height="3.79518" transform="rotate(-90 271.976 22)" fill="#D0E3D5"/>
<rect x="278.301" y="22" width="1" height="3.79518" transform="rotate(-90 278.301 22)" fill="#D0E3D5"/>
<rect x="284.626" y="22" width="1" height="3.79518" transform="rotate(-90 284.626 22)" fill="#D0E3D5"/>
<rect x="290.952" y="22" width="1" height="3.79518" transform="rotate(-90 290.952 22)" fill="#D0E3D5"/>
<rect x="297.277" y="22" width="1" height="3.79518" transform="rotate(-90 297.277 22)" fill="#D0E3D5"/>
<rect x="303.602" y="22" width="1" height="3.79518" transform="rotate(-90 303.602 22)" fill="#D0E3D5"/>
<rect x="309.927" y="22" width="1" height="3.79518" transform="rotate(-90 309.927 22)" fill="#D0E3D5"/>
<rect x="316.253" y="22" width="1" height="3.79518" transform="rotate(-90 316.253 22)" fill="#D0E3D5"/>
<rect x="322.578" y="22" width="1" height="3.79518" transform="rotate(-90 322.578 22)" fill="#D0E3D5"/>
<rect x="328.904" y="22" width="1" height="3.79518" transform="rotate(-90 328.904 22)" fill="#D0E3D5"/>
<rect x="335.229" y="22" width="1" height="3.79518" transform="rotate(-90 335.229 22)" fill="#D0E3D5"/>
<rect x="341.554" y="22" width="1" height="3.79518" transform="rotate(-90 341.554 22)" fill="#D0E3D5"/>
<rect x="347.88" y="22" width="1" height="3.79518" transform="rotate(-90 347.88 22)" fill="#D0E3D5"/>
<rect x="354.205" y="22" width="1" height="3.79518" transform="rotate(-90 354.205 22)" fill="#D0E3D5"/>
<defs>
<filter id="filter0_i_351_2927" x="117" y="3" width="120" height="38.7732" filterUnits="userSpaceOnUse" color-interpolation-filters="sRGB">
<feFlood flood-opacity="0" result="BackgroundImageFix"/>
<feBlend mode="normal" in="SourceGraphic" in2="BackgroundImageFix" result="shape"/>
<feColorMatrix in="SourceAlpha" type="matrix" values="0 0 0 0 0 0 0 0 0 0 0 0 0 0 0 0 0 0 127 0" result="hardAlpha"/>
<feOffset dy="2"/>
<feGaussianBlur stdDeviation="1"/>
<feComposite in2="hardAlpha" operator="arithmetic" k2="-1" k3="1"/>
<feColorMatrix type="matrix" values="0 0 0 0 0 0 0 0 0 0 0 0 0 0 0 0 0 0 0.15 0"/>
<feBlend mode="normal" in2="shape" result="effect1_innerShadow_351_2927"/>
</filter>
</defs>
</svg>
