<svg width="100" height="99" viewBox="0 0 100 99" fill="none" xmlns="http://www.w3.org/2000/svg">
<path fill-rule="evenodd" clip-rule="evenodd" d="M49.7846 89.991C72.113 89.991 90.2137 71.8903 90.2137 49.5619C90.2137 27.2335 72.113 9.13275 49.7846 9.13275C27.4562 9.13275 9.35547 27.2335 9.35547 49.5619C9.35547 71.8903 27.4562 89.991 49.7846 89.991ZM49.7846 20.0475L77.517 40.986L66.3795 72.6165H32.5215L22.8319 40.7633L49.7846 20.0475Z" fill="#85C441"/>
<path fill-rule="evenodd" clip-rule="evenodd" d="M43.3429 0.205746C41.1225 0.388846 37.0885 1.19854 34.6075 1.95923C29.9228 3.3953 26.4878 5.82172 25.2088 8.59785C24.4617 10.2188 24.2995 12.2273 24.7976 13.689C25.4288 15.5414 25.135 15.9417 23.9317 14.8685C23.2149 14.2294 21.3997 13.5465 20.039 13.4044C16.7273 13.0582 12.9762 15.3951 9.739 19.8213C8.46464 21.5639 6.75504 24.2933 6.1329 25.5788C5.5288 26.8266 3.39552 32.0661 3.09481 33.0409C2.94356 33.5309 2.73462 34.1825 2.63082 34.4888C1.7338 37.1326 0.734325 41.3481 0.307313 44.2898C-0.103438 47.1207 -0.102324 52.3052 0.309986 54.2645C1.40725 59.4807 4.24843 62.316 8.49048 62.4285C9.20507 62.4475 9.77441 62.5588 9.75615 62.6762C9.73766 62.7934 9.43717 63.1001 9.08812 63.3576C7.09117 64.8309 5.76959 67.3816 5.78563 69.7318C5.80389 72.4503 7.12413 75.6764 9.59421 79.0388C11.233 81.2694 15.0019 85.1105 17.3606 86.9535C18.2795 87.6715 19.0814 88.321 19.1426 88.3965C19.3593 88.6643 23.5154 91.4823 25.6024 92.7764C28.1192 94.3373 29.3887 94.967 32.5072 96.2019C36.2534 97.6856 37.8182 98.0336 40.8607 98.0603C43.816 98.0864 44.9228 97.8066 46.7291 96.5763C47.7843 95.8577 49.2916 93.7193 49.6972 92.3652C49.9552 91.5041 50.3276 91.2116 50.3276 91.8701C50.3276 92.0665 50.6936 92.9237 51.1409 93.7748C52.468 96.3006 54.387 97.6172 57.3661 98.0465C63.6697 98.9546 73.8153 94.4366 83.4105 86.4483C92.169 79.1566 96.1306 71.4762 93.6904 66.5178C93.1213 65.3613 91.6903 63.7038 90.7011 63.0553C90.4253 62.8747 90.1999 62.6524 90.1999 62.5615C90.1999 62.4706 90.984 62.3425 91.9425 62.2768C94.9759 62.0688 97.1809 60.518 98.6096 57.5879C99.636 55.4827 100.001 53.3243 100 49.3667C99.9989 45.5639 99.6694 43.0653 98.6394 39.0551C95.8303 28.1166 91.1468 19.36 86.0739 15.5624C82.6117 12.9704 79.4943 12.6918 76.1987 14.6794C75.4033 15.1592 74.7045 15.5038 74.6459 15.4452C74.5876 15.3866 74.7183 14.678 74.9371 13.8703C75.6525 11.2268 74.999 8.48759 73.1693 6.46235C70.3729 3.36701 63.814 0.950176 56.1512 0.191044C53.5154 -0.0700191 46.5928 -0.0620001 43.3429 0.205746ZM41.7834 6.2895C48.9296 7.56853 50.2051 7.5888 56.4804 6.5245C65.6279 4.97282 69.9156 5.32187 72.5665 7.83382C74.0723 9.26076 74.6951 11.4061 74.3655 14.0312C74.1476 15.7651 73.8262 16.54 73.4268 16.2934C73.2798 16.2025 72.6082 15.7635 71.9344 15.3176C70.1058 14.1074 66.6478 12.3568 64.3128 11.4593C59.6978 9.68487 55.2301 8.86337 50.145 8.85357C45.052 8.84399 41.265 9.44475 36.5171 11.0158C34.3319 11.7389 29.9355 13.9151 27.8299 15.316C25.8739 16.6171 25.7881 16.5817 25.3919 14.3058C24.9257 11.6293 25.757 9.02799 27.5512 7.54781C28.5066 6.75994 30.3264 6.01239 31.9507 5.74108C33.7862 5.43436 38.4622 5.6952 41.7834 6.2895ZM23.5976 15.2068C24.8684 15.8517 25.6024 16.3925 25.6024 16.6843C25.6024 16.7775 25.0762 17.2691 24.4329 17.7767C18.1846 22.7088 13.1861 30.2133 10.9274 38.0528C9.70737 42.2879 9.48818 43.9625 9.46969 49.1903C9.45232 54.1948 9.68598 56.2477 10.6823 59.8433C11.355 62.271 11.3929 62.1989 9.54142 62.0267C4.57921 61.5656 2.00779 58.3582 2.67938 53.4675C3.04469 50.8063 3.80583 48.8314 6.64522 43.176C9.69088 37.1103 10.056 36.1017 10.6779 32.0385C11.9569 23.6825 12.3487 21.9874 13.6062 19.3725C14.6776 17.1443 15.9595 15.6789 17.472 14.9531C18.4392 14.4889 18.835 14.4297 20.4791 14.5018C22.0038 14.5689 22.6111 14.7061 23.5976 15.2068ZM82.4143 15.0035C84.3326 15.9756 85.7137 17.7596 86.8667 20.7547C87.577 22.6004 88.2221 25.638 89.097 31.2589C89.7497 35.4515 90.3765 37.35 92.3697 41.1713C94.8124 45.8541 95.02 46.2678 95.6673 47.7424C98.5617 54.3345 97.9701 58.916 93.9603 60.9602C92.5102 61.6997 90.2919 62.1508 89.1652 61.9354C88.6012 61.8276 88.4769 61.2725 88.8576 60.5614C88.977 60.3385 89.3456 58.8665 89.6769 57.2904C90.2273 54.671 90.2794 53.9943 90.2836 49.413C90.2879 44.8246 90.2382 44.1659 89.6962 41.6168C88.2573 34.8483 85.7395 29.3851 81.6532 24.1643C80.2222 22.3362 76.8772 18.9805 75.0925 17.5827L74.13 16.8287L74.2579 17.584C74.3283 17.9995 74.5891 19.9933 74.8375 22.0148C75.0858 24.0362 75.4349 26.7426 75.6133 28.029C75.7917 29.3154 76.237 32.6232 76.6026 35.3798C77.1989 39.8758 77.3394 40.5293 77.9682 41.7281C78.7425 43.2036 84.8076 55.3297 86.2686 58.323C86.7769 59.3644 87.2487 60.2665 87.3168 60.3278C87.5115 60.5026 88.0421 61.8926 87.9468 61.9781C87.8995 62.0202 86.9589 62.4815 85.8563 63.0028C84.7536 63.5242 82.5985 64.5516 81.0671 65.286C79.5357 66.0204 77.2552 67.1096 75.9996 67.7066C74.7439 68.3038 72.6389 69.305 71.3218 69.9316C70.0047 70.5582 68.4261 71.2991 67.8135 71.5778C67.1042 71.9005 66.6495 72.1754 65.937 72.8454C65.4477 73.3056 64.8368 73.9521 63.9383 74.9286C63.1545 75.7802 61.6509 77.3802 60.5971 78.4841C58.5888 80.5873 54.0255 85.4428 51.6494 88.0045C50.8825 88.8313 50.1706 89.508 50.0675 89.508C49.9643 89.508 47.9081 87.5783 45.4982 85.2201C43.0882 82.8616 40.4473 80.2806 39.6294 79.4843C38.8117 78.6879 36.9918 76.9088 35.5856 75.5305C34.1794 74.1521 32.9199 73.0245 32.7867 73.0245C32.6329 72.9506 32.6329 72.9506 32.4704 72.8454C32.4297 72.747 31.3437 72.1308 30.0574 71.4764C28.771 70.8217 27.1171 69.963 26.382 69.5679C25.6469 69.1727 22.74 67.6725 19.9222 66.234C12.9519 62.6753 11.7919 62.0467 11.7919 61.8282C11.7919 61.7249 12.0785 61.1194 12.4289 60.4828C12.7791 59.8462 13.5935 58.323 14.2383 57.0979C14.8834 55.8728 15.5864 54.5697 15.8007 54.2021C16.0152 53.8346 16.5899 52.7821 17.0779 51.8633C17.566 50.9444 19.1306 48.0375 20.5546 45.4035C22.4139 41.9643 23.1757 40.3319 23.2575 39.612C23.3201 39.0607 23.427 38.1085 23.4951 37.4959C23.5633 36.8833 23.7105 35.6805 23.8221 34.8229C24.0329 33.2042 24.2975 31.041 25.3556 22.289C25.7002 19.4382 26.0392 17.0485 26.1091 16.9788C26.1791 16.9089 28.4242 17.1579 31.0983 17.5324C33.7724 17.9068 36.712 18.3173 37.6309 18.4445C38.5497 18.5715 41.5067 18.984 44.202 19.3611C46.8973 19.738 49.4032 20.0419 49.7707 20.0363C50.4457 20.0258 55.3219 19.3493 62.1118 18.3242C67.6092 17.4943 70.0544 17.1356 72.142 16.853C73.5874 16.6574 74.2465 16.4462 75.0016 15.9366C77.3964 14.3203 80.3361 13.9503 82.4143 15.0035ZM33.9666 42.2505C34.0829 42.3541 35.9825 43.6736 38.1877 45.1832C40.393 46.6926 42.3173 48.0734 42.4641 48.2516C42.6583 48.4873 42.7007 49.6126 42.6198 52.3912C42.5588 54.4897 42.5891 56.3071 42.6871 56.4296C42.7853 56.5522 44.3189 57.751 46.0954 59.094C47.8718 60.4367 49.4578 61.6647 49.6195 61.8226C50.0202 62.2134 50.3855 62.1833 50.8981 61.7171C51.1358 61.5012 52.7333 60.2788 54.4485 59.0008C56.1637 57.7227 57.643 56.5713 57.7356 56.4419C57.8283 56.3127 57.8924 56.0064 57.878 55.7614C57.8637 55.5164 57.8628 53.7108 57.8764 51.749C57.8996 48.4124 57.9301 48.1681 58.3482 47.9622C58.5941 47.8413 60.5928 46.5395 62.79 45.0694L66.7846 42.3964L62.3292 42.2059C59.8787 42.101 57.8225 42.0667 57.7597 42.1295C57.6969 42.1924 57.587 45.4605 57.5158 49.3923L57.3861 56.541H50.1815H42.9769V49.3016V42.0623H38.3659C35.8299 42.0623 33.8504 42.1469 33.9666 42.2505ZM11.9883 63.9089C14.5453 70.6921 20.155 77.9858 26.0641 82.2096C32.4542 86.7776 39.4632 89.2396 47.8435 89.8602L49.9256 90.0143L49.8042 90.6213C49.5551 91.8665 48.4706 93.7494 47.4555 94.699C46.4041 95.6824 44.365 96.636 43.3137 96.636C41.2606 96.636 38.1334 95.3073 35.7887 93.4389C34.9726 92.7887 32.4907 90.4792 30.2732 88.3067C27.9388 86.0198 25.5912 83.9364 24.6971 83.3579C23.8478 82.8084 21.2231 81.3997 18.8644 80.2271C13.1219 77.3728 10.1947 75.369 8.36663 73.0403C6.14448 70.2103 6.71606 66.166 9.71984 63.4643C10.417 62.8373 11.0913 62.3588 11.2181 62.4011C11.345 62.4435 11.6916 63.1219 11.9883 63.9089ZM90.3444 63.3534C91.7881 64.5868 92.6553 66.0005 93.003 67.6883C93.5311 70.2513 92.7702 72.1774 90.2658 74.6156C88.3602 76.4711 86.5047 77.635 81.2375 80.2784C78.6323 81.5859 75.9499 83.0198 75.2765 83.4646C74.6029 83.9094 72.0402 86.2376 69.5815 88.6384C67.0461 91.1138 64.3938 93.4855 63.455 94.117C58.8086 97.2417 55.2092 97.3419 52.4785 94.4226C51.4877 93.3634 50.3276 91.2036 50.3276 90.4184C50.3276 89.9019 50.9121 89.7381 52.7779 89.7323C55.9492 89.7225 61.4685 88.423 65.5827 86.7179C71.2171 84.3823 76.9543 80.1519 80.9943 75.3529C83.557 72.3091 86.4031 67.4883 87.6621 64.0588C88.4284 61.9719 88.6569 61.9117 90.3444 63.3534Z" fill="#286F37"/>
</svg>
