<svg width="13" height="25" viewBox="0 0 13 25" fill="none" xmlns="http://www.w3.org/2000/svg">
<path d="M11.1674 24.0041C11.0358 24.0049 10.9053 23.9796 10.7835 23.9299C10.6616 23.8801 10.5508 23.8068 10.4574 23.7141L0.87736 14.1241C0.315558 13.5616 0 12.7991 0 12.0041C0 11.2091 0.315558 10.4466 0.87736 9.88409L10.4574 0.294092C10.6457 0.105788 10.9011 0 11.1674 0C11.4337 0 11.6891 0.105788 11.8774 0.294092C12.0657 0.482395 12.1715 0.73779 12.1715 1.00409C12.1715 1.27039 12.0657 1.52579 11.8774 1.71409L2.28736 11.2941C2.19363 11.3871 2.11924 11.4977 2.06847 11.6195C2.0177 11.7414 1.99156 11.8721 1.99156 12.0041C1.99156 12.1361 2.0177 12.2668 2.06847 12.3887C2.11924 12.5105 2.19363 12.6211 2.28736 12.7141L11.8774 22.2941C11.9711 22.3871 12.0455 22.4977 12.0963 22.6195C12.147 22.7414 12.1732 22.8721 12.1732 23.0041C12.1732 23.1361 12.147 23.2668 12.0963 23.3887C12.0455 23.5105 11.9711 23.6211 11.8774 23.7141C11.7839 23.8068 11.6731 23.8801 11.5513 23.9299C11.4294 23.9796 11.299 24.0049 11.1674 24.0041Z" fill="#374957"/>
</svg>
