<svg width="138" height="142" viewBox="0 0 138 142" fill="none" xmlns="http://www.w3.org/2000/svg">
<mask id="path-1-inside-1_277_9691" fill="white">
<path fill-rule="evenodd" clip-rule="evenodd" d="M9.31674 37.6941C9.49332 37.4998 9.70264 37.3213 9.94637 37.1642L66.8579 0.478476C67.8476 -0.159493 69.119 -0.159492 70.1087 0.478477L125.222 36.005C132.505 39.3013 137.573 46.6322 137.573 55.1468V120.804C137.573 132.402 128.171 141.804 116.573 141.804H21C9.40199 141.804 -1.52588e-05 132.402 -1.52588e-05 120.804V55.1467C-1.52588e-05 47.8729 3.6981 41.4628 9.31674 37.6941Z"/>
</mask>
<path fill-rule="evenodd" clip-rule="evenodd" d="M9.31674 37.6941C9.49332 37.4998 9.70264 37.3213 9.94637 37.1642L66.8579 0.478476C67.8476 -0.159493 69.119 -0.159492 70.1087 0.478477L125.222 36.005C132.505 39.3013 137.573 46.6322 137.573 55.1468V120.804C137.573 132.402 128.171 141.804 116.573 141.804H21C9.40199 141.804 -1.52588e-05 132.402 -1.52588e-05 120.804V55.1467C-1.52588e-05 47.8729 3.6981 41.4628 9.31674 37.6941Z" fill="#696969" fill-opacity="0.3"/>
<path d="M9.31674 37.6941L9.48386 37.9433L9.51419 37.9229L9.53876 37.8959L9.31674 37.6941ZM9.94637 37.1642L9.78383 36.9121L9.78383 36.9121L9.94637 37.1642ZM66.8579 0.478476L66.6954 0.226324L66.6954 0.226324L66.8579 0.478476ZM70.1087 0.478477L69.9462 0.730629L69.9462 0.73063L70.1087 0.478477ZM125.222 36.005L125.059 36.2572L125.078 36.2692L125.098 36.2783L125.222 36.005ZM9.53876 37.8959C9.69735 37.7214 9.88656 37.5597 10.1089 37.4164L9.78383 36.9121C9.51873 37.083 9.28929 37.2783 9.09473 37.4924L9.53876 37.8959ZM10.1089 37.4164L67.0205 0.730629L66.6954 0.226324L9.78383 36.9121L10.1089 37.4164ZM67.0205 0.730629C67.9112 0.156456 69.0555 0.156458 69.9462 0.730629L70.2713 0.226325C69.1826 -0.475441 67.7841 -0.475442 66.6954 0.226324L67.0205 0.730629ZM69.9462 0.73063L125.059 36.2572L125.385 35.7529L70.2713 0.226325L69.9462 0.73063ZM125.098 36.2783C132.278 39.5278 137.273 46.7543 137.273 55.1468H137.873C137.873 46.5102 132.732 39.0747 125.346 35.7317L125.098 36.2783ZM137.273 55.1468V120.804H137.873V55.1468H137.273ZM137.273 120.804C137.273 132.236 128.005 141.504 116.573 141.504V142.104C128.336 142.104 137.873 132.567 137.873 120.804H137.273ZM116.573 141.504H21V142.104H116.573V141.504ZM21 141.504C9.56768 141.504 0.299985 132.236 0.299985 120.804H-0.300015C-0.300015 132.567 9.23631 142.104 21 142.104V141.504ZM0.299985 120.804V55.1467H-0.300015V120.804H0.299985ZM0.299985 55.1467C0.299985 47.9771 3.94473 41.6587 9.48386 37.9433L9.14963 37.445C3.45148 41.267 -0.300015 47.7687 -0.300015 55.1467H0.299985Z" fill="white" mask="url(#path-1-inside-1_277_9691)"/>
</svg>
