<svg width="230" height="14" viewBox="0 0 230 14" fill="none" xmlns="http://www.w3.org/2000/svg">
<g filter="url(#filter0_i_154_5908)">
<path d="M0.689 2.104L4.481 13.08H6.865L9.169 5.32L11.649 13.08H14.033L17.585 2.104H15.249L12.817 10.392L10.369 2.104H7.937L5.569 10.392L3.041 2.104H0.689ZM23.1759 7.848L23.7999 9.64H32.0239V7.896C32.0239 5.176 30.2479 4.12 27.0159 4.12H25.7199C22.4879 4.12 20.3919 5.592 20.3919 8.312V9.048C20.3919 11.768 22.4879 13.24 25.7199 13.24H26.6799C28.7439 13.24 30.5839 13 32.0559 12.584L31.4799 10.792C30.0719 11.224 28.4719 11.448 26.6799 11.448H25.6719C23.6559 11.448 22.5999 10.568 22.5999 9.048V8.312C22.5999 6.792 23.6559 5.928 25.6719 5.928H27.1279C29.2079 5.928 29.8319 6.328 29.8319 7.848H23.1759ZM38.1748 13V11.72C39.2788 12.584 40.5908 13.08 42.0628 13.08H42.4628C45.6948 13.08 47.7908 11.608 47.7908 8.888V8.312C47.7908 5.592 45.6948 4.12 42.4628 4.12H42.0628C40.2708 4.12 38.9427 4.712 38.1748 5.624V1.272H35.9988V13H38.1748ZM45.5988 8.872C45.5988 10.392 44.3988 11.272 42.5108 11.272H42.0628C40.3188 11.272 39.3748 10.856 38.1748 9.672V7.768C39.0228 6.68 40.4308 5.928 42.0628 5.928H42.5108C44.3988 5.928 45.5988 6.808 45.5988 8.328V8.872ZM62.6756 10.424C62.6756 8.712 61.5396 8.024 59.4756 7.896C58.5636 7.848 56.5636 7.752 55.5396 7.688C53.9716 7.592 53.7476 7.256 53.7476 6.808C53.7476 6.328 54.4836 5.928 56.7076 5.928H57.0756C58.6436 5.928 60.3876 6.232 61.8276 6.712L62.4036 4.936C60.8516 4.44 58.9156 4.12 57.0916 4.12H56.7076C53.4276 4.104 51.5396 5.08 51.5396 6.856C51.5396 8.376 52.6276 9.24 55.1556 9.4C56.3076 9.48 58.0036 9.528 59.1076 9.592C60.1796 9.64 60.4516 9.96 60.4516 10.44C60.4516 10.984 59.8756 11.272 57.6516 11.272H57.2836C55.5556 11.272 53.3316 10.888 51.8916 10.408L51.3156 12.184C52.8676 12.68 55.2836 13.096 57.2676 13.08H57.6516C61.1076 13.096 62.6756 12.2 62.6756 10.424ZM66.7346 3.208H69.2146V0.808H66.7346V3.208ZM66.9426 6.44V13H69.1346V4.696H65.7746V6.44H66.9426ZM75.0935 10.472C75.0935 12.2 76.0535 13.048 78.0375 13.048C79.4615 13.048 80.3095 12.92 81.4615 12.664L81.9415 10.792C80.7895 11.112 79.8295 11.288 78.6935 11.288C77.6215 11.288 77.2855 10.984 77.2855 10.2V6.504H81.5255V4.68H77.2855V2.104H75.0935V4.68H72.9175V6.504H75.0935V10.472ZM87.629 7.848L88.253 9.64H96.477V7.896C96.477 5.176 94.701 4.12 91.469 4.12H90.173C86.941 4.12 84.845 5.592 84.845 8.312V9.048C84.845 11.768 86.941 13.24 90.173 13.24H91.133C93.197 13.24 95.037 13 96.509 12.584L95.933 10.792C94.525 11.224 92.925 11.448 91.133 11.448H90.125C88.109 11.448 87.053 10.568 87.053 9.048V8.312C87.053 6.792 88.109 5.928 90.125 5.928H91.581C93.661 5.928 94.285 6.328 94.285 7.848H87.629ZM118.216 13L118.856 11.176H109.128V8.312H117.848L118.472 6.488H109.128V3.928H118.216L118.84 2.104H106.936V13H118.216ZM121.724 4.2L126.348 8.536L121.58 13H124.396L127.756 9.864L131.132 13H133.948L129.164 8.536L133.804 4.2H130.988L127.756 7.224L124.54 4.2H121.724ZM139.519 7.848C140.527 6.648 141.775 5.928 143.407 5.928H143.855C145.743 5.928 146.783 6.808 146.783 8.328V13H148.975V8.312C148.975 5.592 147.039 4.12 143.807 4.12H143.407C141.615 4.12 140.286 4.712 139.519 5.624V1.272H137.343V13H139.519V7.848ZM153.407 3.208H155.887V0.808H153.407V3.208ZM153.615 6.44V13H155.807V4.696H152.447V6.44H153.615ZM162.565 13V11.72C163.669 12.584 164.981 13.08 166.453 13.08H166.853C170.085 13.08 172.181 11.608 172.181 8.888V8.312C172.181 5.592 170.085 4.12 166.853 4.12H166.453C164.661 4.12 163.333 4.712 162.565 5.624V1.272H160.389V13H162.565ZM169.989 8.872C169.989 10.392 168.789 11.272 166.901 11.272H166.453C164.709 11.272 163.765 10.856 162.565 9.672V7.768C163.413 6.68 164.821 5.928 166.453 5.928H166.901C168.789 5.928 169.989 6.808 169.989 8.328V8.872ZM176.25 3.208H178.73V0.808H176.25V3.208ZM176.458 6.44V13H178.65V4.696H175.29V6.44H176.458ZM184.609 10.472C184.609 12.2 185.569 13.048 187.553 13.048C188.977 13.048 189.825 12.92 190.977 12.664L191.457 10.792C190.305 11.112 189.345 11.288 188.209 11.288C187.137 11.288 186.801 10.984 186.801 10.2V6.504H191.041V4.68H186.801V2.104H184.609V4.68H182.433V6.504H184.609V10.472ZM194.985 3.208H197.465V0.808H194.985V3.208ZM195.193 6.44V13H197.385V4.696H194.025V6.44H195.193ZM207.92 13.08C211.152 13.08 213.632 11.48 213.632 8.76V8.392C213.632 5.672 211.152 4.072 207.92 4.072H207.136C203.904 4.072 201.408 5.672 201.408 8.392V8.76C201.408 11.48 203.904 13.08 207.136 13.08H207.92ZM207.088 11.256C205.2 11.256 203.616 10.28 203.616 8.76V8.392C203.616 6.872 205.2 5.896 207.088 5.896H207.968C209.84 5.896 211.424 6.872 211.424 8.392V8.76C211.424 10.28 209.84 11.256 207.968 11.256H207.088ZM217.655 4.2V13H219.831V7.848C220.839 6.648 222.087 5.928 223.719 5.928H224.167C226.055 5.928 227.095 6.808 227.095 8.328V13H229.287V8.312C229.287 5.592 227.351 4.12 224.119 4.12H223.719C221.927 4.12 220.599 4.712 219.831 5.624V4.2H217.655Z" fill="#747474"/>
</g>
<defs>
<filter id="filter0_i_154_5908" x="0.688995" y="0.807983" width="228.598" height="14.432" filterUnits="userSpaceOnUse" color-interpolation-filters="sRGB">
<feFlood flood-opacity="0" result="BackgroundImageFix"/>
<feBlend mode="normal" in="SourceGraphic" in2="BackgroundImageFix" result="shape"/>
<feColorMatrix in="SourceAlpha" type="matrix" values="0 0 0 0 0 0 0 0 0 0 0 0 0 0 0 0 0 0 127 0" result="hardAlpha"/>
<feOffset dy="2"/>
<feGaussianBlur stdDeviation="1"/>
<feComposite in2="hardAlpha" operator="arithmetic" k2="-1" k3="1"/>
<feColorMatrix type="matrix" values="0 0 0 0 0 0 0 0 0 0 0 0 0 0 0 0 0 0 0.25 0"/>
<feBlend mode="normal" in2="shape" result="effect1_innerShadow_154_5908"/>
</filter>
</defs>
</svg>
