<svg width="217" height="11" viewBox="0 0 217 11" fill="none" xmlns="http://www.w3.org/2000/svg">
<path d="M8.78492 7.312V0.256H7.16492V2.692H5.84492V3.94H7.16492V7.312H8.78492ZM5.29292 5.776V0.987999H0.276922V5.776H5.29292ZM3.72092 4.54H1.86092V2.212H3.72092V4.54ZM9.22892 9.7C7.42892 9.52 5.86892 8.428 5.86892 6.976V6.676H4.24892V6.976C4.24892 8.404 2.60492 9.544 0.828922 9.7L1.48892 10.996C3.03692 10.816 4.57292 9.868 5.02892 8.932C5.48492 9.832 6.96092 10.816 8.48492 10.996L9.22892 9.7ZM20.8717 8.728C20.8717 7.432 19.4197 6.568 17.0437 6.568C14.7037 6.568 13.2637 7.432 13.2637 8.728C13.2637 10.06 14.7037 10.888 17.0437 10.888C19.4197 10.888 20.8717 10.06 20.8717 8.728ZM20.9077 6.64V0.256H19.4197V2.824H18.7357V0.447999H17.2717V6.232H18.7357V4.072H19.4197V6.64H20.9077ZM16.6597 2.236V0.999999H11.9917V2.236H13.5997C13.5877 3.604 13.0717 4.672 11.6077 5.38L12.4357 6.556C13.3357 6.22 14.1637 5.188 14.3917 4.54C14.6677 5.188 15.6277 5.992 16.2397 6.184L17.0197 4.996C15.8077 4.528 15.1717 3.604 15.1357 2.236H16.6597ZM19.2397 8.728C19.2397 9.304 18.3877 9.652 17.0437 9.652C15.7477 9.652 14.9077 9.304 14.9077 8.728C14.9077 8.188 15.7477 7.816 17.0437 7.816C18.3877 7.816 19.2397 8.188 19.2397 8.728ZM32.5505 10.948V0.256H30.9665V10.948H32.5505ZM23.9585 4.804C23.9585 7.012 25.0025 8.632 26.7545 8.632C28.5305 8.632 29.5745 7 29.5745 4.804C29.5745 2.56 28.5305 0.939999 26.7545 0.939999C25.0025 0.939999 23.9585 2.56 23.9585 4.804ZM28.0865 4.804C28.0865 6.412 27.5225 7.252 26.7545 7.252C26.0345 7.252 25.4705 6.412 25.4705 4.804C25.4705 3.172 26.0345 2.344 26.7545 2.344C27.5225 2.344 28.0865 3.172 28.0865 4.804ZM43.9294 0.256H42.3694V10.948H43.9294V5.524H45.4174V4.228H43.9294V0.256ZM42.0334 7.108C40.3534 6.172 39.4894 4.696 39.4894 2.464V1.132H37.8454V2.524C37.8454 4.768 37.0894 6.34 35.2414 7.444L36.2254 8.632C37.1734 8.152 38.4214 6.772 38.6854 5.668C39.0094 6.7 40.2214 7.876 41.1214 8.368L42.0334 7.108ZM53.9162 7.264C52.2482 6.364 51.3722 4.876 51.3722 2.56H53.4362V1.24H47.6882V2.56H49.7402V2.608C49.7402 4.936 48.9842 6.508 47.1602 7.588L48.0962 8.8C49.0802 8.272 50.2682 6.88 50.5802 5.728C50.9282 6.772 52.1882 8.032 53.0282 8.536L53.9162 7.264ZM55.8362 0.256H54.2762V10.948H55.8362V5.584H57.2762V4.288H55.8362V0.256ZM65.739 7.816C64.215 7.048 63.399 6.016 63.291 4H65.379V2.74H59.583V4H61.683C61.575 5.992 60.843 7.096 59.211 8.008L60.147 9.184C61.167 8.68 62.187 7.624 62.511 6.484C62.883 7.552 63.891 8.572 64.851 9.088L65.739 7.816ZM68.211 10.948V0.256H66.603V4.708H64.899V6.028H66.603V10.948H68.211ZM60.867 1.996H64.083V0.736H60.867V1.996ZM80.0698 10.816V6.976H72.9778V10.816H80.0698ZM78.4858 9.604H74.5618V8.176H78.4858V9.604ZM80.0698 6.472V0.256H78.4738V2.728H76.9498V4.012H78.4738V6.472H80.0698ZM77.1538 6.04C77.1178 5.632 77.0578 5.248 77.0098 4.84C76.2178 4.996 75.0898 5.068 74.1058 5.068C73.7578 5.068 73.4458 5.068 73.1578 5.044V4.132H76.3618V0.868H71.5618V2.116H74.7418V2.968H71.5618V6.28C72.1858 6.292 72.8098 6.316 73.4218 6.316C74.5858 6.316 76.3858 6.184 77.1538 6.04ZM89.069 9.556H90.785V1.24H89.909L87.725 2.2V3.196L89.069 2.944V9.556ZM97.229 9.652C98.993 9.652 100.541 8.572 100.541 5.608V5.188C100.541 2.26 99.017 1.144 97.253 1.144C95.525 1.144 93.929 2.236 93.929 5.224V5.656C93.929 8.5 95.381 9.652 97.229 9.652ZM97.229 8.38C96.185 8.38 95.717 7.48 95.717 5.62V5.104C95.717 3.232 96.209 2.416 97.241 2.416C98.261 2.416 98.777 3.28 98.777 5.188V5.704C98.777 7.624 98.273 8.38 97.229 8.38ZM111.957 10.948V0.256H110.361V10.948H111.957ZM108.729 1.36H103.653V2.656H107.049C106.833 4.708 105.333 6.76 102.993 7.852L103.893 9.1C107.361 7.192 108.633 4.48 108.729 1.36ZM128.396 10.9V9.616H122.336V9.208H128.108V6.46H120.716V7.696H126.512V8.116H120.752V10.9H128.396ZM128.924 3.088C127.604 3.076 126.164 2.608 125.6 1.864H128.348V0.615999H120.56V1.864H123.296C122.828 2.596 121.592 3.064 119.972 3.112L120.596 4.372C122.108 4.252 123.776 3.7 124.424 2.608C125.156 3.688 126.92 4.276 128.3 4.372L128.924 3.088ZM129.26 5.98V4.72H125.24V3.652H123.656V4.72H119.6V5.98H129.26ZM140.375 6.112V0.256H138.755V2.632H137.567V3.904H138.755V6.112H140.375ZM140.363 10.816V6.532H138.767V7.48H134.771V6.532H133.175V10.816H140.363ZM138.767 9.568H134.771V8.728H138.767V9.568ZM131.567 3.352C131.567 4.84 132.779 5.86 134.375 5.86C135.959 5.86 137.195 4.84 137.195 3.352C137.195 1.864 135.959 0.868 134.375 0.868C132.779 0.868 131.567 1.864 131.567 3.352ZM133.091 3.376C133.091 2.656 133.643 2.152 134.375 2.152C135.107 2.152 135.671 2.668 135.671 3.376C135.671 4.096 135.119 4.6 134.375 4.6C133.631 4.6 133.091 4.096 133.091 3.376ZM152.102 6.592V5.356H150.626L151.022 3.016L149.45 2.848L149.21 5.356H147.182L146.978 2.836L145.406 2.98L145.73 5.356H144.23V6.592H152.102ZM153.026 9.568V8.32H143.366V9.568H153.026ZM152.126 2.32V1.06H144.218V2.32H152.126ZM163.985 6.82V5.56H158.045V4.444H163.709V0.868H156.449V2.14H162.125V3.172H156.461V6.82H159.293V8.38H155.249V9.628H164.909V8.38H160.865V6.82H163.985ZM172.003 2.188V0.939999H167.335V2.188H168.943V2.308C168.943 3.7 168.463 4.672 166.951 5.38L167.743 6.532C168.655 6.208 169.507 5.284 169.735 4.624C170.011 5.284 171.007 6.148 171.595 6.352L172.375 5.152C171.139 4.672 170.491 3.7 170.479 2.296V2.188H172.003ZM168.727 7.084V8.344H174.655V10.96H176.251V7.084H168.727ZM174.139 6.592V0.435999H172.687V2.836H171.595V4.084H172.687V6.592H174.139ZM176.251 6.664V0.256H174.763V6.664H176.251ZM187.21 4.636V3.4H181.834V2.38H187.486V1.132H180.25V6.976H187.618V5.728H181.834V4.636H187.21ZM188.674 8.38H179.014V9.616H188.674V8.38ZM195.969 2.32H197.961V2.344C197.961 3.988 197.061 5.104 195.465 5.656L196.257 6.892C197.301 6.58 198.549 5.56 198.825 4.624C199.221 5.512 200.361 6.412 201.177 6.688L202.029 5.452C200.709 4.996 199.641 4 199.617 2.32H201.609V1.036H195.969V2.32ZM204.441 8.008V0.256H202.821V3.1H201.309V4.348H202.821V8.008H204.441ZM204.609 10.684V9.448H198.717V7.288H197.121V10.684H204.609ZM216.324 10.948V0.256H214.704V10.948H216.324ZM214.248 7.24C212.568 6.304 211.68 4.792 211.68 2.56V1.132H210.024V2.608C210.024 4.852 209.256 6.448 207.408 7.54L208.404 8.764C209.376 8.272 210.6 6.904 210.876 5.8C211.188 6.856 212.424 8.02 213.324 8.512L214.248 7.24Z" fill="#5C5C5C"/>
</svg>
