<svg width="390" height="25" viewBox="0 0 390 25" fill="none" xmlns="http://www.w3.org/2000/svg">
<path fill-rule="evenodd" clip-rule="evenodd" d="M0 18V25H17.5218C19.5533 15.2336 27.2793 7.9657 36.5 7.9657C45.7207 7.9657 53.4467 15.2336 55.4782 25H80.5218C82.5532 15.2336 90.2792 7.9657 99.5 7.9657C108.721 7.9657 116.447 15.2336 118.478 25H143.522C145.553 15.2336 153.279 7.9657 162.5 7.9657C171.721 7.9657 179.447 15.2336 181.478 25H206.522C208.553 15.2336 216.279 7.9657 225.5 7.9657C234.721 7.9657 242.447 15.2336 244.478 25H269.522C271.553 15.2336 279.279 7.9657 288.5 7.9657C297.721 7.9657 305.447 15.2336 307.478 25H332.522C334.553 15.2336 342.279 7.9657 351.5 7.9657C360.721 7.9657 368.447 15.2336 370.478 25H390V18H370.478C368.447 8.23355 360.721 0.965698 351.5 0.965698C342.279 0.965698 334.553 8.23355 332.522 18H307.478C305.447 8.23355 297.721 0.965698 288.5 0.965698C279.279 0.965698 271.553 8.23355 269.522 18H244.478C242.447 8.23355 234.721 0.965698 225.5 0.965698C216.279 0.965698 208.553 8.23355 206.522 18H181.478C179.447 8.23355 171.721 0.965698 162.5 0.965698C153.279 0.965698 145.553 8.23355 143.522 18H118.478C116.447 8.23355 108.721 0.965698 99.5 0.965698C90.2792 0.965698 82.5532 8.23355 80.5217 18H55.4782C53.4467 8.23355 45.7207 0.965698 36.5 0.965698C27.2793 0.965698 19.5533 8.23355 17.5218 18H0Z" fill="url(#paint0_linear_249_5409)" fill-opacity="0.44"/>
<defs>
<linearGradient id="paint0_linear_249_5409" x1="195" y1="-670" x2="195" y2="31.5" gradientUnits="userSpaceOnUse">
<stop offset="0.925118"/>
<stop offset="1" stop-opacity="0"/>
</linearGradient>
</defs>
</svg>
