<svg width="76" height="32" viewBox="0 0 76 32" fill="none" xmlns="http://www.w3.org/2000/svg">
<g filter="url(#filter0_i_180_3098)">
<path fill-rule="evenodd" clip-rule="evenodd" d="M12.0659 31.5881C16.6402 32.2992 21.2487 30.9208 24.8712 28.1543C26.8385 29.9143 29.3434 31.1391 32.232 31.5881C37.7304 32.4429 43.2784 30.2785 47.1039 26.3133C49.2257 29.0534 52.3686 30.9957 56.1791 31.5881C64.7178 32.9155 73.3759 26.9618 75.5174 18.2902C77.6589 9.61851 72.4729 1.51266 63.9342 0.185239C58.4357 -0.669544 52.8878 1.49489 49.0623 5.46009C46.9404 2.71996 43.7976 0.777621 39.987 0.185239C35.4127 -0.525868 30.8043 0.852574 27.1817 3.61904C25.2144 1.85906 22.7095 0.634289 19.821 0.185239C11.2822 -1.14218 2.62421 4.81151 0.482714 13.4832C-1.65878 22.1548 3.52719 30.2607 12.0659 31.5881Z" fill="#D0E3D5"/>
</g>
<defs>
<filter id="filter0_i_180_3098" x="0.00012207" y="0" width="75.9998" height="33.7734" filterUnits="userSpaceOnUse" color-interpolation-filters="sRGB">
<feFlood flood-opacity="0" result="BackgroundImageFix"/>
<feBlend mode="normal" in="SourceGraphic" in2="BackgroundImageFix" result="shape"/>
<feColorMatrix in="SourceAlpha" type="matrix" values="0 0 0 0 0 0 0 0 0 0 0 0 0 0 0 0 0 0 127 0" result="hardAlpha"/>
<feOffset dy="2"/>
<feGaussianBlur stdDeviation="1"/>
<feComposite in2="hardAlpha" operator="arithmetic" k2="-1" k3="1"/>
<feColorMatrix type="matrix" values="0 0 0 0 0 0 0 0 0 0 0 0 0 0 0 0 0 0 0.15 0"/>
<feBlend mode="normal" in2="shape" result="effect1_innerShadow_180_3098"/>
</filter>
</defs>
</svg>
