<svg width="271" height="83" viewBox="0 0 271 83" fill="none" xmlns="http://www.w3.org/2000/svg">
<g filter="url(#filter0_i_270_2888)">
<path d="M81.6209 77.896C81.8009 76.564 82.7369 75.808 85.6889 74.476L92.6369 71.56C97.1729 69.652 98.6849 67.672 98.6849 64.072C98.6849 59.644 95.6969 57.16 87.9929 57.304C84.2489 57.376 81.3689 57.628 77.6969 58.168L76.7969 62.308C80.6849 61.66 84.2489 61.372 87.9929 61.264C92.0249 61.156 93.6809 61.948 93.6809 63.928C93.6809 65.26 93.2489 66.7 90.7289 67.744L83.2409 70.876C77.8049 73.18 76.0769 76.132 76.0769 82H98.2529L99.6929 77.896H81.6209ZM131.341 68.428C131.341 61.264 127.165 57.34 119.893 57.34H118.813C111.577 57.34 107.365 61.264 107.365 68.428V71.092C107.365 78.256 111.577 82.18 118.813 82.18H119.893C127.165 82.18 131.341 78.256 131.341 71.092V68.428ZM112.333 68.5C112.333 63.748 114.817 61.444 118.849 61.444H119.857C123.925 61.444 126.373 63.748 126.373 68.5V71.02C126.373 75.808 123.925 78.076 119.857 78.076H118.849C114.817 78.076 112.333 75.808 112.333 71.02V68.5ZM145.711 77.896C145.891 76.564 146.827 75.808 149.779 74.476L156.727 71.56C161.263 69.652 162.775 67.672 162.775 64.072C162.775 59.644 159.787 57.16 152.083 57.304C148.339 57.376 145.459 57.628 141.787 58.168L140.887 62.308C144.775 61.66 148.339 61.372 152.083 61.264C156.115 61.156 157.771 61.948 157.771 63.928C157.771 65.26 157.339 66.7 154.819 67.744L147.331 70.876C141.895 73.18 140.167 76.132 140.167 82H162.343L163.783 77.896H145.711ZM177.035 77.896C177.215 76.564 178.151 75.808 181.103 74.476L188.051 71.56C192.587 69.652 194.099 67.672 194.099 64.072C194.099 59.644 191.111 57.16 183.407 57.304C179.663 57.376 176.783 57.628 173.111 58.168L172.211 62.308C176.099 61.66 179.663 61.372 183.407 61.264C187.439 61.156 189.095 61.948 189.095 63.928C189.095 65.26 188.663 66.7 186.143 67.744L178.655 70.876C173.219 73.18 171.491 76.132 171.491 82H193.667L195.107 77.896H177.035Z" fill="#AAAAAA"/>
</g>
<g filter="url(#filter1_i_270_2888)">
<path d="M23.7639 55.555L25.6232 58.0754L15.7831 65.3346L5.80972 51.8153L8.50392 49.8278L16.618 60.8267L23.7639 55.555Z" fill="#747474"/>
<path d="M26.0118 37.9627L34.8172 52.2702L31.9659 54.025L23.1605 39.7175L26.0118 37.9627Z" fill="#747474"/>
<path d="M52.6338 42.6627L44.2098 39.1236L42.8228 39.8111L45.8924 46.0041L42.8927 47.491L35.4318 32.4385L38.4316 30.9517L41.4532 37.0479L42.8724 36.3445L44.8288 27.7808L48.5919 25.9156L45.9205 36.3873L56.5259 40.7335L52.6338 42.6627Z" fill="#747474"/>
<path d="M74.1784 30.7325L75.2269 33.62L63.4286 37.904L57.6947 22.1128L69.4027 17.8615L70.4512 20.7491L61.8901 23.8577L63.1598 27.3543L71.3261 24.3891L72.3746 27.2766L64.2083 30.2418L65.5271 33.8738L74.1784 30.7325Z" fill="#747474"/>
<path d="M94.1368 25.2926L94.8937 28.3318L83.0281 31.2867L78.9683 14.9846L82.2171 14.1755L85.52 27.4385L94.1368 25.2926Z" fill="#747474"/>
<path d="M102.928 9.88927L105.607 26.4742L102.302 27.0082L99.6227 10.4232L102.928 9.88927Z" fill="#747474"/>
<path d="M121.791 7.51408C123.483 7.40635 125.024 7.68505 126.413 8.35017C127.81 9.01477 128.922 9.98611 129.749 11.2642C130.583 12.5337 131.053 13.9949 131.158 15.6475C131.263 17.3002 130.983 18.813 130.317 20.1861C129.658 21.5507 128.678 22.6512 127.376 23.4875C126.083 24.3234 124.59 24.7952 122.897 24.9029C121.628 24.9837 120.432 24.8393 119.311 24.4698C118.189 24.1003 117.216 23.557 116.393 22.8399C115.578 22.1222 114.917 21.2424 114.409 20.2005C113.91 19.1501 113.62 18.0062 113.542 16.7687C113.463 15.5312 113.605 14.3638 113.968 13.2665C114.339 12.1608 114.883 11.2003 115.6 10.3851C116.326 9.56931 117.222 8.90708 118.288 8.39836C119.353 7.88963 120.521 7.59487 121.791 7.51408ZM121.995 10.7236C120.446 10.8222 119.205 11.4142 118.272 12.4996C117.339 13.5771 116.924 14.9262 117.027 16.5469C117.13 18.1676 117.713 19.4572 118.776 20.4156C119.838 21.366 121.144 21.792 122.693 21.6934C124.25 21.5943 125.491 21.0063 126.416 19.9293C127.349 18.8439 127.764 17.4908 127.661 15.8701C127.558 14.2493 126.975 12.9638 125.913 12.0133C124.858 11.0544 123.552 10.6245 121.995 10.7236Z" fill="#747474"/>
<path d="M155.506 8.24052L154.482 25.0093L151.344 24.8175L143.524 13.0989L142.828 24.2973L139.486 24.0931L140.51 7.32437L143.637 7.51536L151.469 19.2348L152.153 8.03563L155.506 8.24052Z" fill="#747474"/>
<path d="M186.654 27.8467L185.949 30.8369L173.732 27.9588L177.584 11.6064L189.708 14.4625L189.004 17.4527L180.138 15.3642L179.285 18.9851L187.742 20.9772L187.038 23.9674L178.581 21.9752L177.695 25.7363L186.654 27.8467Z" fill="#AADDDD"/>
<path d="M222.037 25.7292L211.339 39.6203L207.552 38.1683L208.486 25.6748L200.829 35.5909L197.042 34.1389L198.372 16.6566L201.622 17.9024L200.381 31.2293L208.501 20.54L211.964 21.8674L210.857 35.2458L218.843 24.5049L222.037 25.7292Z" fill="#AADDDD"/>
<path d="M234.012 31.956L230.717 37.8678L237.782 41.8054L241.077 35.8936L244.001 37.5236L235.822 52.1982L232.898 50.5682L236.263 44.5307L229.198 40.5931L225.833 46.6306L222.908 45.0006L231.087 30.326L234.012 31.956Z" fill="#AADDDD"/>
<path d="M260.418 48.6474L255.841 66.0846L252.947 63.9837L254.06 59.958L248.263 55.7491L244.78 58.0547L241.954 56.0031L257.117 46.2504L260.418 48.6474ZM256.793 50.1079L251.007 53.9303L254.94 56.7855L256.793 50.1079Z" fill="#AADDDD"/>
</g>
<defs>
<filter id="filter0_i_270_2888" x="76.0769" y="57.16" width="119.03" height="27.02" filterUnits="userSpaceOnUse" color-interpolation-filters="sRGB">
<feFlood flood-opacity="0" result="BackgroundImageFix"/>
<feBlend mode="normal" in="SourceGraphic" in2="BackgroundImageFix" result="shape"/>
<feColorMatrix in="SourceAlpha" type="matrix" values="0 0 0 0 0 0 0 0 0 0 0 0 0 0 0 0 0 0 127 0" result="hardAlpha"/>
<feOffset dy="2"/>
<feGaussianBlur stdDeviation="1"/>
<feComposite in2="hardAlpha" operator="arithmetic" k2="-1" k3="1"/>
<feColorMatrix type="matrix" values="0 0 0 0 0 0 0 0 0 0 0 0 0 0 0 0 0 0 0.25 0"/>
<feBlend mode="normal" in2="shape" result="effect1_innerShadow_270_2888"/>
</filter>
<filter id="filter1_i_270_2888" x="5.80972" y="6.95312" width="259.901" height="61.1315" filterUnits="userSpaceOnUse" color-interpolation-filters="sRGB">
<feFlood flood-opacity="0" result="BackgroundImageFix"/>
<feBlend mode="normal" in="SourceGraphic" in2="BackgroundImageFix" result="shape"/>
<feColorMatrix in="SourceAlpha" type="matrix" values="0 0 0 0 0 0 0 0 0 0 0 0 0 0 0 0 0 0 127 0" result="hardAlpha"/>
<feOffset dy="2"/>
<feGaussianBlur stdDeviation="1"/>
<feComposite in2="hardAlpha" operator="arithmetic" k2="-1" k3="1"/>
<feColorMatrix type="matrix" values="0 0 0 0 0 0 0 0 0 0 0 0 0 0 0 0 0 0 0.25 0"/>
<feBlend mode="normal" in2="shape" result="effect1_innerShadow_270_2888"/>
</filter>
</defs>
</svg>
