<svg width="17" height="16" viewBox="0 0 17 16" fill="none" xmlns="http://www.w3.org/2000/svg">
<path fill-rule="evenodd" clip-rule="evenodd" d="M8.09888 0C3.67888 0 0.098877 3.67055 0.098877 8.20235C0.098877 11.8319 2.38888 14.8975 5.56888 15.9843C5.96888 16.0561 6.11888 15.81 6.11888 15.5947C6.11888 15.3999 6.10888 14.754 6.10888 14.067C4.09888 14.4464 3.57888 13.5646 3.41888 13.1033C3.32888 12.8674 2.93888 12.1395 2.59888 11.9447C2.31888 11.7909 1.91888 11.4115 2.58888 11.4013C3.21888 11.391 3.66888 11.9959 3.81888 12.242C4.53888 13.4826 5.68888 13.134 6.14888 12.9187C6.21888 12.3856 6.42888 12.0267 6.65888 11.8216C4.87888 11.6166 3.01888 10.9091 3.01888 7.77173C3.01888 6.87972 3.32888 6.14151 3.83888 5.56735C3.75888 5.36229 3.47888 4.52155 3.91888 3.39372C3.91888 3.39372 4.58888 3.17841 6.11888 4.23446C6.75888 4.04991 7.43888 3.95763 8.11888 3.95763C8.79888 3.95763 9.47888 4.04991 10.1189 4.23446C11.6489 3.16816 12.3189 3.39372 12.3189 3.39372C12.7589 4.52155 12.4789 5.36229 12.3989 5.56735C12.9089 6.14151 13.2189 6.86947 13.2189 7.77173C13.2189 10.9194 11.3489 11.6166 9.56888 11.8216C9.85888 12.078 10.1089 12.5701 10.1089 13.3391C10.1089 14.4361 10.0989 15.3179 10.0989 15.5947C10.0989 15.81 10.2489 16.0664 10.6489 15.9843C13.8089 14.8975 16.0989 11.8216 16.0989 8.20235C16.0989 3.67055 12.5189 0 8.09888 0V0Z" fill="#A5A5A5"/>
</svg>
