<svg width="17" height="16" viewBox="0 0 17 16" fill="none" xmlns="http://www.w3.org/2000/svg">
<path d="M8.0989 0C5.92621 0 5.65377 0.00921719 4.80048 0.0481342C3.94897 0.0869798 3.36743 0.222237 2.85856 0.419966C2.33249 0.624411 1.88635 0.897974 1.44161 1.34271C0.996851 1.78744 0.723288 2.23363 0.518867 2.7597C0.32109 3.26855 0.185881 3.8501 0.146987 4.7016C0.10807 5.55489 0.098877 5.82734 0.098877 8.00002C0.098877 10.1727 0.10807 10.4451 0.146987 11.2984C0.185881 12.1499 0.32109 12.7314 0.518867 13.2403C0.723312 13.7664 0.996874 14.2125 1.44161 14.6573C1.88637 15.102 2.33249 15.3756 2.85856 15.58C3.36743 15.7778 3.94897 15.913 4.80048 15.9519C5.65377 15.9908 5.92621 16 8.0989 16C10.2715 16 10.544 15.9908 11.3973 15.9519C12.2488 15.913 12.8303 15.7778 13.3392 15.58C13.8652 15.3756 14.3114 15.102 14.7562 14.6573C15.2009 14.2125 15.4745 13.7664 15.6789 13.2403C15.8766 12.7314 16.0119 12.1499 16.0507 11.2984C16.0897 10.4451 16.0989 10.1727 16.0989 8.00002C16.0989 5.82734 16.0897 5.55489 16.0507 4.7016C16.0119 3.8501 15.8766 3.26855 15.6789 2.7597C15.4745 2.23363 15.2009 1.78744 14.7562 1.34271C14.3114 0.897974 13.8652 0.624411 13.3392 0.419966C12.8303 0.222237 12.2488 0.0869798 11.3973 0.0481342C10.544 0.00921719 10.2715 0 8.0989 0ZM8.0989 1.44143C10.235 1.44143 10.488 1.4496 11.3316 1.48809C12.1116 1.52365 12.5352 1.65397 12.817 1.76353C13.1905 1.90867 13.457 2.08201 13.7369 2.36196C14.0169 2.6419 14.1902 2.90842 14.3353 3.28182C14.4449 3.56372 14.5752 3.98733 14.6108 4.76731C14.6493 5.61089 14.6574 5.86392 14.6574 8C14.6574 10.1361 14.6493 10.3891 14.6108 11.2327C14.5752 12.0127 14.4449 12.4363 14.3353 12.7182C14.1902 13.0916 14.0169 13.3581 13.7369 13.638C13.457 13.918 13.1905 14.0913 12.8171 14.2365C12.5352 14.346 12.1115 14.4764 11.3316 14.5119C10.4881 14.5504 10.2351 14.5586 8.09888 14.5586C5.96263 14.5586 5.70967 14.5504 4.86619 14.5119C4.08618 14.4764 3.6626 14.346 3.38072 14.2365C3.00727 14.0913 2.74078 13.918 2.46086 13.638C2.18091 13.3581 2.00755 13.0916 1.86241 12.7182C1.75285 12.4363 1.62255 12.0127 1.58697 11.2327C1.54848 10.3891 1.54031 10.1361 1.54031 8C1.54031 5.86392 1.54848 5.61089 1.58697 4.76731C1.62255 3.98731 1.75285 3.56372 1.86241 3.28184C2.00755 2.90839 2.18091 2.6419 2.46084 2.36198C2.74078 2.08201 3.00729 1.90867 3.3807 1.76353C3.6626 1.65397 4.08621 1.52365 4.86619 1.48809C5.70977 1.4496 5.9628 1.44143 8.09888 1.44143" fill="#A5A5A5"/>
<path d="M8.09861 10.6666C6.62581 10.6666 5.43191 9.47274 5.43191 7.99999C5.43191 6.52719 6.62581 5.33329 8.09861 5.33329C9.57136 5.33329 10.7653 6.52719 10.7653 7.99999C10.7653 9.47274 9.57136 10.6666 8.09861 10.6666ZM8.09861 3.89186C5.82972 3.89186 3.99048 5.73111 3.99048 7.99999C3.99048 10.2688 5.82972 12.1081 8.09861 12.1081C10.3674 12.1081 12.2067 10.2688 12.2067 7.99999C12.2067 5.73111 10.3674 3.89186 8.09861 3.89186ZM13.329 3.72955C13.329 4.25976 12.8992 4.68954 12.369 4.68954C11.8388 4.68954 11.409 4.25976 11.409 3.72955C11.409 3.19936 11.8388 2.76953 12.369 2.76953C12.8992 2.76953 13.329 3.19936 13.329 3.72955Z" fill="#A5A5A5"/>
</svg>
