<svg width="28" height="28" viewBox="0 0 28 28" fill="none" xmlns="http://www.w3.org/2000/svg">
<path fill-rule="evenodd" clip-rule="evenodd" d="M13.9398 25.1974C20.1917 25.1974 25.2599 20.1292 25.2599 13.8773C25.2599 7.62534 20.1917 2.55713 13.9398 2.55713C7.68784 2.55713 2.61963 7.62534 2.61963 13.8773C2.61963 20.1292 7.68784 25.1974 13.9398 25.1974ZM13.9397 5.61333L21.7048 11.4761L18.5863 20.3327H9.10606L6.39297 11.4137L13.9397 5.61333Z" fill="#B8B8B8"/>
<path fill-rule="evenodd" clip-rule="evenodd" d="M12.136 0.0576087C11.5143 0.108877 10.3848 0.335592 9.69009 0.548586C8.37839 0.950685 7.41658 1.63008 7.05845 2.4074C6.84927 2.86127 6.80386 3.42366 6.94332 3.83293C7.12008 4.3516 7.03781 4.46368 6.70089 4.16318C6.50018 3.98424 5.99193 3.79301 5.61091 3.75322C4.68365 3.6563 3.63334 4.31062 2.72692 5.54997C2.3701 6.0379 1.89141 6.80211 1.71721 7.16205C1.54806 7.51145 0.950746 8.97852 0.866546 9.25145C0.824197 9.38866 0.765694 9.57109 0.736629 9.65685C0.485465 10.3971 0.205611 11.5775 0.0860477 12.4011C-0.0289626 13.1938 -0.0286508 14.6455 0.0867961 15.1941C0.394031 16.6546 1.18956 17.4485 2.37734 17.48C2.57742 17.4853 2.73684 17.5165 2.73172 17.5493C2.72654 17.5821 2.64241 17.668 2.54467 17.7401C1.98553 18.1526 1.61549 18.8668 1.61998 19.5249C1.62509 20.2861 1.99476 21.1894 2.68638 22.1309C3.14523 22.7554 4.20054 23.8309 4.86097 24.347C5.11825 24.548 5.34278 24.7299 5.35993 24.751C5.42062 24.826 6.58432 25.615 7.16866 25.9774C7.87338 26.4144 8.22883 26.5907 9.10201 26.9365C10.1509 27.352 10.5891 27.4494 11.441 27.4569C12.2685 27.4642 12.5784 27.3858 13.0841 27.0414C13.3796 26.8402 13.8017 26.2414 13.9152 25.8623C13.9875 25.6211 14.0917 25.5393 14.0917 25.7236C14.0917 25.7786 14.1942 26.0186 14.3194 26.2569C14.691 26.9642 15.2284 27.3328 16.0625 27.453C17.8275 27.7073 20.6683 26.4422 23.3549 24.2055C25.8073 22.1639 26.9166 20.0133 26.2333 18.625C26.0739 18.3012 25.6733 17.8371 25.3963 17.6555C25.3191 17.6049 25.256 17.5427 25.256 17.5172C25.256 17.4918 25.4755 17.4559 25.7439 17.4375C26.5932 17.3793 27.2106 16.945 27.6107 16.1246C27.8981 15.5352 28.0003 14.9308 28 13.8227C27.9997 12.7579 27.9074 12.0583 27.619 10.9354C26.8325 7.87263 25.5211 5.42081 24.1007 4.35746C23.1313 3.63172 22.2584 3.5537 21.3356 4.11023C21.1129 4.24457 20.9173 4.34106 20.9009 4.32465C20.8845 4.30825 20.9211 4.10985 20.9824 3.8837C21.1827 3.14349 20.9997 2.37653 20.4874 1.80946C19.7044 0.942764 17.8679 0.266049 15.7223 0.0534923C14.9843 -0.0196053 13.046 -0.01736 12.136 0.0576087ZM11.6993 1.76106C13.7003 2.11919 14.0574 2.12486 15.8145 1.82686C18.3758 1.39239 19.5764 1.49012 20.3186 2.19347C20.7403 2.59301 20.9146 3.1937 20.8223 3.92873C20.7613 4.41422 20.6713 4.6312 20.5595 4.56216C20.5183 4.53671 20.3303 4.41378 20.1416 4.28892C19.6296 3.95006 18.6614 3.45989 18.0076 3.2086C16.7154 2.71176 15.4644 2.48174 14.0406 2.479C12.6146 2.47632 11.5542 2.64453 10.2248 3.08443C9.61294 3.28688 8.38195 3.89623 7.79236 4.28848C7.24469 4.65278 7.22068 4.64287 7.10972 4.00563C6.97918 3.25619 7.21195 2.52784 7.71434 2.11339C7.98184 1.89278 8.49141 1.68347 8.94621 1.6075C9.46014 1.52162 10.7694 1.59466 11.6993 1.76106ZM6.60733 4.25792C6.96315 4.43848 7.16866 4.58991 7.16866 4.67162C7.16866 4.69769 7.02134 4.83534 6.84122 4.97748C5.09168 6.35848 3.6921 8.45972 3.05966 10.6548C2.71806 11.8406 2.65669 12.3095 2.65151 13.7733C2.64665 15.1745 2.71207 15.7493 2.99106 16.7561C3.17941 17.4359 3.19002 17.4157 2.6716 17.3675C1.28218 17.2384 0.56218 16.3403 0.750226 14.9709C0.852513 14.2258 1.06563 13.6728 1.86066 12.0893C2.71345 10.3909 2.81567 10.1085 2.98981 8.97078C3.34794 6.6311 3.45765 6.15646 3.80972 5.4243C4.10972 4.80041 4.46866 4.39008 4.89216 4.18688C5.16297 4.0569 5.2738 4.04031 5.73415 4.06052C6.16107 4.07929 6.3311 4.11771 6.60733 4.25792ZM23.076 4.20097C23.6131 4.47316 23.9998 4.97268 24.3227 5.81131C24.5216 6.3281 24.7022 7.17864 24.9472 8.75249C25.1299 9.92642 25.3054 10.458 25.8635 11.528C26.5475 12.8392 26.6056 12.955 26.7868 13.3679C27.5973 15.2136 27.4316 16.4965 26.3089 17.0688C25.9029 17.2759 25.2817 17.4022 24.9663 17.3419C24.8083 17.3117 24.7735 17.1563 24.8801 16.9572C24.9136 16.8948 25.0168 16.4826 25.1095 16.0413C25.2636 15.3079 25.2782 15.1184 25.2794 13.8356C25.2806 12.5509 25.2667 12.3665 25.1149 11.6527C24.712 9.75752 24.0071 8.22783 22.8629 6.766C22.4622 6.25413 21.5256 5.31453 21.0259 4.92316L20.7564 4.71203L20.7922 4.92353C20.8119 5.03985 20.885 5.59812 20.9545 6.16413C21.024 6.73014 21.1218 7.48794 21.1717 7.84812C21.2217 8.20831 21.3464 9.1345 21.4487 9.90633C21.6157 11.1652 21.655 11.3482 21.8311 11.6839C22.0479 12.097 23.7461 15.4923 24.1552 16.3304C24.2975 16.622 24.4296 16.8746 24.4487 16.8918C24.5032 16.9407 24.6518 17.3299 24.6251 17.3539C24.6119 17.3657 24.3485 17.4948 24.0398 17.6408C23.731 17.7868 23.1276 18.0744 22.6988 18.2801C22.27 18.4857 21.6315 18.7907 21.2799 18.9578C20.9283 19.1251 20.3389 19.4054 19.9701 19.5809C19.6013 19.7563 19.1593 19.9637 18.9878 20.0418C18.7892 20.1321 18.6619 20.2091 18.4624 20.3967C18.3253 20.5256 18.1543 20.7066 17.9027 20.98C17.6832 21.2184 17.2623 21.6665 16.9672 21.9756C16.4049 22.5645 15.1271 23.924 14.4618 24.6413C14.2471 24.8728 14.0478 25.0622 14.0189 25.0622C13.99 25.0622 13.4143 24.5219 12.7395 23.8616C12.0647 23.2013 11.3252 22.4786 11.0962 22.2556C10.8673 22.0326 10.3577 21.5345 9.96396 21.1485C9.57022 20.7626 9.21758 20.4469 9.18028 20.4469C9.13721 20.4262 9.13721 20.4262 9.09172 20.3967C9.0803 20.3692 8.77625 20.1966 8.41606 20.0134C8.05588 19.8301 7.59278 19.5897 7.38696 19.479C7.18114 19.3684 6.36721 18.9483 5.57823 18.5455C3.62654 17.5491 3.30172 17.3731 3.30172 17.3119C3.30172 17.283 3.38199 17.1134 3.4801 16.9352C3.57815 16.7569 3.80617 16.3304 3.98673 15.9874C4.16735 15.6444 4.36419 15.2795 4.42419 15.1766C4.48426 15.0737 4.64517 14.779 4.78182 14.5217C4.91848 14.2644 5.35656 13.4505 5.75529 12.713C6.2759 11.75 6.4892 11.2929 6.51209 11.0914C6.52962 10.937 6.55956 10.6704 6.57864 10.4988C6.59773 10.3273 6.63895 9.99053 6.6702 9.75041C6.7292 9.29717 6.8033 8.69149 7.09956 6.24091C7.19604 5.4427 7.29097 4.77359 7.31055 4.75407C7.33014 4.73449 7.95877 4.80422 8.70752 4.90906C9.45627 5.0139 10.2794 5.12885 10.5366 5.16447C10.7939 5.20002 11.6219 5.31553 12.3766 5.42112C13.1312 5.52665 13.8329 5.61172 13.9358 5.61016C14.1248 5.60723 15.4901 5.41781 17.3913 5.13079C18.9306 4.8984 19.6152 4.79798 20.1998 4.71883C20.6045 4.66407 20.789 4.60494 21.0005 4.46224C21.671 4.00968 22.4941 3.90609 23.076 4.20097ZM9.51066 11.8301C9.54321 11.8591 10.0751 12.2286 10.6926 12.6513C11.31 13.0739 11.8488 13.4606 11.8899 13.5104C11.9443 13.5764 11.9562 13.8915 11.9335 14.6695C11.9165 15.2571 11.9249 15.766 11.9524 15.8003C11.9799 15.8346 12.4093 16.1703 12.9067 16.5463C13.4041 16.9223 13.8482 17.2661 13.8935 17.3103C14.0057 17.4197 14.108 17.4113 14.2515 17.2808C14.318 17.2203 14.7653 16.8781 15.2456 16.5202C15.7258 16.1624 16.14 15.84 16.166 15.8037C16.1919 15.7676 16.2099 15.6818 16.2058 15.6132C16.2018 15.5446 16.2016 15.039 16.2054 14.4897C16.2119 13.5555 16.2204 13.4871 16.3375 13.4294C16.4063 13.3956 16.966 13.0311 17.5812 12.6194L18.6997 11.871L17.4522 11.8177C16.766 11.7883 16.1903 11.7787 16.1727 11.7963C16.1551 11.8139 16.1244 12.729 16.1044 13.8298L16.0681 15.8315H14.0508H12.0335V13.8045V11.7774H10.7425C10.0324 11.7774 9.4781 11.8011 9.51066 11.8301ZM3.35673 17.8945C4.07268 19.7938 5.6434 21.836 7.29796 23.0187C9.08716 24.2977 11.0497 24.9871 13.3962 25.1609L13.9792 25.204L13.9452 25.374C13.8754 25.7226 13.5718 26.2498 13.2875 26.5157C12.9931 26.7911 12.4222 27.0581 12.1278 27.0581C11.553 27.0581 10.6774 26.6861 10.0208 26.1629C9.79232 25.9808 9.09739 25.3342 8.4765 24.7259C7.82286 24.0855 7.16554 23.5022 6.91519 23.3402C6.67737 23.1863 5.94247 22.7919 5.28203 22.4636C3.67413 21.6644 2.85453 21.1033 2.34266 20.4513C1.72045 19.6589 1.8805 18.5265 2.72156 17.77C2.91677 17.5944 3.10557 17.4605 3.14106 17.4723C3.17661 17.4842 3.27365 17.6741 3.35673 17.8945ZM25.2964 17.7389C25.7007 18.0843 25.9435 18.4802 26.0408 18.9527C26.1887 19.6704 25.9757 20.2097 25.2744 20.8924C24.7409 21.4119 24.2213 21.7378 22.7465 22.4779C22.017 22.8441 21.266 23.2455 21.0774 23.3701C20.8888 23.4946 20.1713 24.1465 19.4828 24.8188C18.7729 25.5119 18.0303 26.1759 17.7674 26.3527C16.4664 27.2277 15.4586 27.2557 14.694 26.4383C14.4166 26.1417 14.0917 25.537 14.0917 25.3172C14.0917 25.1725 14.2554 25.1267 14.7778 25.1251C15.6658 25.1223 17.2112 24.7584 18.3631 24.281C19.9408 23.6271 21.5472 22.4425 22.6784 21.0988C23.396 20.2465 24.1929 18.8967 24.5454 17.9365C24.7599 17.3521 24.8239 17.3353 25.2964 17.7389Z" fill="#868686"/>
</svg>
