<svg width="80" height="216" viewBox="0 0 80 216" fill="none" xmlns="http://www.w3.org/2000/svg">
<path d="M99.5674 211.422C98.1747 208.028 93.7596 206.747 91.788 203.608C91.5251 203.281 91.232 204.433 90.6783 203.648C88.967 200.382 84.3733 197.522 80.5446 195.552L80.5495 195.928C79.8251 195.547 79.7213 194.213 79.0154 193.746C78.8872 193.877 79.0389 194.12 78.7222 194.182C78.9396 193.625 77.7654 192.977 77.7842 192.428C77.3917 192.369 77.1169 192.718 76.6306 192.611L76.7013 191.822C76.7473 189.8 74.253 189.694 73.449 187.877C73.4097 188.045 73.4646 188.248 73.2606 188.258C72.4952 186.932 71.4399 185.656 70.3017 184.411C69.1664 183.159 67.932 181.946 66.8979 180.673C66.8323 180.925 66.6306 181.306 66.3197 181.352C66.6705 180.759 66.0758 179.927 65.5461 179.222C64.778 179.435 64.9208 177.72 63.9233 177.271L63.8787 177.441C63.8457 176.401 62.7849 176.939 62.9716 175.894L62.2534 175.934C62.7064 175.014 61.1284 175.505 61.0351 174.714L61.1923 174.589C60.945 174 60.3831 174.124 60.1174 173.621L59.9997 173.663C59.2831 172.568 58.3721 172.418 58.9374 171.908C58.1884 172.008 59.6069 172.985 58.4845 173.095C57.2961 171.308 55.9349 169.639 54.4921 168.047C53.0628 166.443 51.5874 164.879 50.1409 163.322C49.5896 163.174 49.3114 163.009 49.0249 163.123C48.8519 162.708 48.0573 161.838 48.0839 161.292C48.1704 161.408 47.614 161.347 47.4382 161.207C46.706 160.823 47.4941 160.021 46.6726 159.614C46.7486 160.002 46.6408 160.248 46.3573 160.353C46.308 159.418 45.5943 158.765 45.167 157.999C45.1615 158.184 45.2429 158.387 45.0432 158.519C44.9126 157.381 43.8056 157.328 43.5858 156.432L43.4567 156.955C42.1846 156.307 43.8878 156.058 42.899 155.402C42.9777 155.698 42.7832 155.743 42.6836 155.893C42.5823 154.565 41.2527 153.442 40.7576 152.46C40.7524 152.547 40.6526 152.613 40.6526 152.613C39.9792 151.668 39.0096 150.899 38.4547 149.703C38.0036 149.476 37.738 150.505 37.0673 149.468C37.768 148.94 35.999 147.643 37.2317 147.56C36.4481 146.855 35.1516 145.775 34.9346 145.055C34.9733 145.63 33.7833 145.342 34.2754 146.065L33.4469 145.895C33.2291 146.198 33.9736 146.342 33.491 146.468C33.2396 146.109 32.6983 144.9 32.3448 144.686C32.2541 143.718 32.5458 142.521 31.8292 141.426C31.9437 142.122 30.8563 141.76 31.0001 142.182L31.1786 139.701C30.9433 139.335 30.5755 140.06 30.3665 139.427C30.5711 139.306 30.5111 139.008 30.5374 138.741C30.3568 138.675 29.5853 137.196 28.791 137.577C28.4029 137.64 29.0888 138.247 28.5441 138.057C28.0522 137.418 28.2567 137.213 27.7755 136.569L27.6732 136.63C27.2467 136.287 27.0071 135.166 27.7351 135.33C27.9863 135.605 27.2395 135.541 27.7711 135.815C27.9397 135.209 27.4768 134.394 27.0035 133.754C27.0582 134.054 26.8564 134.167 26.7251 134.404C26.6116 133.134 26.0888 132.106 25.6033 130.976C25.9204 130.718 25.2728 131.781 25.5529 131.794C24.1688 130.905 24.3134 128.772 22.8953 128.231C22.9551 128.445 23.4317 127.982 23.3347 128.04C22.8674 127.469 22.4014 127.842 22.3054 127.326C21.991 127.491 22.0466 126.768 21.8458 126.307C21.9091 125.952 21.6289 126.304 21.8457 126.672C21.6873 125.938 20.5849 123.38 19.298 122.335C19.5072 122.238 19.4888 121.06 19.2751 120.768L18.8927 121.181C18.446 121.075 18.2806 120.129 17.8568 120.325C17.9974 119.322 18.9857 123.151 18.853 121.994C18.3235 122.005 18.7968 120.3 18.2982 120.883C17.917 120.258 18.0763 119.337 17.2818 119.002C17.458 119.129 16.9486 119.9 16.673 119.376C16.2164 118.434 16.7424 118.992 16.462 118.177L16.394 117.609C16.8313 117.315 15.8767 116.846 16.5714 116.882C16.1318 116.988 16.0603 115.457 15.3546 115.974L14.8252 116.434C14.6497 116.014 15.1058 115.437 15.209 114.985C15.1222 114.967 14.9487 114.93 14.8567 114.999C15.7514 114.44 14.2664 114.106 14.7517 113.256C14.0119 112.589 13.654 111.171 12.8901 111.057C12.8815 110.266 12.9321 109.532 12.4088 108.882C12.3848 109.069 12.4394 109.285 12.2554 109.422C11.7707 109.08 11.9759 108.848 11.9481 108.353C11.851 108.509 10.9684 107.661 10.4113 107.261C10.4448 106.476 11.0607 106.497 11.3548 106.302C10.7574 106.194 10.7253 105.662 10.7069 105.117C10.6885 104.571 10.7052 104.003 10.1245 103.777C10.0688 104.051 9.98503 104.924 9.54384 104.451C8.36166 104.165 9.80693 102.967 9.04577 102.127L9.94321 102.108C9.29795 101.828 9.98183 100.52 9.16723 100.872C9.35393 100.459 8.56706 99.7754 9.40897 99.6649C8.85867 98.9428 8.68487 97.9221 8.51372 96.9914C8.41618 96.5284 8.30464 96.0914 8.1065 95.7206C7.92694 95.3478 7.66326 95.0466 7.24574 94.8494C7.34352 94.5824 7.1012 94.0041 7.5519 94.0621C8.07953 94.3842 7.31438 94.6741 7.65282 94.7712C7.64331 94.5541 7.86286 94.4652 7.96976 94.4286C7.69293 93.9445 7.56203 93.5361 6.95691 94.1428C6.23778 93.0428 8.20725 92.7348 7.69318 91.3181C7.35678 91.4221 7.20625 91.3226 7.21903 90.8865L7.75259 90.0133C7.54467 89.0736 6.92025 89.5263 6.32969 89.5463C6.38483 89.0189 6.31876 88.3848 6.76266 88.1332L6.00526 87.5267C6.55046 87.971 6.34885 87.0871 6.48838 86.8398L6.34885 87.0871C6.10293 86.9927 6.22648 86.3879 6.30933 86.0888C6.66177 86.1598 6.83435 86.7705 6.94649 87.0964C7.20039 86.8287 7.11701 86.4243 7.43146 86.0763C6.85139 86.1891 7.04325 85.2399 6.99166 84.8337C6.87591 84.3595 7.51974 84.3279 7.50254 84.1925C7.19108 84.1677 7.49033 83.4358 7.04659 83.772C6.9362 83.9275 7.32651 84.1504 7.0573 84.3992C6.85225 84.0838 6.30172 84.0917 6.7354 83.4668C7.06119 83.0028 7.86742 83.6583 7.56908 82.7345C7.40638 82.9599 7.17268 82.9901 6.95081 83.1583L6.71989 82.2814L7.24608 82.2914C7.12276 82.1661 7.07293 82.2414 7.0059 82.1813C7.29192 82.0811 7.3516 81.7602 7.43732 81.4532C7.52841 81.1437 7.63231 80.8479 7.95146 80.791C8.06136 80.3815 7.70887 79.8609 7.69732 79.4426L7.63964 79.515C7.3883 78.9735 7.74517 78.3517 8.15999 78.0093L8.04353 78.0112C8.05951 77.7366 8.24168 77.1177 8.62487 76.8616C8.40329 76.1173 6.74518 76.183 7.57996 75.5936C7.7748 74.9036 8.77858 74.7766 9.03534 75.1332C9.01467 74.4846 9.36252 73.8995 9.61537 73.3064C9.85787 72.7051 10.1153 72.136 9.93681 71.4564C10.196 71.3687 10.2814 71.5245 10.5307 71.2329C10.5873 71.0176 10.6599 70.7949 10.7454 70.5858C10.8442 70.3771 10.9532 70.1766 11.0623 69.9761C11.2858 69.5726 11.5274 69.1802 11.7427 68.787C12.2095 68.023 12.5806 67.2773 12.4826 66.3778C12.036 66.7219 12.0134 66.1394 11.7591 65.9707C12.3977 65.8437 11.6317 65.2608 12.4009 65.5555C12.7839 65.847 13.0009 65.9352 12.8929 66.4611C13.667 65.6847 14.576 64.3701 14.5873 63.6219C14.5819 63.9894 14.8386 63.8963 15.0982 63.7954C14.4428 63.4088 14.8449 62.6878 15.4254 62.3792L15.8421 62.6029L15.7249 61.9991C15.992 61.9143 16.6331 62.4248 16.6788 61.6802C16.5612 61.5393 16.449 61.3959 16.4197 61.2205C17.1379 60.9979 18.1737 60.7713 18.3705 60.0153L18.2771 59.1398C18.5358 58.9806 19.1675 58.909 18.9463 59.4157C19.4844 58.2993 20.009 57.7299 19.8862 57.044C22.3524 56.6684 24.6369 54.8196 26.4957 53.2336L26.2272 53.0063C26.5402 52.3462 26.865 53.2707 27.0772 52.8008C26.7052 52.6736 27.0288 51.9239 26.3779 51.9262C26.9007 51.0579 27.7085 51.6606 28.29 51.4103C28.6408 51.7166 27.7218 51.4784 28.1682 51.8643C28.3488 51.9304 28.9933 50.7905 29.5274 51.253C29.5565 50.8941 29.102 50.6033 28.8312 50.4552L29.4952 50.3687C29.5794 49.2999 27.336 50.1977 27.3353 48.9599L27.8341 48.7284C27.8101 47.8337 26.2011 48.9324 27.1329 47.9199C27.8101 47.8337 28.8089 48.3281 28.5729 48.8873C29.6667 48.308 30.01 49.8625 31.0265 49.0323C31.0688 48.4914 30.1293 49.5856 29.991 48.9786C30.155 48.166 31.1695 48.4837 31.4986 47.9986C31.159 48.5733 31.9904 48.8196 32.3858 48.6882C32.7307 48.0264 31.6502 48.4236 32.3668 47.8042C32.7307 48.0264 33.6148 47.7398 33.1663 48.4172C33.9847 48.9302 33.8194 47.6188 34.6533 47.8704C34.5227 47.1816 32.9878 47.2879 33.6407 46.4049C33.8747 46.9936 35.1814 46.2829 35.2826 47.3438C35.511 46.951 35.2504 46.5441 34.7856 46.4275C35.0296 45.7733 36.6107 46.4406 36.0312 45.3606L36.5734 45.7281C36.5972 45.4563 36.7193 45.1716 36.7511 44.7202C37.1577 44.3882 38.6118 44.3324 37.9896 43.624C38.1862 43.598 39.1011 42.8019 39.1411 43.6045C38.8031 44.3935 38.1679 43.7694 38.3887 44.7227C38.3617 43.8358 39.2953 44.1194 39.7928 44.0254L39.6199 43.695C39.9126 43.6374 40.3302 43.2025 40.708 43.3986C40.4205 43.3691 40.3436 43.105 40.4473 42.907L41.014 43.1588C42.0122 42.6825 40.5856 42.2498 41.4799 41.7044L40.5964 41.8798C40.7855 41.8377 40.7215 41.2222 41.2085 41.0353C41.6799 41.2923 42.356 41.5128 42.7421 41.6986C43.336 41.4751 42.5666 41.0958 43.3443 41.0997L42.3668 41.1429C42.1726 41.0896 42.2018 40.1833 42.791 39.6687C43.2759 39.4632 44.3526 39.4653 43.9497 40.2127C44.2511 39.949 44.454 39.3466 43.9715 39.2903C44.7503 38.805 44.2562 39.7772 45.0432 39.4641C45.0464 38.9934 45.4338 37.9599 45.5013 37.1922C45.1151 37.1889 44.7215 37.1696 44.3304 37.1556L44.7038 36.7803C43.7357 36.7734 44.5841 36.1712 43.808 35.9318C43.9792 35.5982 44.4514 35.4638 44.8253 35.3423C44.904 36.9025 46.7868 35.579 47.3337 36.5047C48.5652 35.5617 46.0909 34.1359 48.3243 34.0312C48.3663 34.4027 49.4499 34.3495 48.6035 34.8857C49.1215 34.0913 49.8255 35.0745 50.2136 33.9299C49.3615 34.2993 49.9462 32.5812 48.7165 33.1063C49.0373 33.2637 48.4985 33.7744 48.3033 33.8455C48.2452 33.299 47.4537 33.2232 48.0512 32.5157C48.4908 32.1423 48.9769 31.5322 49.3404 31.95C49.8 32.3363 48.7469 32.6099 49.4484 32.6884C50.3315 31.8941 49.7193 31.2072 50.853 31.4304C50.3577 31.9927 50.7213 32.4952 51.0608 32.7351C51.3095 32.5545 51.5504 32.371 51.7916 32.1744L51.371 32.0829C51.9574 30.7615 52.2046 32.1652 52.9118 30.9637L52.6072 29.9842C51.8822 29.8971 51.7339 31.7971 50.9698 30.9657C51.4409 30.2387 52.0688 30.2992 52.2765 29.4404C52.0962 29.5436 51.9397 29.7401 51.7569 29.8379C51.898 29.5378 50.8457 28.5208 52.21 27.9203C52.8139 27.5357 52.6318 27.9721 52.9964 28.1678C53.4025 27.5818 53.7612 27.259 54.0637 26.9556C54.3638 26.6469 54.628 26.3874 54.873 25.974C54.4681 25.8882 54.6354 25.5042 54.755 25.2141C54.859 24.9183 54.9148 24.7294 54.3371 25.0301C54.4472 25.3375 54.2514 25.9692 53.9175 26.5282C53.5911 27.1033 53.0707 27.5273 52.6202 27.5539C52.0493 26.6328 52.196 28.5784 51.196 28.3062C51.7657 27.3705 50.9058 26.9224 50.4667 26.468C50.5752 26.1961 50.9438 26.0771 51.1109 25.9735C51.6799 26.1461 51.477 26.4814 51.9864 26.7923C52.2302 26.236 52.534 25.7106 52.8904 25.2845C53.2547 24.8612 53.6613 24.5292 54.0458 24.3181C53.9494 23.8155 53.3623 23.7165 53.1277 24.1382C53.8687 22.8689 54.3576 21.3516 54.5437 19.9685C55.2117 21.0986 55.1761 18.5215 55.7695 19.3083C55.7755 20.094 56.2377 20.9353 56.7624 20.6331C56.8379 20.1354 56.3604 20.5394 56.2224 20.2842C56.8872 19.8062 55.6919 19.1553 56.5981 18.7478C56.309 19.4033 55.9972 19.3916 55.6867 19.2425C55.3763 19.0933 55.0358 18.7951 54.6538 18.829C55.2552 17.9895 54.1324 18.7452 54.3231 17.8356C54.9373 17.0096 55.4171 15.8941 55.6967 14.839C55.3815 14.1316 55.4877 13.3068 55.5517 12.4755C55.5955 12.0642 55.6633 11.6483 55.7195 11.2637C55.7547 10.8759 55.7759 10.5142 55.7608 10.2149C55.3446 9.61304 54.539 10.1108 54.3461 9.4704C54.2496 8.70059 55.3271 9.9405 54.7773 8.84017L54.6305 8.97346C54.702 8.79039 54.4788 8.28139 54.3907 7.76838C54.2761 7.25459 54.2519 6.72491 54.7957 6.40739L53.9934 6.9687C53.8667 6.77989 54.0219 6.5384 54.0752 6.34422C53.785 6.40723 53.4725 6.23949 53.3609 6.61713C52.9849 6.35498 52.9235 6.01201 52.9055 5.63591C52.8927 5.25732 52.9526 4.83852 52.8495 4.47583L53.5051 4.76458C53.5178 4.06141 53.2388 3.55873 52.9752 3.07502C52.8314 2.83546 52.7116 2.59131 52.56 2.34888C52.4083 2.10645 52.2678 1.84583 52.1524 1.54097L51.7127 1.82976L51.6203 1.01245C51.2882 1.42073 50.6378 1.04485 50.7651 0.490459C50.7696 0.879389 50.7827 1.24476 50.7583 1.62757C50.726 2.0075 50.6858 2.38456 50.6382 2.74553C51.1559 3.04617 50.9233 1.95502 51.5309 1.98583C51.7977 1.99885 52.0407 2.2836 52.1714 2.60741C52.2886 2.94406 52.2616 3.3215 52.0736 3.50649C51.8412 3.13212 51.9518 3.06127 51.9737 2.6731C51.267 2.86424 51.5647 3.44944 51.2332 3.92916C51.1733 3.71583 50.8532 3.532 51.0425 3.39201C50.8838 3.93491 51.0043 4.33514 51.2579 4.9799C51.3506 4.43509 51.7715 5.06088 51.9027 4.824C51.3176 5.10858 51.34 5.78897 51.7673 6.55514C52.1927 6.75524 52.1746 7.19377 52.097 7.67289C52.0381 8.14991 51.8239 8.68592 52.0111 9.15949C52.5835 8.67881 53.065 8.04475 53.1537 7.36493C53.6393 7.94764 53.2753 8.09051 53.7098 8.70348C53.2616 9.10047 52.6121 9.41492 52.3573 10.2566L52.8414 10.26C52.6384 11.0449 51.9764 11.0655 52.0947 11.9946C52.3783 13.603 52.1437 15.2889 52.0147 16.5283L52.4738 16.6606C51.8949 16.9163 51.6886 17.4551 51.539 18.0459C51.3634 18.6227 51.2312 19.251 50.8945 19.6354C50.8469 20.446 50.5007 21.2453 50.1163 21.906C49.9397 22.2421 49.7797 22.5575 49.694 22.8644C49.5876 23.1549 49.5555 23.437 49.6506 23.7122C48.0445 26.0673 46.3877 27.8919 44.6465 30.251L45.5045 30.3155C44.7666 30.3973 45.5897 30.8364 45.167 31.1759C45.125 30.3548 44.1537 31.2683 43.5829 31.2465C43.1097 32.587 41.4927 33.4156 40.3078 33.8548L40.6063 34.231C39.1384 34.3975 38.6338 35.909 37.5963 37.0031C37.594 37.2648 37.6767 37.7803 37.2964 38.0285C36.182 37.9592 35.8819 38.2679 34.6568 38.6345C33.9822 39.1757 32.9839 40.1995 32.4584 40.9777C29.1867 42.1182 26.8449 44.6583 23.646 46.2928L23.7897 46.8974C22.0693 47.4612 20.5348 48.6361 19.1252 49.8834C17.713 51.1253 16.4365 52.4346 15.1342 53.2671L16.0087 53.7605C15.5416 54.6225 14.3035 55.0733 13.9863 54.432C13.7588 54.883 13.2593 55.2256 12.8358 55.5915C12.4227 55.9657 12.0778 56.3604 12.1721 56.8445C11.6525 57.6917 11.0557 57.4734 10.41 58.0207C9.44456 59.8178 8.94214 60.3507 7.73699 61.842L7.94016 61.4088C8.24322 61.3594 8.5732 61.5646 8.37538 61.9953C8.07515 62.2194 7.78303 62.7981 7.48888 63.1758C7.20009 63.5509 6.93243 63.7468 6.60372 63.1369C6.49283 63.6706 6.26626 64.1798 5.98433 64.6821C5.83943 64.9318 5.68668 65.1787 5.52321 65.4305C5.37544 65.6881 5.22519 65.9403 5.07205 66.2003C4.77115 66.718 4.4781 67.2385 4.25899 67.7637C4.06343 68.2976 3.95752 68.8421 3.98129 69.385C3.75113 69.1138 3.50791 69.559 3.23433 69.686C2.59171 71.3919 2.67153 73.362 1.83309 74.6179C1.91919 74.9298 2.45861 74.308 2.31875 75.0181C2.10102 75.4059 1.91631 74.9377 1.61409 75.4103C1.04513 76.7692 0.898511 78.2514 0.948813 79.6943C0.95146 80.4164 0.983797 81.1183 1.02438 81.8098C1.05711 82.4984 1.04024 83.1644 0.973758 83.8079C0.180617 88.3923 0.883044 93.2211 1.66495 97.5046L1.87952 97.4051C1.60726 98.2092 1.99376 99.0138 2.35249 99.7727C2.72194 100.527 3.02897 101.244 2.53357 101.989C2.82695 102.27 3.01053 103.227 3.36004 102.857C3.23284 103.496 3.59444 104.247 4.00278 105.028C4.41648 105.807 4.79644 106.654 4.73256 107.57C4.65713 107.436 4.67056 107.338 4.70032 107.135C5.24354 107.828 5.48619 108.576 5.72309 109.339C5.97609 110.095 6.24728 110.862 6.8083 111.579C6.83021 111.373 6.77093 111.049 6.96023 110.909C7.6219 111.351 6.72556 112.777 7.89618 112.645C8.04721 112.998 7.5089 113.131 7.43369 112.898C9.44071 116.183 10.7658 120.078 12.6551 123.587C14.7357 125.625 14.3311 122.731 14.8238 125.057C15.106 125.089 14.5387 125.397 14.7479 125.3C14.9652 126.19 16.5238 125.727 16.3623 126.545C15.6613 126.721 16.2617 127.087 15.9264 127.334C17.2681 128.497 17.9552 128.432 18.3086 129.826L18.5447 129.534C18.6218 131.414 20.1436 132.571 19.9991 134.339C22.5164 137.909 24.9792 141.347 27.4425 144.772C29.9247 148.182 32.4349 151.539 35.1254 154.794C40.7057 161.001 45.7925 167.438 52.0884 173.151C54.145 173.93 54.218 174.059 55.4606 175.894C55.5106 175.72 55.4373 175.605 55.6409 175.608C55.1651 176.226 56.6657 176.748 56.2784 177.417C57.4299 178.479 58.4695 179.567 59.5112 180.674C60.564 181.762 61.6135 182.872 62.7602 184.008C62.455 183.589 62.7169 182.959 63.1134 183.42L63.217 184.219L63.439 184.136C63.6504 184.507 63.7098 185.099 63.2292 184.976C68.5731 191.124 75.4932 195.4 81.318 200.758C82.9476 201.755 84.765 203.746 86.2311 205.177C91.5064 208.34 96.2701 211.088 100.628 215.478C100.628 215.478 101.237 213.403 99.5555 211.466L99.5674 211.422Z" fill="#BFD6E5"/>
</svg>
