<svg width="210" height="58" viewBox="0 0 210 58" fill="none" xmlns="http://www.w3.org/2000/svg">
<path d="M208.104 13.5349C207.552 14.1727 206.811 14.5535 206.022 14.9009C205.621 15.058 205.196 15.1627 204.771 15.277C204.554 15.3246 204.337 15.3769 204.12 15.4293C203.903 15.4721 203.676 15.4959 203.454 15.5292C201.67 15.8243 199.852 15.8101 198.2 16.3527C197.808 16.4193 198.28 15.5578 197.407 15.7577C195.811 16.3527 193.678 16.3574 191.539 15.9481C189.391 15.5435 187.238 14.7582 185.444 13.8729L185.723 13.7063C185.039 13.3969 183.99 13.8681 183.245 13.5778C183.278 13.4302 183.542 13.435 183.419 13.1922C183.112 13.5825 181.998 13.0018 181.583 13.2351C181.333 12.978 181.46 12.6496 181.134 12.3402L180.554 12.6972C178.986 13.4968 177.665 11.6834 175.838 11.7167C175.956 11.631 176.145 11.5977 176.055 11.4454C173.194 11.2407 169.974 9.90327 166.967 9.1322C167.142 9.00368 167.359 8.72762 167.255 8.47536C166.934 8.93229 165.985 8.74666 165.169 8.58007C164.989 7.92799 163.663 8.60863 162.837 8.01367L162.955 7.92323C162.1 8.25165 162.039 7.28543 161.279 7.77568L160.972 7.22356C160.453 7.8804 160.089 6.54768 159.409 6.76187L159.386 6.9237C158.8 6.9475 158.621 6.50484 158.088 6.49532L158.064 6.39537C156.846 6.27638 156.256 5.71473 156.147 6.3097C155.845 5.73853 157.337 6.36205 156.855 5.51959C152.819 5.16737 148.802 4.50101 144.784 4.48197C144.331 4.23923 144.038 4.16783 143.935 3.93937C143.533 4.07264 142.415 4.04408 142.065 4.40582C142.197 4.38678 141.791 4.11072 141.574 4.09644C140.824 3.91557 140.824 4.81991 140.002 4.60573C140.304 4.4201 140.399 4.22019 140.276 4.00124C139.625 4.50101 138.713 4.55337 137.93 4.81039C138.043 4.6914 138.227 4.60573 138.175 4.4201C137.769 4.74376 137.368 4.76755 136.971 4.76755C136.575 4.75804 136.188 4.74376 135.839 4.99126L136.07 4.59145C134.762 4.40582 135.829 5.38632 134.729 5.33872C134.96 5.18165 134.847 5.06266 134.866 4.91511C134.432 5.33396 133.799 5.53387 133.176 5.74329C132.553 5.95748 131.916 6.11455 131.458 6.34301C131.505 6.28114 131.462 6.1907 131.462 6.1907C131.203 6.27638 130.938 6.34777 130.665 6.40965C130.395 6.48105 130.126 6.56196 129.853 6.64288C129.305 6.80946 128.753 7.00461 128.224 7.31399C127.761 7.30923 128.082 6.42869 127.03 6.95226C127.303 7.60433 125.288 7.92323 126.203 8.42776C125.731 8.55627 125.089 8.65623 124.537 8.87041C123.975 9.06556 123.47 9.28451 123.22 9.52725C123.517 9.09888 122.427 8.93705 123.154 8.54675L122.403 8.41348C122.37 8.11362 123.036 8.23737 122.705 7.98511C122.516 8.08506 122.172 8.32305 121.827 8.542C121.478 8.75618 121.152 8.99417 120.959 9.02272C120.463 9.77952 120.194 10.7886 119.174 11.4692C119.538 10.9314 118.513 10.9599 118.792 10.6505C118.509 11.3407 118.244 12.0261 117.989 12.702C117.659 12.9352 117.626 12.2688 117.215 12.7305C117.342 12.8781 117.177 13.097 117.111 13.3255C116.941 13.3445 115.822 14.4107 115.284 13.9395C114.982 13.8157 115.756 13.4445 115.242 13.4921C114.619 13.93 114.713 14.1251 114.113 14.5868L114.047 14.5202C113.589 14.7439 113.056 15.653 113.717 15.6292C114.005 15.4388 113.363 15.3769 113.887 15.2246C113.849 15.7625 113.235 16.3765 112.65 16.8334C112.782 16.5906 112.641 16.4669 112.603 16.2479C112.362 16.7572 112.102 17.2475 111.791 17.6996C111.484 18.1518 111.144 18.5802 110.799 19.0276C111.007 19.2846 110.71 18.3089 110.951 18.3327C110.611 18.485 110.309 18.6992 110.072 18.9752C109.836 19.2513 109.629 19.5607 109.426 19.8558C109.02 20.4555 108.609 20.9838 107.962 21.1933C108.052 21.0076 108.373 21.4408 108.297 21.3837C107.802 21.8596 107.471 21.5122 107.297 21.9643C107.056 21.8025 106.98 22.4451 106.74 22.8544C106.735 23.1685 106.555 22.8544 106.801 22.526C106.537 23.1638 105.191 25.4246 103.921 26.3575C104.082 26.4527 103.86 27.5189 103.624 27.7807L103.374 27.3999C102.972 27.4856 102.661 28.3471 102.34 28.1567C102.274 29.0753 103.813 25.615 103.487 26.6669C103.043 26.6384 103.133 28.2043 102.812 27.6617C102.378 28.2233 102.326 29.0706 101.58 29.3419C101.759 29.2324 101.481 28.5089 101.141 28.9754C100.56 29.8131 101.122 29.3323 100.711 30.0606L100.518 30.5746C100.82 30.8745 99.8897 31.241 100.494 31.2553C100.154 31.1268 99.6867 32.5404 99.2288 31.9978L98.9078 31.5266C98.6529 31.8883 98.8748 32.4595 98.8276 32.8878C98.752 32.8974 98.5868 32.9116 98.5349 32.8355C99.1108 33.4542 97.7748 33.5875 97.8881 34.4252C97.4538 34.6727 97.0337 35.1059 96.6324 35.4724C96.217 35.8293 95.8251 36.1197 95.4853 36.0864C95.1454 36.786 94.8196 37.4619 94.0737 37.8903C94.154 37.7237 94.3051 37.5428 94.2248 37.3762C93.6772 37.5428 93.7055 37.7808 93.4175 38.1997C93.4175 38.0331 92.294 38.4995 91.6378 38.5804C91.1988 39.2135 91.6567 39.4419 91.7606 39.7132C91.2507 39.58 90.8919 39.975 90.5001 40.3939C90.1177 40.8175 89.6976 41.2601 89.1311 41.1412C89.3105 40.9127 89.8722 40.2368 89.2302 40.3701C88.7345 40.1797 88.5221 40.4748 88.2719 40.8413C88.0217 41.2078 87.7243 41.6504 87.1342 41.6933L87.6676 42.2121C87.3513 42.1264 87.0067 42.3834 86.7093 42.5738C86.4119 42.7594 86.1664 42.888 86.105 42.531C85.8265 42.907 84.7502 42.7404 85.0618 43.3497C84.0515 43.3497 82.9185 43.6781 81.795 43.7542C81.2379 43.8066 80.695 43.7828 80.2371 43.6686C80.0058 43.6114 79.7934 43.54 79.6093 43.4353C79.4251 43.3211 79.2646 43.1831 79.1372 43.0165C78.9956 43.0546 78.7595 43.0308 78.5707 43.0308C78.3819 43.0212 78.2355 43.0546 78.278 43.2402C78.6745 43.7114 78.9578 43.0641 79.09 43.3497C78.8398 43.3401 78.7595 43.5162 78.7217 43.6067C78.1316 43.3639 77.6926 43.2021 78.3441 42.769C78.0467 42.6024 77.8012 42.5786 77.5746 42.6119C77.3527 42.6357 77.1403 42.7309 76.909 42.8261C76.451 43.0212 75.9129 43.1831 75.1481 42.7404C75.3228 42.5119 75.2472 42.3644 74.7752 42.2026C74.4164 42.2264 74.0765 42.2168 73.7177 42.2121C72.7924 41.5838 73.4911 41.3506 73.6894 40.9317C73.4345 40.8175 73.1512 40.689 72.901 40.5748C72.6508 40.4653 72.4148 40.4034 72.2071 40.4748C72.1268 40.1845 72.0654 39.8941 72.0088 39.599C72.141 40.2368 71.4801 39.5609 71.2015 39.4895L71.4753 39.5562C71.5084 39.342 70.9561 39.0374 70.6728 38.8803C70.5453 39.1468 70.9608 39.6656 71.2015 39.9465C70.838 39.9465 70.5406 39.6133 70.0874 39.5609C70.4698 39.2896 69.6201 38.7185 69.3321 38.3853C69.0394 37.9712 68.6429 38.2996 68.5437 38.1854C68.6948 38.0045 67.9961 37.5857 68.5013 37.619C68.6712 37.6856 68.6145 38.0569 68.9639 38.0997C68.8506 37.7427 69.1622 37.4714 68.4824 37.2144C67.9678 37.0145 67.9206 37.9569 67.4627 37.0573C67.7176 37.162 67.8828 37.0669 68.1377 37.0859C67.982 36.8194 67.8403 36.5433 67.694 36.272L67.3635 36.5338C67.3588 36.3719 67.4438 36.41 67.4438 36.3291C66.9339 36.4433 66.4288 35.4248 65.9284 35.6056C65.598 35.2962 65.5272 34.706 65.2911 34.3538L65.3714 34.3919C65.2203 33.8398 64.6632 33.4257 64.1676 33.2829L64.2525 33.2401C64.1015 33.0068 63.6247 32.5451 63.2187 32.4404C63.0157 31.7027 64.2809 31.2267 63.3839 30.984C62.9213 30.4556 62.0904 30.646 62.0668 31.0363C61.4673 29.8845 60.0416 29.2943 59.7584 28.033C59.5176 28.0234 59.5129 28.1757 59.1966 27.9806C58.6443 27.2857 57.9078 26.7193 57.2469 26.1767C56.5813 25.6341 56.0053 25.101 55.7174 24.3727C56.2178 24.5155 55.9959 24.0538 56.1281 23.8492C55.5757 23.9158 55.9534 23.2304 55.4624 23.6778C55.2783 24.0158 55.1414 24.149 55.4294 24.5489C54.9762 24.3299 54.438 24.0538 53.9801 23.7397C53.508 23.4494 53.1209 23.1162 52.951 22.8449C53.1162 23.1209 52.8707 23.1352 52.6347 23.1447C52.9699 22.6355 52.3514 22.2071 51.7566 22.2071L51.5442 22.5212L51.3601 22.0262C51.1146 22.0643 50.8738 22.6831 50.4915 22.1642C50.5103 22.0215 50.5292 21.8691 50.4679 21.7359C49.8211 21.8453 48.9572 22.1309 48.4379 21.7026C48.3152 21.4884 48.1877 21.2694 48.0555 21.0648C47.777 21.0743 47.2908 21.3218 47.7156 21.555C47.2341 21.2932 46.814 21.1457 46.4835 20.9981C46.1531 20.841 45.9076 20.6935 45.7565 20.446C44.7746 20.922 43.6605 21.2123 42.5086 21.4027C41.3567 21.5883 40.1671 21.7359 39.0908 21.8644L39.1096 21.5788C38.4865 21.4217 38.8925 22.1119 38.4582 21.9881C38.5998 21.693 37.9106 21.4979 38.3071 21.0981C37.4054 20.9791 37.3205 21.7835 36.8153 22.0357C36.8153 22.4118 37.193 21.7026 37.193 22.1833C37.1316 22.3308 35.9892 22.1833 36.0034 22.7497C35.7437 22.5974 35.8004 22.1595 35.857 21.912L35.4227 22.3118C35.0309 22.0833 35.3047 21.7121 35.5785 21.3123C35.8523 20.922 36.1403 20.5222 35.706 20.2175C35.5502 20.2842 35.3944 20.3508 35.2386 20.427C34.6202 19.9843 36.381 19.456 35.0875 19.5845C34.6155 19.9986 34.3889 20.8934 34.9176 21.0029C33.8743 21.4503 34.7807 22.4165 33.643 22.7164C33.237 22.5022 34.521 22.3642 34.1717 21.9929C33.5014 21.7311 33.1709 22.5688 32.6516 22.5879C33.2417 22.6069 32.9774 23.2875 32.6799 23.497C32.0285 23.4494 32.8735 22.8687 32.0521 23.1067C32.0238 23.4589 31.3817 23.9539 32.0851 23.9253C32.0521 24.7059 31.1929 24.0443 30.971 24.744C30.5225 24.3775 31.3581 23.3209 30.3856 23.4351C30.7019 23.8301 29.5642 24.4965 30.3007 24.9772C29.9136 24.9915 29.7247 24.6488 29.8569 24.268C29.2479 24.2014 29.0497 25.596 28.4973 24.7821L28.5398 25.3152C28.3227 25.2342 28.0583 25.22 27.6995 25.0915C27.2699 25.2914 26.6515 26.3623 26.3541 25.6721C26.255 25.8102 25.2919 26.2719 25.9009 26.5479C26.6279 26.5289 26.4013 25.8578 27.0433 26.3242C26.373 26.0196 26.2361 26.824 25.9953 27.1714L25.8065 26.943C25.6601 27.1524 25.1739 27.3476 25.2069 27.6903C25.2778 27.4618 25.1031 27.3285 24.9095 27.3523L24.919 27.8568C24.2345 28.5042 24.3478 27.2809 23.6349 27.8426L24.0551 27.2C23.9607 27.338 23.4886 27.1286 23.1817 27.4713C23.2431 27.9092 23.2195 28.4899 23.262 28.8373C22.9268 29.2467 22.8324 28.5565 22.6294 29.1753C22.7238 28.9183 22.8277 28.666 22.9268 28.4185C22.941 28.2519 22.1998 28.0663 21.6286 28.447C21.3312 28.7945 21.0904 29.6608 21.7797 29.4751C21.5011 29.6655 20.9724 29.7179 21.0338 29.3228C20.4673 29.8654 21.3548 29.637 20.9394 30.2081C20.5664 30.132 19.6364 30.2938 18.9897 30.27L19.1927 29.3038L18.7961 29.5656C18.9944 28.7659 18.3052 29.399 18.2674 28.7279C17.9511 28.8421 17.7339 29.2324 17.564 29.5323C18.8575 29.7369 17.4271 31.1743 18.1446 31.6979C17.2619 32.6261 16.2894 30.527 16.0203 32.3881C16.3224 32.4262 16.2233 33.3162 16.7001 32.6356C16.025 33.0449 16.7945 33.6256 15.8692 33.9207C16.1808 33.221 14.7693 33.7208 15.2272 32.7022C15.3452 32.964 15.7937 32.5261 15.8692 32.3643C15.416 32.3119 15.4066 31.6551 14.7646 32.1644C14.4294 32.5451 13.9101 32.9926 14.2642 33.2639C14.5852 33.6208 14.8165 32.7451 14.8779 33.321C14.2264 34.0682 13.6457 33.6304 13.8865 34.5347C14.3067 34.0825 14.741 34.3633 14.944 34.6204L14.5427 35.2296L14.4388 34.9012C13.4427 35.4676 14.571 35.558 13.7166 36.2101L12.9235 36.0911C12.7346 35.5057 14.25 35.2011 13.5183 34.668C12.966 35.1297 13.084 35.6104 12.4514 35.9102C12.508 35.7532 12.6402 35.5961 12.6921 35.4343C12.4986 35.5866 11.4883 34.9107 11.2381 36.1387C11.0588 36.7051 11.3656 36.4624 11.5875 36.7051C11.2193 37.143 11.054 37.4905 10.9171 37.7951C10.7802 38.095 10.6716 38.352 10.4639 38.6423C10.0768 38.1045 9.59059 39.5657 9.60947 38.5328C10.1288 38.49 11.1721 37.262 11.0351 36.5433C10.1996 36.3101 11.7338 35.9674 11.3892 35.2439C10.7047 35.8865 10.2137 35.3343 9.7511 35.0963C9.53866 35.2677 9.5009 35.5961 9.45369 35.7675C9.71333 36.172 9.93993 35.9103 10.2987 36.2291C9.48673 36.905 9.01465 37.8522 9.00521 38.5709C8.61811 38.6947 8.3207 38.3187 8.5473 37.9617C7.85806 39.0136 7.03665 40.0369 6.28132 40.9555C7.31045 40.7271 5.75259 42.1597 6.55513 42.0503C7.02248 41.6124 7.74004 41.4696 7.85334 41.936C7.6173 42.2264 7.57954 41.7456 7.36238 41.7932C7.47096 42.4168 6.3899 42.0836 6.73452 42.8213C7.06025 41.7694 6.04528 42.1645 5.63457 41.6933C5.52127 42.5738 5.28996 41.4458 4.88869 42.1645C4.76595 43.045 4.58656 44.0636 4.35996 44.9346C4.11448 45.1345 3.95397 45.4201 3.80291 45.7247C3.65184 46.0294 3.56215 46.3768 3.49606 46.7195C3.34027 47.4097 3.33555 48.1094 3.22225 48.5948C2.83043 49.047 2.24505 48.5568 2.01845 49.1136C1.90043 49.7943 2.82099 48.7424 2.33475 49.6896L2.21673 49.5706C2.27338 49.7372 2.09871 50.1798 2.01845 50.6415C1.95236 51.1032 2.01845 51.5792 2.47637 51.7553L1.77769 51.3935C1.69744 51.5792 1.8485 51.7696 1.90987 51.9314C1.67384 51.9266 1.44724 52.1408 1.31506 51.8172C0.79577 52.4454 1.34338 53.188 1.40947 53.8733L1.81546 53.4117C2.00901 53.9923 1.99957 54.4731 2.01845 54.9538C2.02317 55.1965 2.01373 55.4393 2.03734 55.6868C2.07038 55.9343 2.11759 56.1913 2.20256 56.4626L1.78713 56.5102C1.90515 56.7196 2.03262 56.9243 2.17424 57.1195C1.73993 57.0481 1.64079 57.7335 2.05622 58C1.58414 57.5145 1.07902 57.0005 0.654146 56.4388C0.805211 55.8867 1.24897 56.9053 1.5983 56.5055C1.74937 56.3389 1.75409 56.0057 1.66439 55.6915C1.58886 55.3774 1.43308 55.0823 1.22064 55.0157C1.22064 55.4345 1.30561 55.4488 1.50389 55.7391C0.937393 55.9629 0.885465 55.3298 0.470036 55.0442C0.517244 55.2679 0.37562 55.6106 0.564452 55.6344C0.399224 55.4345 0.290646 55.2156 0.215114 54.9586C0.13486 54.7015 0.0923731 54.3969 0.0782108 54.0209C0.328412 54.5159 0.427549 53.7258 0.602218 53.9114C0.0876523 53.8829 -0.115341 53.1546 0.0640484 52.2265C0.356737 51.9028 0.304808 51.4792 0.19623 50.9795C0.07349 50.4797 -0.0303672 49.918 0.120698 49.3945C0.583335 49.9133 0.890186 50.4987 1.06485 51.1413C1.37171 50.5273 1.12622 50.4226 1.47084 49.8228C1.12622 49.4563 0.578614 49.1374 0.521964 48.2236L0.904348 48.2569C0.880744 47.4525 0.337854 47.305 0.706075 46.3483C1.37171 44.7252 2.0515 43.0831 2.70297 41.9313L3.06647 42.0598C2.85403 41.5457 3.09951 40.9746 3.39692 40.3986C3.71793 39.8418 4.09088 39.2849 4.22778 38.7803C4.84148 38.1854 5.30412 37.4048 5.76203 36.7337C6.21051 36.0626 6.6637 35.52 7.18771 35.4152C8.90135 33.0402 10.6197 31.0696 13.0556 29.3086L13.0084 30.0606C13.1737 29.4037 13.4805 30.0987 13.8346 29.7131C13.0887 29.7322 14.047 28.804 14.1461 28.309C15.4632 27.8521 16.5726 26.4861 17.3374 25.5008L17.5876 25.7959C18.1824 24.5251 19.745 24.2633 21.081 23.616C21.3076 23.6635 21.723 23.8492 22.0818 23.5922C22.4783 22.645 22.8702 22.4831 23.7482 21.5788C24.5224 21.1647 25.8679 20.684 26.7742 20.5412C28.0866 19.4655 29.6209 18.7563 31.2165 18.1709C32.8121 17.5807 34.4644 17.1094 36.1214 16.4716L36.466 16.8619C38.0191 16.029 39.9405 15.7196 41.8099 15.6482C43.6888 15.5721 45.4969 15.7339 47.0311 15.6673L46.6582 16.405C47.1019 16.5859 47.6307 16.5859 48.0319 16.505C48.4332 16.4241 48.7164 16.2241 48.6456 15.9338C49.5331 16.3098 51.091 16.0956 51.497 16.8953C51.9455 17.0952 52.2476 17.1332 52.5544 17.1047C52.8566 17.0904 53.1634 17.0238 53.5647 17.1428C55.2972 18.1947 55.9534 18.4802 57.6246 19.3703L57.2611 19.0752C56.9967 19.1085 56.8126 19.3798 57.1714 19.6702C57.8889 19.8463 59.1069 21.3027 59.1116 20.1509C59.7395 20.9743 60.6836 21.6169 61.5523 22.3308C62.4209 23.0353 63.2376 23.7825 63.5869 24.6964C63.6672 24.4108 64.0118 24.7154 64.2667 24.744C65.3808 25.953 66.0653 27.5665 67.1889 28.2471C67.2502 28.5184 66.6082 28.2233 66.9953 28.7279C67.3116 28.9563 67.2502 28.5232 67.6562 28.785C69.6201 30.408 70.5029 32.9212 72.1032 34.311C73.6044 35.4295 75.0301 36.51 76.4652 37.2287C77.1828 37.5904 77.8956 37.8855 78.6179 38.0616C79.3402 38.2377 80.0719 38.3187 80.7989 38.3139L80.7658 38.4995C81.2379 38.1473 81.7808 38.2853 82.3615 38.3234C82.9327 38.3615 83.5228 38.2996 83.7541 37.6571C84.0373 37.7618 84.6699 37.4191 84.6227 37.8189C84.9343 37.4333 85.5244 37.3048 86.1711 37.0859C86.8132 36.8765 87.5024 36.5528 87.8895 35.915C87.7762 35.9674 87.7384 36.034 87.6629 36.1815C87.9981 36.0864 88.3002 35.9483 88.5787 35.777C88.8478 35.5913 89.098 35.3819 89.3482 35.1725C89.5984 34.9631 89.8534 34.7489 90.113 34.5299C90.3774 34.3158 90.6748 34.1301 91.0147 33.9588C90.958 34.1206 90.7786 34.33 90.8636 34.5061C91.5481 34.4157 91.3593 33.0163 92.1996 33.478C92.4403 33.2496 92.0721 32.9926 91.9399 33.1449C93.2476 32.1548 94.3995 30.8555 95.4616 29.4466C96.5285 28.033 97.5152 26.4956 98.5821 25.0201C100.636 23.3161 99.8425 25.8483 100.631 23.8111C100.872 23.7873 100.442 23.497 100.607 23.5922C100.924 22.8068 102.17 23.2542 102.165 22.5212C101.599 22.3499 102.165 22.0357 101.929 21.8073C103.256 20.7792 103.841 20.8648 104.393 19.613L104.54 19.8796C104.955 18.1756 106.56 17.2332 106.862 15.6197C109.973 12.583 113.33 9.92707 116.936 7.69001C120.538 5.45771 124.386 3.63951 128.455 2.36391C132.515 1.24062 136.617 0.431471 140.8 0.12685C144.973 -0.18253 149.25 0.0602146 153.423 1.00739C154.344 1.54048 154.816 1.8451 155.349 2.00217C155.883 2.15448 156.454 2.20208 157.535 2.30203C157.422 2.40199 157.285 2.39723 157.398 2.54478C157.653 1.95457 158.871 2.8494 159.216 2.33059C162.162 3.23493 164.876 3.93937 167.789 4.94842C167.307 4.85323 166.911 5.2578 167.472 5.40535L168.171 5.22925L168.209 5.42439C168.61 5.46723 169.115 5.31968 168.799 4.99602C176.248 7.05221 182.603 10.9361 189.575 11.969C191.171 12.5259 193.55 12.5544 195.311 12.5021C197.898 13.0351 200.424 13.2779 202.911 13.0209C205.39 12.7686 207.835 11.9975 209.997 10.5268C209.997 10.5268 210.035 10.9552 209.827 11.5549C209.62 12.1546 209.157 12.959 208.128 13.5397L208.104 13.5349Z" fill="#FBECAB"/>
</svg>
