<svg width="96" height="223" viewBox="0 0 96 223" fill="none" xmlns="http://www.w3.org/2000/svg">
<path d="M103.657 4.89734C102.579 5.95976 101.31 6.78933 99.933 7.51702C98.5848 8.30292 97.1126 8.98695 95.6113 9.64914C94.1464 10.3768 92.6596 11.1045 91.2385 11.8977C89.8537 12.7491 88.5565 13.6951 87.456 14.7793C86.9094 15.2378 86.9458 13.6369 85.7652 14.7793C84.7886 15.98 83.5132 17.0861 82.143 18.265C81.458 18.8544 80.7292 19.4365 79.9712 20.0041C79.585 20.2879 79.1987 20.5717 78.8051 20.8555C78.4189 21.1466 78.0253 21.445 77.6391 21.7433C76.8447 22.3255 76.0357 22.9003 75.2049 23.4607C74.3886 24.0428 73.5724 24.6177 72.7634 25.1926C71.9544 25.7674 71.1163 26.2986 70.3292 26.859C69.5494 27.4266 68.7696 27.9723 68.0116 28.489L68.0772 27.9359C67.5014 28.3362 67.1152 29.0347 66.7362 29.7479C66.3791 30.4756 66.0366 31.2251 65.4827 31.7126C65.3078 31.5671 65.5556 31.145 65.0964 31.1887C65.3588 31.9309 63.5441 33.3427 63.5368 34.1577C62.9683 34.4269 62.5893 34.0267 61.8824 34.4124L61.948 35.5621C61.9334 37.0539 60.9933 38.0726 60.0021 39.2078C59.4919 39.7681 58.9453 40.3285 58.457 40.947C57.9615 41.5583 57.5315 42.235 57.3055 43.0282C57.24 42.8026 57.3055 42.4606 57.014 42.5697C55.0025 47.3216 51.6938 52.6264 49.6896 57.8803C49.5365 57.5601 49.1648 57.1599 48.7421 57.32C49.0555 57.6183 49.0774 58.1859 48.9535 58.8481C48.8952 59.1829 48.7932 59.5394 48.6911 59.9033C48.5964 60.2744 48.4871 60.6528 48.385 61.0094C47.3501 61.315 48.0935 63.6654 47.044 65.1135L46.9201 64.9098C47.321 66.4379 45.7905 66.5471 46.4391 67.886L45.5281 68.4391C46.4464 69.3414 44.3621 70.0327 44.6244 71.2407L44.8722 71.277C44.8576 72.3249 44.1288 72.6597 44.0487 73.6056L43.8883 73.6566C43.6333 75.8542 42.6931 76.9385 43.6041 77.1058C42.6931 77.6734 43.7936 74.9664 42.4453 75.8688C41.5853 83.1384 40.3391 90.4516 40.0621 97.7358C39.6321 98.5435 39.5374 99.0747 39.173 99.2494C39.3552 99.9843 39.3188 102.007 39.7925 102.67C39.7779 102.422 39.3042 103.143 39.2677 103.535C38.9689 104.882 40.3537 104.962 39.9893 106.424C39.7196 105.857 39.4062 105.668 39.071 105.879C39.4572 106.49 39.6394 107.21 39.7633 107.96C39.8799 108.709 40.0111 109.481 40.1787 110.208C40.0038 109.997 39.8799 109.648 39.5884 109.728C40.565 111.256 39.6394 112.675 40.3464 114.021L39.7415 113.556C39.3989 115.892 40.9513 114.087 40.8347 116.074C40.6014 115.63 40.412 115.826 40.186 115.768C40.8128 116.612 41.0897 117.769 41.3958 118.933C41.6946 120.09 41.9206 121.262 42.2485 122.121C42.1538 122.026 42.0153 122.084 42.0153 122.084C42.234 123.052 42.4526 124.042 42.6785 125.053C42.919 126.065 43.1814 127.091 43.6551 128.088C43.6478 128.91 42.3141 128.175 43.0939 130.154C44.1143 129.783 44.5224 133.458 45.3459 131.908C45.6885 133.654 46.2569 136.449 47.0513 137.409C46.3735 136.805 46.1403 138.712 45.5136 137.344L45.3168 138.646C44.8431 138.646 45.0325 137.497 44.639 138.035C44.7993 138.384 45.1637 139.039 45.5354 139.68C45.9144 140.32 46.2569 140.953 46.3152 141.302C47.4667 142.336 49.1648 142.94 50.2799 144.846C49.4053 144.119 49.5074 145.923 49.0045 145.378C50.1269 145.981 51.2201 146.564 52.3205 147.102C52.7433 147.699 51.6646 147.67 52.4663 148.434C52.6849 148.237 53.0712 148.543 53.4356 148.696C53.4429 149.023 55.3086 151.068 54.6236 151.934C54.4632 152.443 53.7563 151.068 53.9093 151.956C54.6891 153.091 55.0244 152.916 55.8698 153.986L55.7751 154.095C55.9864 154.503 56.482 154.961 56.9047 155.172C57.3347 155.376 57.6991 155.318 57.6043 154.772C57.2545 154.263 57.2472 155.361 56.9339 154.437C57.772 154.575 58.9453 155.594 59.8053 156.598C59.3826 156.373 59.2077 156.598 58.8579 156.664C59.7397 157.093 60.6143 157.523 61.416 158.054C62.2031 158.592 63.0266 159.109 63.872 159.618C64.2364 159.262 62.7132 159.822 62.6768 159.422C63.0266 159.975 63.493 160.426 64.0032 160.819C64.5061 161.219 65.111 161.489 65.6576 161.794C66.2188 162.078 66.7289 162.413 67.2245 162.711C67.7128 163.024 68.1209 163.402 68.4197 163.904C68.0845 163.795 68.653 163.199 68.5947 163.33C69.5421 164.05 69.134 164.632 69.9648 164.778C69.819 165.192 70.9049 165.134 71.6556 165.403C72.1585 165.323 71.7504 165.695 71.109 165.396C71.6702 165.549 73.0695 165.847 74.5417 166.364C76.0576 166.764 77.6901 167.339 78.7979 167.907C78.8343 167.608 80.4668 167.194 80.9988 167.259L80.6927 167.892C80.9187 168.118 81.3924 168.176 81.8151 168.227C82.2378 168.263 82.6095 168.322 82.6386 168.605C82.9593 168.423 82.8208 168.358 82.4637 168.351C82.1066 168.351 81.5236 168.394 80.9551 168.409C80.3793 168.445 79.8182 168.445 79.5121 168.423C79.1987 168.402 79.1477 168.372 79.585 168.292C79.7453 168.613 80.3648 168.46 80.8676 168.292C81.3705 168.132 81.7568 168.009 81.5381 168.438C82.1139 168.482 82.6969 168.329 83.2581 168.241C83.8193 168.125 84.3586 168.132 84.9198 168.416C84.6064 168.329 83.9723 169.355 84.9343 169.289C86.6252 169.093 85.4081 168.984 86.7418 168.642L87.558 168.292C87.5362 167.637 89.0302 168.161 88.316 167.536C88.6148 168.067 90.568 166.786 90.6409 167.856L90.5971 168.736C91.3113 168.496 91.5591 167.587 91.9891 167.07C92.0984 167.121 92.3244 167.23 92.3317 167.368C92.2078 166.728 92.6159 166.633 93.1261 166.546C93.6289 166.437 94.2411 166.32 94.4525 165.709C95.2177 165.636 96.0923 165.287 96.8721 164.96C97.6519 164.639 98.3515 164.363 98.8617 164.538C99.6634 163.599 100.261 162.682 101.442 162.122C101.31 162.369 101.055 162.616 101.157 162.886C102.032 162.689 102.017 162.311 102.447 161.67C102.447 161.801 102.877 161.685 103.439 161.496C103.992 161.299 104.67 161.001 105.173 160.841C105.691 159.72 104.896 159.546 104.663 159.174C105.078 159.211 105.377 159.043 105.603 158.76C105.829 158.476 106.026 158.119 106.164 157.719C106.31 157.326 106.47 156.94 106.667 156.613C106.857 156.286 107.119 156.031 107.542 155.914C107.498 156.315 107.199 157.624 107.972 157.006C108.38 156.955 108.613 156.78 108.744 156.54C108.861 156.286 108.875 155.965 108.883 155.623C108.89 155.281 108.883 154.917 108.926 154.561C108.97 154.204 109.131 153.87 109.407 153.542C109.028 153.542 108.664 153.528 108.278 153.499C108.722 153.309 108.766 152.705 108.839 152.24C108.875 151.767 108.919 151.417 109.422 151.636C109.233 151.053 110.165 149.896 109.131 149.882C109.772 148.732 109.743 147.153 109.612 145.749C109.502 145.035 109.458 144.351 109.502 143.726C109.488 143.107 109.612 142.525 109.961 141.994C109.743 141.652 109.524 140.706 109.101 141.062C108.941 141.455 109.116 141.615 109.291 141.739C109.451 141.863 109.626 141.943 109.458 142.11C109.349 141.79 109.065 141.797 108.912 141.812C108.854 140.99 108.693 140.327 109.779 140.786C109.743 139.782 109.189 139.454 108.496 139.178C108.161 139.032 107.819 138.887 107.52 138.639C107.374 138.515 107.236 138.363 107.112 138.181C106.973 137.999 106.842 137.788 106.733 137.511C107.155 137.38 107.199 137.147 106.776 136.594C106.558 136.478 106.346 136.354 106.121 136.245L105.428 135.939C104.656 134.637 105.676 134.644 106.23 134.178C105.938 133.865 105.596 133.523 105.253 133.262C104.918 133 104.583 132.818 104.255 132.854C104.255 132.388 104.233 131.923 104.182 131.464C104.269 132.461 103.351 131.282 102.936 131.129L103.351 131.282C103.439 130.955 102.6 130.373 102.134 130.14C102.032 130.351 102.156 130.642 102.324 130.955C102.484 131.275 102.717 131.602 102.863 131.835C102.324 131.777 101.915 131.239 101.216 131.173C101.821 130.766 100.487 129.892 99.9841 129.434C99.4375 128.852 98.8909 129.434 98.7232 129.288C98.92 128.975 97.7321 128.502 98.5192 128.43C98.8034 128.488 98.8034 129.077 99.35 129.07C99.0876 128.553 99.5103 128.044 98.3515 127.818C97.4697 127.68 97.7539 129.099 96.7117 127.92C97.1417 127.986 97.3604 127.782 97.7612 127.731L96.7263 126.647L96.3401 127.171C96.2599 126.923 96.3984 126.945 96.3692 126.829C95.6477 127.214 94.3286 125.941 93.6872 126.479C93.0095 126.232 92.5139 125.424 91.9163 125.053H92.062C91.4352 124.376 90.2692 124.165 89.4602 124.318L89.5477 124.202C89.1322 123.998 88.0536 123.736 87.3977 123.903C86.4357 123.096 87.7475 121.451 86.2389 121.859C85.6559 121.691 85.1093 121.859 84.7667 122.135C84.4242 122.412 84.2784 122.783 84.4679 123.037C83.4622 122.594 82.3107 122.426 81.181 122.324C80.0441 122.222 78.9655 121.997 78.0326 121.386C77.6901 121.604 77.8577 121.793 77.2018 121.866C76.422 121.72 75.613 121.597 74.7967 121.582C73.9805 121.575 73.1642 121.56 72.3625 121.553C71.5682 121.524 70.7956 121.553 70.0595 121.437C69.3235 121.349 68.6311 121.131 67.9897 120.854C68.9153 120.549 68.0408 120.207 68.0116 119.836C67.2537 120.447 67.0569 119.268 66.8091 120.272C66.9111 120.854 66.8455 121.146 67.742 121.349C66.8018 121.56 65.6139 121.626 64.5279 121.713C63.442 121.779 62.4582 121.728 61.897 121.502C62.4509 121.735 62.0646 121.924 61.6783 122.164C61.7075 121.218 60.2863 121.276 59.2806 121.749L59.2223 122.332C58.9672 122.172 58.7048 122.004 58.4498 121.851C58.0781 122.106 58.2165 123.11 57.0942 122.776C56.9994 122.572 56.8974 122.361 56.6788 122.237C55.673 122.877 54.3831 124.02 53.1295 123.838L51.9707 123.27C51.5043 123.51 50.8338 124.238 51.7448 124.209C50.7172 124.26 49.8718 124.369 49.1867 124.398C48.5016 124.427 47.9842 124.435 47.5615 124.202C46.1841 125.599 44.3985 126.821 42.5109 127.928C41.5853 128.517 40.5942 129.005 39.6613 129.55C38.7284 130.103 37.781 130.562 36.921 131.064L36.7971 130.635C35.6748 130.867 36.7169 131.566 35.9298 131.712C36.01 131.18 34.7565 131.406 35.2156 130.533C34.4358 130.758 34.1006 131.188 33.8819 131.639C33.6778 132.112 33.5758 132.607 33.226 132.978C33.4228 133.523 33.6778 132.214 33.9256 132.912C33.9038 133.174 31.936 133.793 32.2494 134.608C31.7392 134.564 31.6008 133.895 31.5716 133.494C31.3894 133.778 31.2291 134.091 31.0687 134.397C30.3181 134.368 30.5513 133.604 30.7991 132.825C31.0542 132.068 31.3165 131.268 30.442 131.144L29.7788 131.784C28.5252 131.595 31.1708 129.558 29.0937 130.671C28.5398 131.631 28.6491 133.123 29.5674 132.869C28.1244 134.338 30.0703 135.008 28.4013 136.332C28.0224 136.332 28.3212 136.034 28.62 135.692C28.9334 135.372 29.254 135.015 28.8751 134.87C28.2556 134.913 27.9203 135.321 27.658 135.772C27.3883 136.216 27.1624 136.689 26.747 136.9C27.709 136.471 27.6434 137.679 27.279 138.202C26.2004 138.632 27.2498 137.14 26.0619 138.108C26.2149 138.646 25.4788 139.891 26.572 139.287C26.9583 140.466 25.2383 140.175 25.2675 141.353C24.3492 141.171 25.0926 138.988 23.6131 139.905C24.3201 140.225 22.9572 142.147 24.3711 142.241C23.7807 142.569 23.2852 142.234 23.2706 141.564C22.2867 141.965 22.7677 144.14 21.4559 143.427L21.8421 144.17C21.4632 144.235 21.055 144.439 20.4283 144.555C19.8598 145.181 19.6266 147.299 18.7374 146.549C18.6719 146.84 17.5058 148.339 18.599 148.208C19.6849 147.553 18.9269 146.775 20.1805 146.898C18.9852 147.037 19.2768 148.325 19.131 149.023L18.701 148.856C18.6281 149.292 18.0378 150.006 18.3075 150.479C18.2564 150.086 17.9212 150.049 17.6515 150.253L17.9941 150.973C17.4037 152.509 16.7405 150.631 16.1065 152.109C16.1648 151.672 16.2012 151.221 16.2814 150.792C16.2231 151.068 15.4068 151.214 15.2028 151.985C15.589 152.567 15.9534 153.418 16.2522 153.87C16.0482 154.765 15.4214 153.862 15.5745 154.939C15.5161 154.481 15.5089 154.037 15.4797 153.579C15.3923 153.324 14.1679 153.731 13.6358 154.837C13.4682 155.631 13.7306 157.079 14.5833 156.169C14.3209 156.7 13.5921 157.275 13.4026 156.657C12.9945 157.967 14.0658 156.788 13.9274 158.01C13.3662 158.265 12.1928 159.364 11.2745 159.975C11.1069 159.458 10.9757 158.949 10.8227 158.425L10.4656 159.182C10.1522 157.857 9.64931 159.436 9.09542 158.527C8.72374 159.007 8.76746 159.793 8.76746 160.397C10.6915 159.364 9.88253 162.849 11.2672 162.827C10.8591 165.011 7.84918 163.148 9.00797 166C9.45254 165.738 10.0429 167.063 10.1303 165.622C9.55457 166.895 11.0996 166.888 10.1449 168.285C9.95541 166.983 8.54154 169.202 8.26459 167.303C8.64357 167.528 8.84034 166.437 8.78933 166.138C8.16256 166.561 7.57952 165.651 7.19326 167.063C7.07665 167.958 6.77055 169.144 7.47749 169.137C8.19171 169.275 7.75443 167.819 8.33018 168.547C8.1407 170.286 7.03292 170.344 8.1407 171.32C8.27188 170.228 9.07356 170.133 9.56186 170.264L9.5983 171.545L9.1683 171.21C8.41764 173.102 9.86795 171.953 9.43067 173.823L8.33018 174.558C7.9585 174.267 8.16256 173.575 8.27917 172.979C8.39578 172.382 8.49781 171.88 7.78358 171.916C7.46291 173.168 8.12612 173.706 7.57223 174.842C7.49935 174.558 7.5285 174.194 7.44834 173.91C7.39003 174.136 6.90174 174.289 6.51547 174.645C6.1365 174.994 5.83769 175.555 6.27497 176.552C6.58106 177.556 6.72682 176.857 7.2297 176.937C7.14224 179.011 7.6524 179.673 7.63782 181.012C7.14953 180.845 7.09122 181.434 7.03292 181.878C6.98919 182.322 6.95275 182.621 6.47174 181.842C7.09851 181.18 7.21512 178.182 6.39886 177.352C5.1599 177.992 6.71954 175.729 5.62634 175.133C5.37854 176.814 4.26348 176.61 3.47638 176.806C3.37434 177.287 3.63671 177.789 3.72417 178.087C4.41653 178.356 4.46754 177.731 5.20363 177.767C4.98499 178.706 5.00686 179.659 5.10889 180.496C5.21092 181.34 5.44414 182.068 5.77938 182.613C5.4077 183.239 4.70076 183.021 4.65703 182.249C4.78093 184.556 4.67161 187.009 4.50398 189.221C5.63362 187.78 4.83194 191.673 5.77938 190.676C6.0126 189.49 6.82157 188.478 7.35359 189.112C7.29529 189.839 6.84343 189.097 6.60293 189.41C7.26614 190.32 5.61176 190.88 6.64666 191.775C6.20938 189.679 5.21821 191.404 4.29263 191.047C4.85381 192.568 3.63671 191.004 3.69502 192.524C4.25619 194.045 4.74449 195.908 5.02143 197.611C4.26348 199.801 5.2838 203.076 5.39312 205.019C4.97042 206.052 3.91366 205.404 3.77518 206.511C3.84078 207.799 4.85381 205.514 4.44568 207.442L4.23433 207.267C4.51127 207.842 3.60756 210.782 5.1016 211.342L3.97196 210.76C3.87722 211.117 4.13958 211.444 4.2489 211.743C3.8845 211.757 3.54926 212.172 3.31604 211.597C2.52894 212.769 3.44722 214.064 3.42536 215.345L4.11772 214.537C4.33636 215.65 4.27077 216.575 4.16874 217.484C4.05942 218.394 3.86264 219.289 3.90637 220.366L3.26502 220.249C3.35977 220.679 3.46909 221.115 3.53468 221.545C2.95164 221.181 2.41233 222.28 2.84961 223C2.46334 221.85 2.06979 220.722 1.60336 219.609C2.04793 218.743 2.3103 220.65 2.98808 220.14C3.57112 219.704 3.57112 217.717 2.93706 217.375C2.84232 218.117 2.95893 218.161 3.1557 218.758C2.23013 218.939 2.37589 217.819 1.77827 217.237C1.80742 217.63 1.49404 218.161 1.77098 218.255C1.3993 217.477 1.3337 216.705 1.36286 215.447C1.68353 216.313 1.93861 214.995 2.17911 215.33C1.3993 215.206 1.18794 213.998 1.40658 212.441C2.34674 211.321 0.794392 209.501 1.00574 207.689C1.83658 208.403 2.48521 209.334 2.83503 210.447C3.2213 209.29 2.7913 209.167 3.17757 208.002C2.55809 207.464 1.62522 207.093 1.20981 205.616L1.80014 205.514C1.45031 204.167 0.561176 204.204 0.65592 202.472C0.80168 199.503 0.641344 196.439 0.61948 194.154L1.20252 194.045C-0.123896 192.83 0.590328 189.832 0 188.115C0.29152 186.637 0.116608 185.051 0.094744 183.625C0.07288 182.912 0.065592 182.242 0.123896 181.66C0.204064 181.078 0.357112 180.583 0.634056 180.219C0.51016 175.009 0.808968 170.257 2.52165 165.032L3.10469 166.146C2.75486 165.04 3.74603 165.673 3.87722 164.727C3.4035 165.156 3.27231 164.778 3.23587 164.181C3.21401 163.599 3.28689 162.798 3.14842 162.398C3.49824 161.867 3.77518 161.277 4.01569 160.644C4.27806 160.026 4.48212 159.371 4.64974 158.709C4.96313 157.37 5.21821 156.031 5.40041 154.91L5.97616 155.078C5.90328 153.833 6.44259 152.734 7.14953 151.657C7.82731 150.566 8.76746 149.554 9.53999 148.427C9.91897 148.288 10.6113 148.135 11.0049 147.43C11.0049 146.564 11.1288 145.967 11.3401 145.327C11.5515 144.679 11.843 143.988 12.2584 142.932C12.7394 142.292 13.3881 141.463 14.1241 140.706C14.8748 139.956 15.6546 139.236 16.3105 138.726C17.0393 137.38 17.9066 136.121 18.8759 134.935C19.8817 133.785 20.9093 132.628 22.0681 131.602C22.6365 131.078 23.2123 130.555 23.788 130.031C24.3856 129.528 24.9833 129.026 25.5809 128.524C26.747 127.476 28.0151 126.53 29.1884 125.432L29.9537 125.744C32.1109 123.481 35.0699 121.626 38.1089 120.294C39.5957 119.559 41.148 119.035 42.5619 118.417C43.9977 117.856 45.3532 117.318 46.5339 116.707L46.4318 117.995C48.0789 117.842 49.8791 116.612 49.2523 115.921C50.0831 115.833 51.0524 115.484 51.9634 115.178C52.8744 114.88 53.7344 114.676 54.3539 115.069C56.0447 114.975 56.2634 114.116 57.6335 113.738C61.0589 113.687 62.2687 113.461 65.4535 113.032L64.6591 112.988C64.3239 113.286 64.3312 113.767 65.1183 113.81C66.2844 113.439 69.4619 113.97 68.2667 112.595C69.1267 112.792 70.0523 112.879 71.007 112.886C71.969 112.879 72.9602 112.864 73.9586 112.872C75.9482 112.835 77.9452 113.024 79.5121 113.767C79.2861 113.337 80.1316 113.381 80.5251 113.199C82.0191 113.468 83.5205 113.876 84.9198 114.363C85.6267 114.589 86.3118 114.785 86.9823 114.924C87.6528 115.077 88.316 115.208 88.9573 115.222C89.3727 115.55 88.0245 115.63 89.2051 116.023C89.9558 116.095 89.38 115.528 90.3129 115.615C91.5518 115.862 92.7762 116.219 93.9277 116.758C95.0938 117.245 96.187 117.9 97.2511 118.555C98.3151 119.21 99.3136 119.952 100.312 120.629C101.274 121.371 102.272 121.99 103.22 122.645C106.776 124.682 110.063 127.578 112.643 131.129C115.252 134.651 116.994 138.937 117.694 143.202L117.402 143.151C117.767 143.82 117.942 144.599 118 145.407C117.985 146.229 117.949 147.073 117.781 147.895C117.708 148.303 117.643 148.703 117.592 149.096C117.534 149.489 117.461 149.867 117.439 150.231C117.402 150.973 117.432 151.665 117.708 152.327C117.344 152.975 116.885 154.874 116.513 154.219C116.557 155.441 115.784 156.919 114.866 158.367C113.941 159.837 112.847 161.234 112.25 162.82C112.447 162.595 112.505 162.427 112.607 162.071C111.397 163.206 110.442 164.341 109.415 165.476C108.373 166.575 107.257 167.674 105.742 168.416C105.938 168.118 106.368 167.674 106.266 167.397C105.596 167.557 105.202 168.263 104.743 168.802C104.291 169.34 103.839 169.784 103.176 169.369C102.571 169.748 103.096 170.221 103.46 169.952C100.268 171.625 96.945 173.175 93.3738 174.325C89.8173 175.467 85.9911 176.21 82.1066 176.108C80.7365 175.824 80.066 175.453 79.7453 175.176C79.4246 174.893 79.4611 174.667 79.5121 174.5C79.6141 174.15 79.8473 174.121 77.6755 174.209C77.3913 173.881 77.3111 174.674 77.3184 174.383C76.473 174.361 75.9191 173.837 75.4891 173.343C75.0591 172.84 74.702 172.397 74.0679 172.564C74.221 173.51 73.2225 172.775 73.0112 173.241C72.2897 172.87 71.7649 172.469 71.3204 172.113C70.8758 171.763 70.5114 171.465 70.1543 171.21C69.4255 170.723 68.7841 170.315 67.5379 169.995L67.9169 169.697C67.1443 169.61 66.3499 169.457 65.6503 169.137C64.9361 168.831 64.251 168.474 63.5659 168.118C62.8663 167.783 62.2541 167.361 61.5836 167.063C60.9277 166.75 60.2353 166.524 59.5211 166.393C56.3362 163.81 53.5522 160.899 51.0451 157.843C48.5527 154.772 46.3298 151.548 44.4349 148.179C42.5255 144.817 40.8711 141.339 39.4572 137.773L38.4588 135.073C38.1381 134.171 37.8757 133.269 37.5842 132.359L36.7388 129.63L36.0392 126.865C34.4431 119.501 33.4082 112.108 33.175 104.642C32.949 97.1827 33.5102 89.6439 35.2375 82.2142C36.1631 80.5696 36.6295 79.6964 36.8991 78.7431C37.1542 77.7826 37.2854 76.7493 37.5332 74.8063C37.679 75.0028 37.6571 75.2502 37.8976 75.0392C37.0303 74.6171 38.4588 72.3613 37.7081 71.7646C39.4135 66.4088 40.9804 61.4533 43.3563 56.1484C43.0575 57.0216 43.575 57.7493 43.9831 56.7451L43.9175 55.4644L44.2382 55.4134C44.4276 54.6858 44.3548 53.7398 43.7499 54.3074C46.5485 47.5108 50.6516 41.3836 55.2868 35.875C59.9292 30.3519 65.0964 25.4254 70.3219 20.63C70.6644 20.3825 71.0216 20.1133 71.3787 19.8295C71.7504 19.553 72.1293 19.2619 72.5156 18.9563C73.2808 18.345 74.0679 17.6828 74.8478 16.9988C76.422 15.638 78.0618 14.3063 79.4683 13.1129C84.293 10.5078 88.9792 8.34658 93.6581 6.23629C98.3661 4.20604 103.096 2.16123 108.11 0C108.11 0 107.972 0.705857 107.345 1.66641C106.725 2.64151 105.603 3.80581 103.679 4.88279L103.657 4.89734Z" fill="#CCEAB4"/>
</svg>
