<svg width="93" height="109" viewBox="0 0 93 109" fill="none" xmlns="http://www.w3.org/2000/svg">
<path d="M92.4035 3.16795C92.7608 3.7663 92.8872 4.37721 92.8894 4.99081C92.8681 5.60268 92.7055 6.2101 92.525 6.82209C92.3444 7.43409 92.1462 8.04479 92.0302 8.66152C91.9141 9.27824 91.822 9.89083 91.9516 10.5374C91.9544 10.8207 91.0194 10.2154 91.0836 10.8689C91.2669 11.5076 91.2928 12.1996 91.2055 12.9069C91.0835 13.6058 90.8365 14.3191 90.5136 15.0209C90.1794 15.716 89.8151 16.4207 89.3322 17.0518C88.8606 17.6896 88.3505 18.2893 87.851 18.8248L87.6516 18.5683C87.268 18.9708 87.906 19.9259 87.5597 20.3842C87.3875 20.3185 87.3904 20.1182 87.1057 20.1386C87.5582 20.4844 86.9311 21.1521 87.21 21.5324C86.9184 21.6466 86.526 21.4468 86.1899 21.605L86.6332 22.1566C87.1354 22.8717 86.8871 23.3608 86.5395 23.8367C86.186 24.3121 85.7048 24.7605 85.7759 25.4794C85.6726 25.3598 85.6251 25.2029 85.4523 25.2257C85.3979 26.2893 85.1054 27.3826 84.623 28.409C84.1519 29.4421 83.6046 30.4695 83.1922 31.5069C83.053 31.3139 82.7433 31.0316 82.4616 31.011C82.9722 31.4495 82.7408 32.1109 82.5285 32.6733C81.8081 32.5202 82.5003 33.8627 81.7998 34.242L81.7037 34.1052C82.0144 34.936 80.9537 34.5161 81.4242 35.341L80.7905 35.2946C81.4502 36.0331 79.9472 35.6102 80.0961 36.2346L80.2653 36.3414C80.2196 36.804 79.7087 36.6898 79.6208 37.0845L79.5114 37.047C79.2067 37.9035 78.4809 37.9859 79.0917 38.4259C78.4337 38.3069 79.3662 37.579 78.3913 37.4367C77.8434 38.7945 77.0291 40.0029 76.1762 41.1731C75.2677 42.298 74.2697 43.3573 73.3063 44.4251C72.8565 44.4452 72.6438 44.5299 72.3891 44.3814C72.2959 44.6872 71.7306 45.2356 71.8211 45.6905C71.88 45.6122 71.4185 45.5489 71.283 45.6274C70.7163 45.7923 71.4639 46.6199 70.8263 46.7854C70.8487 46.4804 70.7297 46.2534 70.4809 46.1054C70.5541 46.8776 70.013 47.2567 69.7093 47.7771C69.6912 47.6224 69.7434 47.4728 69.566 47.3183C69.5521 48.2315 68.6206 47.9803 68.4936 48.667L68.3565 48.2028C67.3508 48.4004 68.7657 49.0586 67.9901 49.3379C68.0362 49.1113 67.877 49.0288 67.7826 48.8685C67.791 49.9604 66.7021 50.4881 66.3114 51.1495C66.3048 51.0783 66.2228 50.9897 66.2228 50.9897C65.6738 51.5569 64.8947 51.8832 64.4282 52.6925C64.0542 52.724 63.8631 51.7899 63.2994 52.3974C63.8515 53.0749 62.38 53.5096 63.3575 54.0178C62.6921 54.3229 61.5955 54.7144 61.3802 55.2353C61.4494 54.7744 60.4978 54.5572 60.9287 54.1523L60.2695 53.9683C60.1226 53.639 60.7058 53.8115 60.3379 53.5191C60.1229 53.7157 59.6188 54.475 59.3224 54.4946C59.1738 55.2328 59.2866 56.35 58.5846 56.9119C58.7633 56.406 57.8807 56.2115 58.0422 55.9402C57.9915 56.6325 57.9177 57.3172 57.8312 58.0128C57.5932 58.2018 57.4303 57.4466 57.17 57.8581C57.3034 58.0508 57.2111 58.2622 57.1822 58.496C57.0427 58.4681 56.1737 59.2951 55.6598 58.5791C55.3886 58.335 56.0064 58.1975 55.5727 58.0772C55.088 58.3307 55.2032 58.6105 54.7131 58.8576L54.6554 58.759C54.2805 58.8023 53.8368 59.5425 54.3952 59.8135C54.6431 59.7314 54.0904 59.3841 54.5397 59.4525C54.516 60.017 53.9731 60.4195 53.4432 60.6461C53.5702 60.4431 53.4612 60.2404 53.4323 59.9906C52.9996 60.9026 52.3073 61.4122 51.5655 61.9535C51.6843 62.3457 51.6366 61.1448 51.8254 61.3061C51.2118 61.2257 50.7374 61.5802 50.2534 61.9045C49.7707 62.2112 49.2726 62.4873 48.7286 62.182C48.8604 62.0737 48.9422 62.7285 48.903 62.6195C48.3545 62.6972 48.2625 62.1006 47.9593 62.3733C47.8602 62.0357 47.5506 62.5557 47.2082 62.7193C47.0639 62.9978 47.0895 62.5691 47.3911 62.4791C47.1715 62.6576 46.5797 63.0035 45.8767 63.1761C45.1742 63.3429 44.3708 63.4373 43.7797 63.2111C43.8157 63.4438 43.0972 64.0694 42.8214 64.0492L42.9142 63.5074C42.6662 63.1884 42.0186 63.5715 41.9759 63.1083C41.4196 63.7753 44.1377 62.5119 43.3859 63.0289C43.1826 62.5834 42.3362 63.9074 42.4906 63.1697C42.2239 63.1855 41.9646 63.3434 41.7036 63.4423C41.4439 63.5235 41.189 63.5402 40.9426 63.2803C41.0891 63.3736 41.3854 62.5519 40.9649 62.5741C40.2227 62.6376 40.746 62.8235 40.1386 62.9795L39.7458 63.1866C39.6836 63.7129 39.0811 63.0789 39.3202 63.6804C39.264 63.2398 38.2165 63.8472 38.3678 62.9912L38.5292 62.3188C38.2147 62.3429 37.9489 62.99 37.6629 63.2698C37.6266 63.2023 37.5547 63.0554 37.586 62.9516C37.4209 63.9953 36.8371 62.7846 36.3687 63.5406C35.7465 63.0939 34.6817 63.293 34.4734 62.5935C33.9309 62.831 33.4075 63.1288 32.8757 62.8185C33.0054 62.7395 33.1651 62.7335 33.2343 62.5145C32.9243 62.1555 32.7934 62.4114 32.4432 62.5213C32.542 62.3811 31.8417 61.793 31.5134 61.3619C30.9717 61.5877 31.0411 62.1708 30.9281 62.5046C30.6602 61.4114 29.4407 62.9146 29.0498 61.8891C29.2408 61.7792 29.8441 61.5168 29.4905 61.19C29.2284 60.0973 28.4618 61.7811 27.8463 61.1638L27.8707 62.0386C27.6474 61.4618 26.7449 62.3453 26.9724 61.4949C26.6818 61.7567 26.1892 61.0718 26.1277 61.9108C25.6175 61.4664 24.8985 61.4549 24.2564 61.3606C23.6194 61.2785 23.0537 61.1073 22.8049 60.3163C22.6253 60.4329 22.2328 60.2331 22.2597 60.6716C22.4709 61.1707 22.6811 60.3957 22.7396 60.7244C22.5916 60.7313 22.5283 60.9508 22.4966 61.0605C22.1663 60.8181 21.9011 60.7337 22.3207 60.0803C21.5861 59.4779 21.3444 61.4066 20.3969 60.9714C20.4746 60.635 20.4087 60.4886 20.1172 60.5203L19.5276 61.0787C18.9096 60.8978 19.221 60.2718 19.2464 59.6838C18.8924 59.764 18.472 59.7037 18.293 60.1329L17.9054 59.3849C18.1907 59.919 17.6083 59.7347 17.4504 59.8765L17.6142 59.7351C17.5556 59.489 17.1553 59.6366 16.9556 59.7046C16.9998 60.0676 17.4016 60.2209 17.6181 60.3253C17.4399 60.5835 17.1734 60.5168 16.9448 60.8186C17.0221 60.2462 16.3976 60.395 16.1298 60.3459C15.8189 60.2405 15.8014 60.8822 15.7142 60.864C15.6946 60.5676 15.2204 60.8396 15.4405 60.4133C15.5421 60.3146 15.6856 60.6908 15.8471 60.4196C15.6442 60.21 15.6409 59.6907 15.2403 60.086C14.9408 60.3885 15.3815 61.2171 14.7747 60.8836C14.9213 60.7351 14.9326 60.4999 15.0424 60.2898L14.4606 60.0171L14.4756 60.5372C14.3907 60.4071 14.4352 60.3632 14.3993 60.2898C14.2767 60.8352 13.5771 60.5598 13.5256 61.1813C13.2655 61.2684 12.9095 60.8942 12.64 60.8686L12.6849 60.8188C12.3161 60.5381 11.9223 60.8395 11.722 61.2377L11.7125 61.125C11.5361 61.1179 11.1404 61.2836 10.9972 61.627C10.4821 61.3297 10.4055 59.7197 10.0607 60.4789C9.60768 60.6226 9.61255 61.6021 9.86986 61.8746C9.43775 61.8134 9.05454 62.0508 8.6702 62.2231C8.29501 62.4316 7.91239 62.5805 7.41776 62.3259C7.38251 62.5652 7.49343 62.6618 7.31362 62.861C6.71187 62.9407 6.21341 63.3819 5.69222 63.6504C5.16516 63.9185 4.65828 64.1527 3.9976 63.9096C4.20663 63.5533 3.77882 63.4334 3.63257 63.175C3.59213 63.7265 3.08598 62.9048 3.37257 63.6632C3.62042 64.0647 3.71057 64.2837 4.09288 64.2999C3.57079 64.822 2.67926 65.3937 2.09644 65.2153C2.37927 65.3009 2.32313 65.5032 2.26742 65.6997C1.91526 65.0309 1.38965 65.1988 1.20852 65.6574L1.414 66.0736L0.936533 65.8262C0.891703 66.0353 1.3432 66.7172 0.769534 66.5749C0.649463 66.4422 0.529821 66.3037 0.39285 66.2405C0.253504 66.773 0.190261 67.6354 -0.391148 67.5987L-1.09447 67.2934C-1.2017 67.4684 -1.20392 67.9814 -0.81645 67.9273C-1.68158 68.0585 -2.06537 68.3842 -2.63458 68.1007C-2.65268 68.5889 -2.7558 69.0296 -2.90958 69.4372C-3.05249 69.8573 -3.24563 70.2383 -3.47814 70.5928C-3.95902 71.2772 -4.50775 71.9212 -5.07049 72.4344L-5.29932 72.1757C-5.81935 72.2674 -4.99137 72.7233 -5.3558 72.785C-5.52122 72.4662 -6.09492 72.5657 -6.19247 72.0454C-6.85235 72.2742 -6.22911 73.0277 -6.34596 73.4143C-6.03383 73.7439 -6.3741 72.9935 -5.98039 73.4176C-5.89682 73.5652 -6.77098 73.8197 -6.28812 74.3151C-6.58569 74.2697 -6.922 73.8676 -7.08757 73.6313L-7.04112 74.1243C-7.49041 74.0559 -7.62504 73.6391 -7.76969 73.1979C-7.9089 72.763 -8.05899 72.3155 -8.59873 72.1933C-8.64255 72.3081 -8.6918 72.4165 -8.73605 72.5372C-9.51969 72.3617 -8.78067 71.2952 -9.54137 71.8529C-9.50924 72.3802 -8.91134 73.238 -8.46804 73.1466C-8.78218 73.8904 -7.37538 74.4183 -7.90478 75.0401C-8.36667 74.9826 -7.59682 74.461 -8.14185 74.25C-8.81973 74.2416 -8.36597 75.0534 -8.70923 75.2288C-8.28968 75.059 -7.89601 75.7249 -7.92753 75.994C-8.41708 76.1527 -8.31506 75.4052 -8.69615 75.855C-8.42338 76.1581 -8.46769 76.7624 -7.98472 76.5324C-7.34915 77.1984 -8.52453 76.8939 -8.11068 77.5259C-8.75261 77.3491 -9.00795 76.245 -9.63079 76.6123C-9.06987 76.848 -9.34067 77.7247 -8.39815 77.9059C-8.67212 78.0215 -9.09262 77.8019 -9.32044 77.449C-9.82501 77.5713 -8.80262 78.7551 -9.90426 78.2497L-9.42711 78.6621C-9.65684 78.6571 -9.8737 78.7179 -10.2569 78.7134C-10.4192 78.9964 -9.98681 80.019 -10.8085 79.5577C-10.7714 79.6961 -11.1478 80.3232 -10.4369 80.3635C-9.87848 80.1509 -10.6171 79.6838 -9.72829 79.8728C-10.5088 79.8156 -9.94451 80.4881 -9.84451 80.814L-10.1893 80.6884C-10.1389 80.8867 -10.36 81.1655 -10.0427 81.4247C-10.1815 81.2257 -10.4254 81.1725 -10.561 81.251L-10.129 81.6366C-10.1374 82.3143 -11.0642 81.3557 -11.1807 81.9783L-11.3724 81.3744C-11.3349 81.5069 -11.8879 81.484 -11.8596 81.8223C-11.4518 82.1353 -10.9881 82.5704 -10.67 82.8179C-10.6045 83.212 -11.2538 82.7338 -10.9076 83.2429L-11.2967 82.595C-11.4227 82.4619 -12.1774 82.5363 -12.3455 82.9781C-12.3001 83.3236 -11.7966 84.0211 -11.3654 83.6929C-11.4459 83.9053 -11.855 84.0935 -12.1215 83.785C-12.1619 84.3365 -11.5948 83.9239 -11.4742 84.4518C-11.8667 84.4938 -12.4958 84.8664 -13.0801 85.03L-13.7038 84.2824L-13.8205 84.5864C-14.311 83.9547 -14.3768 84.6105 -14.9616 84.137C-15.1456 84.3123 -15.0112 84.6525 -14.9128 84.9192C-13.6157 84.6899 -13.6913 86.1236 -12.6401 86.2715C-12.6355 87.1743 -15.2108 86.0063 -13.9364 87.3738C-13.6311 87.3136 -13.0055 87.9552 -13.1259 87.3448C-13.3972 87.8262 -12.2413 87.9936 -12.8367 88.469C-13.119 87.8938 -13.9895 88.6617 -14.3942 87.8239C-14.0742 87.9653 -14.0247 87.5325 -14.092 87.4037C-14.542 87.5063 -15.0748 87.0485 -15.2507 87.5959C-15.2539 87.9614 -15.3587 88.4256 -14.816 88.5067C-14.2369 88.6553 -14.7362 87.9817 -14.2153 88.362C-14.1965 89.0712 -15.1019 88.9458 -14.1567 89.4929C-14.1248 89.0587 -13.5036 89.1161 -13.111 89.2333L-13.0026 89.7663L-13.3603 89.5749C-13.8412 90.2592 -12.7406 89.9742 -13.0169 90.6854L-13.8548 90.8481C-14.473 90.5078 -13.3029 89.8386 -14.3902 89.6999C-14.5726 90.1761 -14.0516 90.4738 -14.4406 90.87C-14.5082 90.7471 -14.5034 90.6 -14.5706 90.4712C-14.6476 90.6366 -16.0996 90.4829 -15.4401 91.3865C-15.2007 91.8229 -15.0816 91.5662 -14.6819 91.6663C-14.7417 92.4818 -14.3641 92.8044 -14.4083 93.3261C-15.1742 93.0694 -14.6623 94.2158 -15.3531 93.4987C-14.8388 93.324 -14.666 92.1747 -15.341 91.7241C-16.3327 91.8107 -15.0615 91.1312 -15.9592 90.7409C-16.1302 91.3831 -17.0395 91.1513 -17.657 91.1237C-17.7466 91.3 -17.5278 91.5343 -17.4547 91.6635C-16.9088 91.8628 -16.8672 91.6181 -16.2855 91.7315C-16.5845 92.4292 -16.4111 93.2028 -15.9341 93.6979C-16.2607 93.8863 -16.8141 93.71 -16.8098 93.4095C-16.8052 94.3123 -17.0321 95.2336 -17.3279 96.0494C-16.3306 95.6448 -17.2333 97.0119 -16.4115 96.7478C-16.1449 96.3308 -15.4342 96.0526 -15.0491 96.3522C-15.1452 96.6165 -15.4573 96.2869 -15.67 96.3716C-15.205 96.7891 -16.5575 96.8079 -15.8 97.2586C-15.9988 96.43 -16.9162 96.9526 -17.6243 96.7119C-17.2876 97.3501 -18.1427 96.6208 -18.2146 97.1995C-17.8955 97.8363 -17.6324 98.5929 -17.5452 99.2541C-18.3377 100.004 -17.7205 101.323 -17.7504 102.053C-18.1427 102.413 -18.9579 102.106 -19.1239 102.518C-19.1307 103.013 -18.2098 102.202 -18.6215 102.909L-18.7811 102.832C-18.5971 103.058 -19.4091 104.155 -18.2181 104.407L-19.1139 104.153C-19.2005 104.288 -18.992 104.421 -18.9 104.534C-19.1947 104.53 -19.4654 104.681 -19.6494 104.456C-20.2774 104.893 -19.5666 105.417 -19.5553 105.908L-19.0135 105.599C-18.6214 106.448 -19.1344 107.006 -18.946 107.816L-19.4696 107.795L-19.1569 108.278C-19.6618 108.165 -19.9901 108.618 -19.5542 108.869C-19.9957 108.453 -20.4133 108.033 -20.8481 107.606C-20.5388 107.251 -20.2153 107.988 -19.703 107.761C-19.2583 107.569 -19.3977 106.816 -19.9018 106.69C-19.9585 106.981 -19.8416 106.995 -19.6576 107.221C-20.3847 107.321 -20.3579 106.875 -20.8429 106.651C-20.813 106.806 -21.0356 107.026 -20.8018 107.055C-21.1571 106.752 -21.2232 106.446 -21.2273 105.938C-20.9517 106.283 -20.7717 105.759 -20.569 105.892C-21.2087 105.845 -21.3968 105.354 -21.2036 104.731C-20.4646 104.307 -21.6416 103.543 -21.4055 102.817C-20.7743 103.14 -20.2724 103.537 -20.0275 103.98C-19.683 103.545 -20.0203 103.479 -19.6757 103.044C-20.1477 102.803 -20.8831 102.613 -21.1449 101.998L-20.6665 101.992C-20.8738 101.44 -21.5785 101.394 -21.3986 100.712C-21.095 99.5482 -20.9477 98.3439 -20.7997 97.4523L-20.3235 97.4754C-21.2694 96.8575 -20.488 95.7764 -20.8354 95.0431C-20.2029 93.9806 -20.8776 92.4801 -19.9377 92.0536C-19.9103 89.9911 -19.8105 88.1463 -19.0445 86.1498L-18.488 86.6861C-18.8639 86.1808 -18.0308 86.5663 -18.0209 86.1895C-18.6816 86.4301 -18.5536 85.4898 -18.8791 85.1002C-18.0987 84.3553 -18.2091 83.0436 -18.3782 82.0521L-17.9224 82.1917C-18.4183 81.07 -17.3295 80.383 -16.7388 79.4885C-16.5065 79.4583 -16.0177 79.4706 -15.9362 79.164C-16.3929 78.3106 -16.2209 78.0578 -16.2493 77.0766C-15.9606 76.5197 -15.3223 75.6994 -14.7266 75.3007C-14.6558 74.6571 -14.5109 74.0484 -14.2575 73.4889C-14.0103 72.9349 -13.7 72.4032 -13.3787 71.8841C-12.6964 70.8665 -11.9801 69.8691 -11.4116 68.7134L-10.867 68.9303C-10.7896 68.5998 -10.6784 68.2894 -10.5441 67.9866C-10.3984 67.6906 -10.2189 67.4147 -10.0285 67.1515C-9.63553 66.6199 -9.19732 66.1153 -8.69929 65.6799C-8.21257 65.2379 -7.72671 64.8075 -7.27735 64.3922C-6.81669 63.9836 -6.41471 63.5707 -6.11534 63.109L-5.64741 63.9691C-4.98925 63.7637 -4.67394 62.8431 -5.22652 62.4132C-4.52399 62.2465 -4.20935 61.0132 -3.39554 61.4209C-2.74109 61.1858 -2.96888 60.591 -2.57191 60.166C-1.91703 59.925 -1.474 59.7569 -1.07906 59.5204C-0.68455 59.2898 -0.338551 58.9967 0.174502 58.5978C0.0662893 58.6253 -0.0310489 58.6653 -0.134256 58.7049C-0.153186 58.9631 0.0389955 59.3193 0.341885 59.2117C0.629077 58.755 2.01235 58.6382 1.06219 57.8371C1.44665 57.824 1.79821 57.6965 2.1419 57.5152C2.49604 57.3524 2.84232 57.136 3.18816 56.9254C3.534 56.7148 3.89115 56.511 4.25488 56.3784C4.62905 56.2643 5.00936 56.2273 5.40369 56.3211C5.18659 56.0633 5.48834 55.8908 5.55923 55.6483C5.85038 55.5399 6.15613 55.4738 6.46731 55.414C6.78264 55.3782 7.09211 55.3419 7.40114 55.3115C8.00833 55.238 8.55527 55.1012 8.97184 54.7306C9.1997 54.8417 8.78797 55.307 9.28824 55.2434C9.54891 55.0679 9.20556 54.8422 9.52422 54.6001C9.98457 54.3566 10.4841 54.2222 10.9853 54.1469C11.4918 54.0779 12.0137 54.122 12.5188 54.1532C13.5416 54.2046 14.5051 54.4227 15.3987 54.3054C16.9774 53.9375 18.6074 53.9154 20.1747 54.0245C21.742 54.1335 23.247 54.3677 24.6746 54.5314L24.6109 54.7568C25.7094 54.0175 26.6616 55.9984 27.6276 54.8128C27.8095 55.068 28.4354 55.0608 28.1991 55.4682C29.0426 54.9874 30.1304 56.4061 31.3003 55.8195C31.209 55.7774 31.1473 55.8142 31.0176 55.8931C31.9818 56.5832 32.9944 56.0499 34.0036 56.6901C33.8798 56.7695 33.6701 56.8131 33.595 57.0318C33.9475 57.5354 34.7335 56.2305 34.7922 57.3614C35.0319 57.3908 35.043 56.8371 34.8946 56.8498C37.1846 57.643 39.7528 57.2179 42.013 56.9708C43.6485 57.598 42.142 58.8323 43.4314 57.9831C43.5518 58.1925 43.4922 57.557 43.5165 57.7888C43.9896 57.4519 44.3867 58.9557 44.7027 58.3477C44.4977 57.6838 44.903 57.9495 44.8686 57.5341C45.1275 57.6238 45.344 57.7282 45.5258 57.8241C45.7084 57.9083 45.8622 57.9844 46.0122 58.0308C46.3059 58.129 46.5612 58.1065 46.9031 57.7894L46.912 58.1499C47.2837 57.5873 47.7369 57.361 48.162 57.115C48.5876 56.8631 48.9856 56.5855 49.1646 55.9144C51.4686 55.0688 53.6117 53.7632 55.6746 52.2629C56.7035 51.5067 57.7397 50.7333 58.7403 49.8806L60.2527 48.6467L61.0168 48.0421L61.7542 47.4001C63.8478 45.8844 65.7225 44.1344 67.5261 42.3083C68.4141 41.3825 69.3519 40.5017 70.2249 39.5393C71.1196 38.6022 72.0705 37.7046 72.9958 36.752C74.4982 36.3785 74.5697 36.2894 75.097 34.9714C75.1873 35.1078 75.1628 35.2004 75.333 35.2129C74.7575 34.6929 75.8418 34.389 75.3272 33.844C75.9491 33.0874 76.5173 32.3387 77.0076 31.5253C77.4921 30.7114 77.9716 29.8854 78.5173 29.0407C78.412 29.3515 78.8613 29.8209 79.0221 29.4788L78.8237 28.8862L79.0437 28.9436C79.0878 28.6637 78.8962 28.2191 78.5522 28.3236C79.0336 27.1497 79.6502 26.0624 80.3058 25.0075C80.9161 23.9257 81.6002 22.8846 82.291 21.8323C82.9244 20.758 83.5862 19.6976 84.1915 18.6036C84.7454 17.4881 85.2535 16.3516 85.6636 15.1843C86.3338 14.1717 86.6111 12.4815 86.8273 11.2233C87.3252 10.3868 87.8051 9.55497 88.2557 8.72094L88.5847 8.09624L88.8676 7.45636C89.0466 7.0271 89.2197 6.59741 89.3815 6.16099C90.0631 4.42964 90.3223 2.58474 90.2958 0.612717C90.2958 0.612717 92.1927 1.37705 92.3726 3.1067L92.4035 3.16795Z" fill="#E9D1F3"/>
</svg>
