<svg width="70" height="251" viewBox="0 0 70 251" fill="none" xmlns="http://www.w3.org/2000/svg">
<path d="M52.4577 2.68161C53.1594 3.04684 53.8357 3.4552 54.3966 3.98132C54.9438 4.511 55.4419 5.10464 55.901 5.74497C56.8243 7.01699 57.6018 8.45853 58.3554 9.92089C59.0067 11.4391 59.5968 13.0026 60.3195 14.4584C60.6783 15.1906 61.0696 15.9071 61.5085 16.5819C61.9423 17.2653 62.3264 17.9544 62.8316 18.5754C63.2066 19.2012 61.2066 19.0134 62.1463 20.3762C63.1835 21.5527 64.1978 23.0057 64.8818 24.7054C65.5384 26.4122 66.0664 28.2987 66.4683 30.2619C66.6991 31.2321 66.7744 32.2501 66.841 33.2631C66.9076 34.276 66.9519 35.2875 66.979 36.2888C66.9924 37.2937 67.0209 38.2727 66.9653 39.2371C66.8772 40.2173 66.7648 41.16 66.6503 42.0667L66.1322 41.7048C65.9553 43.0735 67.7088 44.5311 67.6736 45.9944C67.3618 46.0318 67.1721 45.5843 66.7847 45.9483C67.8249 46.2107 67.381 48.4893 68.1275 49.0547C67.7834 49.6412 67.0355 49.6315 66.6536 50.3813L67.7675 51.1507C68.4348 51.6929 68.7687 52.3293 68.9297 53.0034C69.0103 53.3405 69.0447 53.6969 69.0431 54.0554C69.0278 54.4174 68.9714 54.7901 68.9151 55.1629C68.6746 56.6796 68.282 58.258 68.905 59.864C68.665 59.7 68.4714 59.3777 68.2268 59.6168C68.4081 60.2565 68.5569 60.9119 68.6769 61.5967C68.7659 62.275 68.8053 62.9589 68.8345 63.6601C68.893 65.0624 68.8714 66.5222 68.8174 67.9977C68.8166 69.4812 68.5345 70.9504 68.3775 72.4235C68.1983 73.8951 68.0191 75.3667 67.9047 76.8067C67.5758 76.4979 66.9309 76.1544 66.4581 76.3871C67.5352 76.903 67.3451 78.6697 67.1786 80.2183C65.872 80.588 67.5446 83.0532 66.4609 84.6435L66.2563 84.4191C67.0031 86.0513 64.9487 86.0751 65.9873 87.5655L64.8416 88.0759C66.1972 89.1841 63.4075 89.6114 63.834 90.9398L64.1642 91.0291C64.2132 92.1708 63.1928 92.349 63.0637 93.3399L62.8477 93.3523C62.3347 95.5904 60.9744 96.4271 62.1573 96.9008C60.9048 97.1979 62.6141 94.6993 60.7499 95.2288C60.5324 96.1331 60.2876 97.0445 60.0169 97.9407C59.7721 98.8521 59.3533 99.6846 58.9949 100.553C58.2435 102.268 57.4338 103.984 56.5602 105.652C54.5318 108.832 52.5624 112.071 50.1453 114.966C49.2001 115.293 48.7401 115.603 48.2496 115.431C47.9722 116.161 46.5685 117.644 46.5417 118.579C46.7027 118.384 45.738 118.467 45.4142 118.683C44.1251 119.26 45.2904 120.732 43.7645 121.298C44.0015 120.637 43.8737 120.203 43.4186 119.97C43.1325 121.565 41.6547 122.483 40.5715 123.598C40.6543 123.299 40.8825 122.969 40.6018 122.677C40.2439 123.603 39.5477 123.96 38.8712 124.224C38.1652 124.459 37.5089 124.689 36.9848 125.286L37.1561 124.401C34.7165 124.488 37.1958 126.151 35.0696 126.376C35.4499 125.985 35.1905 125.775 35.1618 125.468C34.5368 126.435 33.385 127.035 32.1641 127.396C30.933 127.776 29.6737 127.906 28.6797 128.158C28.7987 128.054 28.7625 127.859 28.7625 127.859C28.2226 127.89 27.6669 127.889 27.1127 127.865C26.5629 127.774 26.0132 127.684 25.4549 127.588C24.3513 127.335 23.2442 127.068 22.0397 126.848C21.3884 126.2 22.9683 125.364 20.9921 124.622C20.2759 126.08 17.5891 123.032 17.6565 125.17C17.3098 124.792 16.9128 124.362 16.495 123.909C16.0959 123.443 15.7322 122.916 15.3504 122.46C14.6409 121.476 13.9701 120.584 13.4321 120.118C13.9044 120.36 14.1553 119.893 14.4282 119.566C14.6925 119.234 14.9665 119.024 15.4063 119.618C15.4615 119.129 15.5203 118.653 15.5948 118.21C16.1984 118.031 15.9824 119.249 16.4591 118.555C16.3652 118.418 16.185 118.231 15.989 118.012C15.8885 117.907 15.7758 117.783 15.6631 117.659C15.5691 117.522 15.4701 117.395 15.3761 117.258C15.1882 116.986 15.0053 116.705 14.8656 116.449C14.7482 116.194 14.7012 115.958 14.7081 115.788C14.4057 115.553 14.0312 115.322 13.6684 115.051C13.3415 114.778 12.9817 114.463 12.6486 114.082C12.2882 113.708 12.0488 113.266 11.8601 112.738C11.77 112.476 11.6901 112.198 11.634 111.898C11.5915 111.595 11.6211 111.288 11.6572 110.949C11.8233 111.615 12.2627 111.479 12.6712 111.336C13.0797 111.193 13.44 111.033 13.5002 111.405C13.1446 110.825 12.7417 110.148 12.5462 109.454C12.4312 109.096 12.3212 108.73 12.2128 108.342L12.0732 107.75L12.0005 107.163C12.4294 106.313 13.09 107.558 13.4667 106.284C13.1065 106.107 13.267 105.517 13.2943 104.977C13.3865 104.938 13.5469 104.684 13.8341 104.412C14.1126 104.135 14.4676 103.787 14.8607 103.473C15.687 102.914 16.623 102.524 17.1586 103.093C17.4706 103.253 17.1965 103.463 17.0204 103.685C16.8355 103.901 16.7171 104.063 17.2312 104.017C18.5013 103.255 18.337 102.764 19.7752 102.17L19.8712 102.343C20.3817 102.283 21.0318 101.945 21.4359 101.533C21.8457 101.171 22.0059 100.72 21.3393 100.433C20.5962 100.553 21.8082 101.195 20.6546 101.086C21.1294 100.02 23.0686 99.4416 24.7452 99.3702C24.1817 99.6193 24.28 100.025 24.0818 100.442C26.158 99.1555 28.6828 99.0019 31.3217 99.2862C31.5364 98.6238 30.0431 100.24 29.8038 99.7986C31.2427 100.666 32.8684 100.82 34.455 101.356C35.2564 101.571 36.0062 101.953 36.6689 102.365C37.253 102.812 37.7794 103.318 38.0368 104.025C37.637 103.837 38.4925 103.11 38.3913 103.283C39.5101 104.38 38.7569 105.051 39.701 105.477C39.5233 105.721 39.7669 105.898 40.1616 106.095C40.5325 106.313 41.0632 106.554 41.4626 106.881C42.1259 107.015 41.4062 107.254 40.788 106.648C41.4465 106.988 42.8163 108.151 44.0203 109.715C45.238 111.276 46.2007 113.232 46.4135 114.806C46.756 114.578 48.475 116.015 48.6791 116.715L47.7295 116.772C47.444 117.555 48.5916 118.959 47.8644 119.309C48.6175 119.843 47.9735 118.55 47.2501 117.372C46.5181 116.189 45.7527 115.102 46.5304 115.871C46.0232 116.617 48.8855 117.983 47.5617 118.007C48.0581 119.295 49.4297 120.297 48.9661 121.799C49.0117 121.385 47.4497 121.083 47.8064 122.115C48.4606 123.925 48.3798 122.521 49.0544 123.96C49.2459 124.247 49.4597 124.534 49.6511 124.821C50.5347 124.678 49.896 126.518 50.7153 125.596C50.0485 125.981 51.7482 128.242 50.2536 128.339L49.0631 128.313C49.3297 129.084 50.5333 129.384 51.151 129.932C51.0664 130.056 50.87 130.312 50.6778 130.304C52.4512 130.127 50.8602 132.266 52.3872 133.022C52.0193 134.836 52.9163 137.437 51.8947 138.368C52.5452 139.631 53.2909 140.81 53.0302 142.362C52.8437 142.067 52.7504 141.653 52.364 141.6C51.9261 142.583 52.4101 142.786 52.7204 143.641C52.4408 143.465 51.7604 145.593 51.174 146.652C51.751 147.941 52.6778 147.488 53.2793 147.609C52.4039 148.232 52.6874 149.151 52.9852 150.126C53.2967 151.097 53.6173 152.132 52.7705 152.864C52.5549 152.401 51.9726 150.923 51.5014 152.003C49.6998 153.138 52.7039 154.459 51.7692 156.369L53.2473 155.984C52.3102 156.791 53.8612 158.929 52.4037 158.608C52.872 159.311 51.7331 160.858 53.1678 160.783C52.3787 162.326 52.3329 164.282 52.0831 166.071C51.7936 167.849 51.3808 169.462 49.9387 170.181C50.0808 170.67 49.6059 171.737 50.3684 171.662C51.3042 171.075 50.0329 170.515 50.6229 170.339C50.5772 170.753 50.9475 170.912 51.1302 170.996C50.5938 171.911 50.3422 172.656 49.3755 171.497C48.057 173.448 51.2978 174.248 50.0324 176.88C49.4947 176.61 49.22 176.762 49.1115 177.58C49.3008 178.166 49.5023 178.771 49.6866 179.366C48.9316 181.068 48.1029 179.991 47.1281 179.755C47.0091 180.729 46.6256 181.837 47.2049 182.49C46.6997 182.739 46.1859 182.982 45.6548 183.215C46.797 182.691 45.9642 184.151 46.0464 184.662L45.9642 184.151C45.5049 184.182 45.384 185.317 45.3142 185.891C45.936 185.977 46.5589 184.975 46.9309 184.439C47.1857 185.053 46.8255 185.746 47.0942 186.552C46.2382 186.016 45.9285 187.828 45.5252 188.496C44.9958 189.24 45.9699 189.754 45.8383 189.978C45.3565 189.811 45.2117 191.303 44.8202 190.389C44.7894 190.047 45.5325 189.926 45.3102 189.297C44.7449 189.707 43.9468 189.309 44.0975 190.673C44.1987 191.706 45.9894 191.203 44.7321 192.575C44.6995 192.057 44.3697 191.829 44.1765 191.368C43.8241 191.811 43.4286 192.228 43.0641 192.652L43.8469 193.076C43.553 193.182 43.5462 193.016 43.3906 193.063C44.0436 193.887 42.6304 195.446 43.4289 196.239C43.1555 197.041 42.1127 197.554 41.6511 198.222L41.6494 198.048C40.7466 198.677 40.4404 199.97 40.5466 200.995L40.4029 200.864C40.0779 201.299 39.551 202.474 39.6231 203.34C38.3038 204.166 36.5443 201.928 36.6656 203.796C35.9171 204.934 36.7201 206.529 37.5216 206.408C36.4995 207.281 35.8256 208.509 34.9655 209.639C34.1414 210.767 33.1139 211.787 31.7246 212.12C31.6801 212.651 32.0249 212.656 31.5258 213.348C29.8601 214.528 28.2232 216.014 26.385 217.092C24.4582 218.222 22.3583 218.857 20.5087 218.433C21.5858 217.743 20.3525 217.553 20.2191 217.069C19.4587 218.049 18.9392 216.503 18.8674 217.91C19.1117 218.68 19.0797 219.09 20.3443 219.148C19.1367 219.645 17.5147 220.039 16.0022 220.067C15.2463 220.111 14.5339 220.041 13.9137 219.932C13.297 219.837 12.7893 219.655 12.4508 219.421C13.1429 219.862 12.5738 220.062 11.9615 220.236C12.125 219.601 11.725 219.216 11.1275 218.97C10.5228 218.696 9.70945 218.66 8.93778 218.671L8.52793 219.369C8.28618 219.03 8.04949 218.683 7.82143 218.34C7.22019 218.417 6.67362 219.684 5.4933 218.436C5.53653 218.125 5.57621 217.8 5.41864 217.476C4.5744 217.433 3.49693 217.392 2.48501 217.042C1.97071 216.891 1.47457 216.669 1.06147 216.346C0.638252 216.04 0.26264 215.692 0.0233042 215.25C-0.0996551 214.61 -0.188111 213.99 -0.250693 213.385C-0.863672 212.967 -2.21315 212.303 -1.58438 213.623C-2.37404 212.162 -2.92402 211.005 -3.1858 210.028C-3.47495 209.059 -3.49613 208.304 -3.22762 207.708C-4.24474 206.833 -5.1157 205.65 -5.76171 204.32C-6.3991 202.996 -6.82167 201.542 -7.06932 200.087C-7.55956 197.167 -7.32009 194.328 -6.96952 191.972L-6.40496 192.176C-5.70015 190.954 -7.34744 191.391 -6.81765 190.507C-6.3222 191.007 -5.48111 189.692 -4.94182 190.808C-4.06015 189.087 -5.56039 188.265 -5.5326 186.914C-6.23931 186.557 -5.28128 188.046 -6.18281 187.587C-6.41892 187.298 -4.96144 185.011 -5.92508 184.341C-5.33029 183.96 -4.6445 184.629 -4.27188 185.021C-4.33124 184.569 -4.38554 184.108 -4.4074 183.632C-3.48981 183.115 -3.26643 184.197 -2.88298 185.164C-2.52333 186.152 -2.02235 187.037 -1.04587 186.578C-1.0184 186.234 -0.968614 185.893 -0.932513 185.554C-0.206274 185.285 -0.08573 186.028 0.0152584 186.528C0.124871 187.033 0.173875 187.305 0.734365 186.231C0.491673 185.103 -0.70372 183.544 -1.54495 184.326C-1.26346 183.134 -1.75948 182.577 -2.19571 181.996C-2.62331 181.421 -3.02561 180.802 -2.1729 179.447C-1.64481 179.259 -1.96002 179.816 -2.20266 180.427C-2.47623 181.032 -2.62606 181.662 -2.08106 181.623C-1.36817 181.218 -1.14129 180.574 -0.94592 179.866C-0.75561 179.166 -0.553687 178.426 -0.0106557 178.014C-1.25025 178.922 -1.49008 177.216 -0.896008 176.243C-0.0792701 175.76 -0.0889169 176.171 -0.0500361 176.461C-0.00759228 176.764 0.0179426 176.918 0.932654 176.11C0.850071 175.737 1.13468 175.034 1.28981 174.592C1.43631 174.145 1.34269 173.869 0.37541 174.392C0.237953 173.5 0.914845 173.097 1.63188 172.764C2.38698 172.465 3.18878 172.205 3.58471 171.312C4.22183 171.57 3.87053 172.465 3.79327 173.151C3.71095 173.844 3.85449 174.311 5.0957 173.915C4.88812 173.735 4.91973 173.464 5.06589 173.155C5.22068 172.852 5.53314 172.536 5.80603 172.21C6.36044 171.561 6.87678 170.878 5.83989 170.432C7.13517 170.3 7.41546 171.067 6.8238 171.937C7.6624 171.931 8.49017 171.35 9.31761 170.907C10.1329 170.447 10.8846 170.331 11.1657 171.354C11.3286 170.997 11.5086 170.651 11.7024 170.301C12.2119 170.658 12.9686 170.87 13.6428 171.578C13.9623 171.626 14.4029 171.607 14.8708 171.58C15.1091 171.569 15.3524 171.549 15.6044 171.535C15.8376 171.532 16.0607 171.547 16.2788 171.571C17.1474 171.651 17.7982 171.906 17.4761 172.633C17.9435 172.547 20.3807 173.768 19.8861 172.319C18.4988 170.949 17.7404 172.301 17.1796 170.569C18.1361 172.081 19.7288 171.322 20.9457 171.422L20.8319 172.051C21.4962 172.104 22.6156 172.923 23.2996 172.548C22.7035 172.615 22.7117 173.095 23.0412 173.463C23.3928 173.298 23.7293 173.159 24.0709 173.012C26.302 174.031 23.6378 174.659 25.5562 175.796C24.9902 175.615 24.375 175.497 23.7786 175.368C24.1757 175.461 24.2673 176.57 25.1977 177C26.0409 176.59 27.3056 176.312 28.0389 176.07C29.2078 176.686 27.7735 177.155 29.268 177.394C28.6407 177.258 28.0219 177.126 27.4068 177.009C27.0489 177.066 27.2132 178.762 28.2873 179.856C29.1398 180.379 31.1592 180.81 30.4288 179.269C30.9974 179.881 31.3061 181.093 30.4167 180.989C31.7481 182.257 30.9887 180.212 32.377 181.165C32.3598 182.025 32.8116 184.179 32.6987 185.597C32.014 185.381 31.3176 185.204 30.6472 185.043L31.1856 185.904C29.5053 185.428 30.7909 186.913 29.3727 186.939C29.5677 187.575 30.2741 188.07 30.8734 188.491C31.2617 187.177 32.0863 187.313 33.0369 187.709C33.9566 188.097 34.9273 188.794 35.6085 188.127C36.5035 189.487 35.5745 190.241 35.0034 190.937C34.4187 191.638 34.0811 192.193 35.8563 193.061C36.1334 192.47 37.8603 193.321 36.8029 191.842C36.993 192.684 37.5175 192.818 37.9791 193.019C38.4544 193.217 38.8806 193.479 38.7887 194.584C37.7062 193.346 37.4743 196.607 35.9152 194.858C36.2118 194.846 36.2514 194.522 36.1623 194.179C36.0595 193.841 35.8552 193.478 35.7202 193.352C35.2862 194.21 34.0247 193.772 34.5017 195.35C34.9241 196.27 35.3096 197.609 36.1492 197.186C37.1238 196.888 35.6353 195.691 36.807 196.065C37.6717 198.01 36.3061 198.658 38.1973 199.13C37.8024 197.866 38.6733 197.31 39.3733 197.164C39.637 197.644 39.9367 198.121 40.1543 198.62L39.4392 198.455C39.4236 201.031 40.7733 198.948 41.0328 201.431L39.921 202.773C38.7012 202.382 39.793 199.196 38.0427 199.966C38.2362 201.494 39.2877 201.856 39.0284 203.385C38.847 203.082 38.7055 202.651 38.4831 202.358C38.4961 202.632 37.9338 202.998 37.5531 203.528C37.1588 204.062 36.9786 204.745 37.8032 205.75C38.4758 206.817 38.5001 205.985 39.1841 205.946C39.6783 208.404 40.2891 209.121 40.4665 210.756C39.0982 210.44 40.3969 213.602 38.9695 211.825C39.7266 211.029 39.6441 207.375 38.1789 206.631C36.6627 207.655 38.2146 204.693 36.5375 204.37C36.7006 206.286 35.106 206.336 34.1031 206.722C34.0824 207.231 34.5672 207.689 34.7622 207.989C35.7602 208.146 35.6798 207.473 36.6821 207.365C36.66 208.43 36.6978 209.473 36.959 210.391C37.1928 211.317 37.6227 212.125 38.0661 212.733C37.5432 213.447 36.5836 213.185 36.5273 212.352C36.6135 213.608 36.5837 214.924 36.4848 216.199C36.3809 217.483 36.0553 218.73 35.7804 219.89C36.6674 219.228 36.6758 219.906 36.6438 220.652C36.634 221.4 36.4651 222.182 37.2327 221.763C37.7986 220.541 39.0406 219.531 39.6612 220.37C39.4533 221.199 38.9705 220.243 38.5962 220.545C39.3404 221.747 36.9652 221.942 38.1182 223.198C38.0752 220.761 36.2889 222.403 35.1489 221.758C35.5211 223.495 34.2856 221.529 33.9737 223.109C34.1451 223.963 34.3176 224.933 34.3117 225.892C34.3143 226.856 34.2572 227.843 34.1376 228.758C33.2981 229.715 32.7521 231.041 32.4298 232.44C32.1298 233.841 31.7953 235.221 31.4086 236.177C30.3919 236.902 29.4002 235.648 28.7234 236.584C28.1935 237.804 30.5408 236.352 29.0824 237.85L28.9183 237.557C28.9165 238.251 26.3915 240.283 27.8353 241.814C27.5103 241.38 27.1629 240.944 26.8156 240.508C26.5335 240.772 26.6375 241.227 26.6151 241.562C26.1788 241.317 25.5609 241.442 25.6057 240.773C24.0649 241.225 24.4234 242.966 23.7296 244.089C24.1408 244.041 24.5361 243.959 24.9351 243.892C24.6414 245.065 23.9588 245.754 23.3329 246.465C22.6777 247.147 22.0533 247.836 21.4191 248.739L20.7887 248.114L20.3334 249.424C19.8984 248.624 18.7131 249.123 18.7898 250.119C18.9997 248.792 19.1807 247.496 19.3277 246.237C20.3277 245.896 19.5013 247.661 20.5454 247.798C21.4937 247.96 22.5016 246.163 22.019 245.404C21.4893 245.952 21.6142 246.094 21.5111 246.764C20.3975 246.192 21.1245 245.309 20.7928 244.372C20.5955 244.708 19.9766 244.914 20.2386 245.218C20.2187 244.244 20.5896 243.592 21.3068 242.587C21.1893 243.538 22.2079 242.652 22.3068 243.115C21.4886 242.415 21.8234 241.232 22.9116 240.108C24.6326 239.842 23.6529 237.204 24.7799 235.836C25.4308 236.96 25.7638 238.21 25.6198 239.424C26.6517 238.673 26.1984 238.28 27.2455 237.503C26.7841 236.629 25.8628 235.729 25.9796 234.186L26.7506 234.453C26.903 233.047 25.8388 232.608 26.6493 231.148C27.2866 229.864 27.9477 228.559 28.3669 227.251C28.7725 225.947 29.1995 224.725 29.4634 223.663L30.2636 223.761C29.5371 222.964 29.5784 221.945 29.743 220.893C29.9385 219.849 30.0801 218.738 29.8281 217.883C30.0925 217.215 30.2878 216.506 30.291 215.789C30.3166 215.074 30.2751 214.354 30.248 213.689C30.2347 212.348 30.1324 211.198 30.813 210.472C30.0577 205.554 28.8411 201.501 27.6768 196.668C28.1601 196.812 28.5837 196.98 29.0346 197.14C27.9737 196.518 29.5209 196.37 29.0687 195.56C28.5135 196.823 27.4899 194.773 26.6104 194.454C26.7747 192 24.5573 190.108 22.8515 189.142L23.474 188.614C22.8878 188.468 22.4342 188.213 22.0758 187.875C21.6987 187.55 21.3844 187.157 21.1055 186.703C20.5275 185.831 20.0126 184.752 19.2054 183.954C19.2252 183.525 19.3692 182.647 18.7315 182.331C18.2864 182.418 17.9249 182.461 17.6197 182.467C17.3044 182.491 17.0215 182.499 16.7451 182.476C16.4688 182.453 16.1802 182.411 15.8643 182.377C15.5418 182.373 15.1783 182.38 14.755 182.41C13.7475 181.993 12.3017 181.295 11.3014 180.906C11.0673 180.988 10.8875 181.196 10.6965 181.304C10.5075 181.448 10.3109 181.507 10.1443 181.653C9.97762 181.798 9.81604 181.936 9.64734 182.045C9.56729 182.103 9.48369 182.146 9.40365 182.204L9.17779 182.431C8.52079 182.938 7.97891 183.466 7.4697 184.176C6.44564 185.547 5.59089 187.735 5.65583 190.312L4.64404 190.495C4.90928 191.822 5.00731 193.236 5.00954 194.675C4.98681 196.018 4.97627 197.38 4.95354 198.723C4.94086 201.254 5.35011 203.442 6.52456 204.444C6.00153 204.624 5.47493 204.791 4.93615 204.938C4.97285 205.528 5.39125 206.04 5.90704 206.169C6.43146 206.302 6.94437 206.14 7.3119 205.671C7.4007 206.152 7.91765 206.398 8.37422 206.607C8.58123 206.729 8.80699 206.838 8.94764 207.013C9.09692 207.194 9.15099 207.457 9.15445 207.807C9.54731 208.165 9.90727 208.144 10.2762 207.99C10.6436 207.858 10.9709 207.655 11.4064 207.644C12.2817 208.227 13.0501 208.4 13.7762 208.466C14.519 208.485 15.2642 208.4 16.2886 208.097C16.1101 208.085 15.9352 208.086 15.7617 208.066C15.5629 208.425 15.5906 209.148 16.1621 209.182C16.9378 208.709 19.2694 208.964 17.9735 207.3C18.2656 207.355 18.5693 207.371 18.8588 207.332C19.1447 207.279 19.4335 207.182 19.7138 207.08C19.9869 206.95 20.2443 206.788 20.5017 206.626C20.7641 206.456 21.0447 206.214 21.3173 206.027C22.4012 205.167 23.3645 204.236 24.7955 203.951C24.2836 203.697 24.6663 203.203 24.6004 202.782C25.361 201.999 26.325 201.324 27.1678 200.52C27.9932 199.706 28.6893 198.815 28.8366 197.754C29.279 197.573 29.248 198.772 29.8539 197.957C30.0159 197.345 29.2876 197.578 29.4119 196.793C30.0358 194.84 31.2197 193.158 32.4527 191.412C33.6253 189.63 34.941 187.921 35.5157 186.032C36.3807 182.621 37.3176 179.206 38.2962 175.838C39.1647 172.44 40.0713 169.077 40.4861 165.761L40.8579 165.898C40.321 164.679 40.9092 163.458 41.3225 162.24C41.7531 161.032 42.1324 159.852 41.0609 158.852C41.4746 158.364 41.4048 156.863 42.1228 157.319C41.8986 156.851 41.8762 156.316 41.9424 155.729C41.995 155.145 42.1326 154.495 42.2667 153.832C42.4058 153.16 42.5241 152.464 42.5481 151.771C42.5498 151.077 42.4212 150.387 42.0874 149.75C42.0537 149.986 42.1253 150.12 42.2996 150.396C43.1878 147.776 41.9236 145.504 42.5358 142.721C42.7374 142.99 42.888 143.484 43.278 143.551C43.9632 142.422 41.4261 141.154 43.2692 140.403C43.198 139.794 42.2882 140.06 42.3758 140.424C42.4812 137.379 41.9051 134.27 41.0876 131.217C40.6559 129.7 40.1435 128.182 39.6468 126.696C39.1315 125.223 38.5756 123.819 38.0254 122.464C37.9047 120.318 38.5822 119.974 39.0475 119.852C39.5077 119.74 39.7192 119.794 38.4374 118.521C38.6651 118.133 37.6993 118.633 38.0353 118.435C37.552 117.955 37.8235 117.314 38.0438 116.701C38.2778 116.085 38.4354 115.54 37.7958 115.385C36.9486 116.256 36.9621 115.186 36.3343 115.525C36.0565 114.318 36.0104 113.468 35.8133 112.796C35.6163 112.124 35.2562 111.611 34.3178 111.235L34.8635 110.917C33.479 110.708 32.549 110.139 31.5725 109.729C30.6828 109.427 29.813 109.23 28.81 109.951C26.7811 109.26 24.2644 109.36 22.6869 110.093C21.0856 110.846 20.7435 111.805 20.7596 112.568C20.7631 112.917 20.8248 113.267 21.1272 113.838C21.4088 114.386 21.8339 115.064 22.4817 115.699C23.1481 116.322 23.9104 116.92 24.7313 117.379C25.5724 117.802 26.4175 118.101 27.1823 118.26C27.9694 118.42 28.3457 118.49 29.5502 118.374C30.5691 118.218 31.6056 117.933 32.6562 117.506C34.7603 116.607 36.9199 115.08 38.9912 113.13C41.0626 111.18 43.0377 108.86 44.9507 106.331C45.8653 104.989 46.8058 103.663 47.7771 102.343C48.2438 101.666 48.8003 101.053 49.2116 100.332C49.6575 99.6313 50.0983 98.9392 50.5441 98.2385C53.4246 96.2531 53.6383 96.0075 54.3896 92.5527C54.5669 92.7842 54.5382 93.0109 54.8509 92.8929C53.7276 92.1991 55.7218 90.5981 54.6987 89.8124C55.2916 88.7226 55.6867 87.5748 56.0768 86.4355C56.4668 85.2963 56.8432 84.1606 57.2059 83.0285C57.6132 81.8994 57.8227 80.7122 58.1042 79.5209C58.3857 78.3296 58.6636 77.1246 58.9927 75.8916C58.9252 76.6984 59.863 77.3528 60.0215 76.3908L59.4629 75.2284L59.8583 75.1473C59.7794 74.4517 59.2704 73.6198 58.7427 74.203C58.9975 71.0019 59.6342 67.9205 59.9168 64.7705L60.24 62.4211L60.4171 61.2497C60.4613 60.8582 60.4831 60.4652 60.5186 60.0687C60.6506 58.4998 60.8013 56.9188 60.9693 55.3478L61.0931 54.1683L61.1277 52.9829L61.1882 50.6069L61.2487 48.2309L61.2747 47.0404L61.1927 45.8561C61.0878 44.2759 60.9607 42.6941 60.8062 41.1195C60.7698 40.7271 60.7333 40.3347 60.6745 39.9408L60.4434 38.7734L59.9488 36.4544C60.0262 33.3579 58.2444 29.3795 57.1304 26.3377C56.6986 23.9511 56.2876 21.5884 55.7894 19.2557C55.1291 17.0017 54.4191 14.7534 53.622 12.5352C52.6439 10.4079 51.5787 8.31059 50.3817 6.24035C49.0296 4.27625 47.5119 2.37724 45.8709 0.510333C45.8709 0.510333 49.2947 -0.483977 52.411 2.64263L52.4577 2.68161Z" fill="#F8D5E9"/>
</svg>
